<?xml version="1.0" standalone="no"?>
<!DOCTYPE svg PUBLIC "-//W3C//DTD SVG 1.1//EN" "http://www.w3.org/Graphics/SVG/1.1/DTD/svg11.dtd" >
<svg xmlns="http://www.w3.org/2000/svg" xmlns:xlink="http://www.w3.org/1999/xlink" version="1.1">
<metadata>
Created by FontForge 20170731 at Fri Jan  1 02:30:17 1904
 By Aleksey,,,
Copyright (c) 1991 Digital Typeface Corp.
</metadata>
<defs>
<font id="ArnoldBoecklin" horiz-adv-x="2048" >
  <font-face 
    font-family="Arnold Boecklin"
    font-weight="400"
    font-stretch="normal"
    units-per-em="4096"
    panose-1="4 2 114 0 0 0 0 0 0 0"
    ascent="3276"
    descent="-820"
    x-height="1995"
    cap-height="2757"
    bbox="-618 -807 3863 3453"
    underline-thickness="105"
    underline-position="-259"
    unicode-range="U+0008-FB02"
  />
<missing-glyph horiz-adv-x="3072" 
d="M512 0v2560h2048v-2560h-2048zM2496 64v2432h-1920v-2432h1920z" />
    <glyph glyph-name=".notdef" unicode="&#x394;" horiz-adv-x="3072" 
d="M512 0v2560h2048v-2560h-2048zM2496 64v2432h-1920v-2432h1920z" />
    <glyph glyph-name=".notdef" unicode="&#xf8ff;" horiz-adv-x="3072" 
d="M512 0v2560h2048v-2560h-2048zM2496 64v2432h-1920v-2432h1920z" />
    <glyph glyph-name=".notdef" unicode="&#xe01e;" horiz-adv-x="3072" 
d="M512 0v2560h2048v-2560h-2048zM2496 64v2432h-1920v-2432h1920z" />
    <glyph glyph-name=".notdef" unicode="&#x25ca;" horiz-adv-x="3072" 
d="M512 0v2560h2048v-2560h-2048zM2496 64v2432h-1920v-2432h1920z" />
    <glyph glyph-name=".notdef" unicode="&#x2260;" horiz-adv-x="3072" 
d="M512 0v2560h2048v-2560h-2048zM2496 64v2432h-1920v-2432h1920z" />
    <glyph glyph-name=".notdef" unicode="&#x2248;" horiz-adv-x="3072" 
d="M512 0v2560h2048v-2560h-2048zM2496 64v2432h-1920v-2432h1920z" />
    <glyph glyph-name=".notdef" unicode="&#x222b;" horiz-adv-x="3072" 
d="M512 0v2560h2048v-2560h-2048zM2496 64v2432h-1920v-2432h1920z" />
    <glyph glyph-name=".notdef" unicode="&#x221e;" horiz-adv-x="3072" 
d="M512 0v2560h2048v-2560h-2048zM2496 64v2432h-1920v-2432h1920z" />
    <glyph glyph-name=".notdef" unicode="&#x221a;" horiz-adv-x="3072" 
d="M512 0v2560h2048v-2560h-2048zM2496 64v2432h-1920v-2432h1920z" />
    <glyph glyph-name=".notdef" unicode="&#x2211;" horiz-adv-x="3072" 
d="M512 0v2560h2048v-2560h-2048zM2496 64v2432h-1920v-2432h1920z" />
    <glyph glyph-name=".notdef" unicode="&#x220f;" horiz-adv-x="3072" 
d="M512 0v2560h2048v-2560h-2048zM2496 64v2432h-1920v-2432h1920z" />
    <glyph glyph-name=".notdef" unicode="&#x2202;" horiz-adv-x="3072" 
d="M512 0v2560h2048v-2560h-2048zM2496 64v2432h-1920v-2432h1920z" />
    <glyph glyph-name=".notdef" unicode="&#x3c0;" horiz-adv-x="3072" 
d="M512 0v2560h2048v-2560h-2048zM2496 64v2432h-1920v-2432h1920z" />
    <glyph glyph-name=".notdef" unicode="&#x3a9;" horiz-adv-x="3072" 
d="M512 0v2560h2048v-2560h-2048zM2496 64v2432h-1920v-2432h1920z" />
    <glyph glyph-name=".null" horiz-adv-x="0" 
 />
    <glyph glyph-name=".null" horiz-adv-x="0" 
 />
    <glyph glyph-name=".null" horiz-adv-x="0" 
 />
    <glyph glyph-name="nonmarkingreturn" unicode="&#x9;" horiz-adv-x="0" 
 />
    <glyph glyph-name="nonmarkingreturn" unicode="&#xd;" horiz-adv-x="0" 
 />
    <glyph glyph-name="space" unicode=" " horiz-adv-x="1130" 
 />
    <glyph glyph-name="exclam" unicode="!" horiz-adv-x="1200" 
d="M352 672l-4 1757q0 35 -24.5 62.5t-71.5 62.5t-65.5 54.5t-18.5 49.5q0 74 184 74h459q188 0 188 -74q0 -32 -20.5 -52.5t-68 -53.5t-69.5 -57.5t-22 -65.5v-1528q0 -45 26.5 -72t83 -59t84 -56.5t27.5 -66.5q0 -61 -213 -61h-397q-44 0 -61 17.5t-17 68.5zM598 410
q104 0 181 -51t77 -146q0 -110 -74.5 -169.5t-183.5 -59.5q-108 0 -183 61t-75 168q0 95 77 146t181 51z" />
    <glyph glyph-name="quotedbl" unicode="&#x22;" horiz-adv-x="938" 
d="M586 1819v708q0 135 98 135q57 0 79.5 -52t22.5 -99q0 -23 -18 -158t-18 -199q0 -45 6 -138t6 -161q0 -167 -90 -167q-42 0 -64 42t-22 89zM156 1819v708q0 135 98 135q57 0 79.5 -52t22.5 -99q0 -30 -18.5 -161.5t-18.5 -195.5q0 -45 6.5 -132t6.5 -167q0 -167 -90 -167
q-42 0 -64 42t-22 89z" />
    <glyph glyph-name="numbersign" unicode="#" horiz-adv-x="2265" 
d="M1679 819l-102 -672q-12 -84 -55.5 -115.5t-132.5 -31.5q-68 0 -126.5 43t-58.5 145l103 631h-500l-94 -614q-13 -115 -49.5 -160t-147.5 -45q-168 0 -168 188l98 631h-196q-112 0 -168.5 30.5t-56.5 133.5q5 103 62 133.5t171 30.5h238l77 491h-196q-114 0 -169.5 29.5
t-55.5 130.5q5 103 63 133.5t170 30.5h233l87 565q20 114 62 159.5t155 45.5q82 -6 116.5 -47t34.5 -141q0 -19 -33.5 -230.5t-56.5 -351.5h500l98 623q21 147 197 147q57 0 108.5 -25t59.5 -77q0 -60 -9 -148l-86 -520h189q118 0 171.5 -29t53.5 -135q0 -160 -172 -160
h-287l-77 -491h192q117 0 171 -30t54 -134q0 -164 -172 -164h-295zM1434 1638h-496l-78 -491h500z" />
    <glyph glyph-name="dollar" unicode="$" horiz-adv-x="2265" 
d="M1741 2105q-49 -24 -103 -24q-58 0 -92.5 41.5t-34.5 93.5q0 12 25 90l29 70q12 36 12 73q0 107 -295 107h-377q-156 0 -235.5 -21t-79.5 -86q0 -117 295 -258l319 -159q236 -119 389 -208t283 -206q303 -277 303 -733q0 -229 -94 -441t-295 -342q-151 -98 -414 -135
q-61 -9 -61 -94v-123q0 -76 -35.5 -93t-144.5 -17q-116 0 -154.5 19.5t-38.5 94.5v107q0 59 -14.5 86.5t-71.5 27.5h-102q-144 3 -265.5 65t-211 167.5t-138.5 237.5t-49 272q0 181 79.5 338t224 249.5t327.5 92.5q163 0 275.5 -61.5t224.5 -192.5q56 -66 110 -66h37v-41
q0 -90 -67.5 -157.5t-161.5 -67.5q-35 0 -69 12.5t-104 44t-114.5 47t-93.5 15.5q-73 0 -118.5 -48.5t-45.5 -123.5q0 -164 150 -229.5t341 -65.5q257 0 436 128t179 376q0 410 -574 708l-397 205q-240 127 -396.5 260t-156.5 309q0 73 42.5 140.5t109.5 97.5q94 45 311 45
h135q87 0 127.5 19.5t40.5 91.5v65q0 63 41 80.5t143 17.5q97 0 143 -14.5t46 -75.5v-82q0 -63 21.5 -82.5t88.5 -19.5h328q109 0 204 -33.5t95 -118.5q0 -101 -65.5 -155t-204.5 -127q-99 -56 -99 -103q0 -32 58 -90z" />
    <glyph glyph-name="percent" unicode="%" horiz-adv-x="2363" 
d="M528 90l1172 2634q12 35 42.5 58.5t67.5 23.5q67 -7 82 -74q0 -53 -12 -78l-1167 -2634q-34 -90 -107 -90q-37 0 -63.5 25.5t-26.5 60.5q0 38 12 74zM2023 1331q18 8 29 8q68 -8 127 -180q78 -234 78 -422q0 -198 -23 -351t-92 -288q-84 -159 -217 -159q-11 0 -73 10
t-83 10q-16 0 -60 -8t-71 -8q-177 0 -250 219.5t-73 447.5q0 325 94 549q52 124 156.5 215.5t224.5 91.5q133 0 233 -135zM819 2695q16 8 29 8q46 -5 74 -57t53 -123q78 -234 78 -422q0 -412 -115 -639q-84 -159 -217 -159q-10 0 -73 10t-83 10q-17 0 -61 -8t-70 -8
q-177 0 -250 219.5t-73 447.5q0 325 94 549q52 124 156.5 215.5t224.5 91.5q133 0 233 -135zM1933 1278q-67 82 -135 82q-160 0 -219 -184t-59 -394q0 -598 258 -598q123 0 180 73t90 206q49 179 49 377q0 154 -69 336q-55 -46 -86 -46q-54 0 -54 62q0 30 45 86zM729 2642
q-67 82 -135 82q-161 0 -220 -184t-59 -394q0 -598 258 -598q124 0 181 73t90 206q49 179 49 377q0 156 -70 336q-53 -46 -86 -46q-22 0 -37.5 19.5t-15.5 42.5q0 30 45 86z" />
    <glyph glyph-name="ampersand" unicode="&#x26;" horiz-adv-x="2740" 
d="M2208 1225q124 -145 189 -273t65 -293q0 -161 -61.5 -322.5t-193.5 -267.5t-331 -106q-109 0 -354 35t-301 35q-77 0 -279 -35t-246 -35q-196 0 -324.5 121t-186.5 307.5t-58 382.5q24 496 430 766q239 160 528 229q82 16 82 54q0 46 -82 57l-393 94q-161 38 -287 135
t-126 242q0 422 1085 422q162 0 371 -23.5t380 -99.5t171 -217q0 -109 -100.5 -169t-219.5 -60q-97 0 -179 20.5t-128 20.5q-64 0 -82 -74l-25 20q-65 59 -65 107q0 36 28 62t86.5 55t80.5 42.5t22 36.5q0 50 -121 72.5t-207 22.5q-577 0 -577 -234q0 -120 107.5 -193
t269.5 -134l213 -82q118 -51 118 -115q0 -68 -110 -115q-216 -90 -331 -147.5t-214 -151.5q-105 -102 -173.5 -248t-68.5 -284q0 -145 93 -267t235 -122q14 0 168.5 20.5t249.5 20.5q52 0 260.5 -18.5t251.5 -18.5q348 0 348 323q0 74 -34 145.5t-92.5 116.5t-123.5 45
q-62 0 -115 -29t-53 -85q0 -49 25 -70.5t86 -48.5q-148 -98 -246 -98q-89 0 -153 61.5t-64 147.5q0 156 213 249q82 39 393 136q111 35 174.5 72.5t63.5 111.5q0 41 -27 60t-80 42q116 131 230 131q99 0 166 -62.5t67 -162.5q0 -182 -266 -287z" />
    <glyph glyph-name="quotesingle" unicode="'" horiz-adv-x="512" 
d="M160 1819v708q0 135 98 135q57 0 79.5 -52t22.5 -99q0 -23 -18 -158t-18 -199q0 -45 6 -138t6 -161q0 -167 -90 -167q-42 0 -64 42t-22 89z" />
    <glyph glyph-name="parenleft" unicode="(" horiz-adv-x="1548" 
d="M1167 -750h-311q-151 0 -261.5 66.5t-213.5 204.5q-213 294 -213 889q0 812 565 2011q26 58 49 110t50 101t57 84q37 41 139 41h115h135q131 0 131 -45q0 -11 -7 -30t-9 -28l-82 -200q-20 -52 -41.5 -74t-73.5 -25l-94 -4q-109 -5 -156.5 -74.5t-85.5 -203.5
q-77 -259 -118.5 -417t-73.5 -333q-78 -413 -78 -668q0 -308 38 -531.5t171 -402.5q129 -169 438 -237q111 -31 111 -107q0 -67 -53.5 -97t-127.5 -30z" />
    <glyph glyph-name="parenright" unicode=")" horiz-adv-x="1548" 
d="M721 -750h-311q-74 0 -127.5 30t-53.5 97q0 76 111 107q309 68 438 237q133 177 171 401.5t38 532.5q0 255 -78 668q-45 252 -192 750q-34 129 -83.5 201t-158.5 77l-94 4q-51 3 -71.5 23.5t-43.5 75.5l-82 200l-8 22t-8 36q0 45 131 45h135h115q102 0 139 -41
q30 -35 57 -84t50 -101t49 -110q565 -1199 565 -2011q0 -595 -213 -889q-100 -136 -211 -203.5t-264 -67.5z" />
    <glyph glyph-name="asterisk" unicode="*" horiz-adv-x="1585" 
d="M668 2236q0 18 -7.5 46t-9.5 40q-6 32 -50 135.5t-44 127.5q0 71 47 123.5t117 52.5q67 0 113.5 -53t46.5 -123q0 -34 -44 -129t-51 -134q0 -2 -5.5 -23.5t-8 -35t-2.5 -27.5q65 27 168 115q15 14 42 39t47 39.5t43.5 23.5t51.5 9q67 0 117.5 -44.5t50.5 -111.5
q0 -71 -51 -119.5t-121 -48.5q-8 0 -93 6t-140 6q-58 0 -86 -8q36 -43 65 -57q24 -17 69 -48.5t103 -62.5q94 -49 94 -164q0 -60 -46.5 -105.5t-104.5 -45.5q-66 0 -113 42t-59 105q-11 63 -27.5 116.5t-25.5 80.5q-5 42 -37 82q-28 -41 -33 -82q-9 -28 -26 -86.5
t-27 -110.5q-12 -64 -58.5 -105.5t-113.5 -41.5q-68 0 -110 49.5t-42 118.5q0 93 94 147q49 27 97 59.5t75 51.5q28 14 66 57q-29 8 -86 8q-33 0 -130 -6t-104 -6q-68 0 -120 50.5t-52 121.5q0 67 54.5 109.5t126.5 42.5q36 0 69.5 -22t83 -68t76.5 -66q10 -7 20.5 -15.5
t16.5 -13.5q51 -34 74 -41z" />
    <glyph glyph-name="plus" unicode="+" horiz-adv-x="2265" 
d="M946 1577v418q0 153 31.5 242.5t152.5 89.5q125 0 157 -89.5t32 -242.5v-418h463q151 0 241.5 -31t90.5 -149q0 -122 -90.5 -153.5t-241.5 -31.5h-463v-512q0 -237 -189 -237q-121 0 -152.5 89.5t-31.5 242.5v417h-463q-150 0 -240.5 31.5t-90.5 153.5q0 94 67.5 137
t169.5 43h557z" />
    <glyph glyph-name="comma" unicode="," horiz-adv-x="848" 
d="M135 -287q13 94 152 156l61 20q89 39 119 131q-50 -16 -82 -16q-65 0 -114.5 54.5t-49.5 121.5q0 81 59 143t142 62q113 0 175 -85t62 -206q0 -131 -92 -229t-202 -98q-11 0 -40 1.5t-46 2.5q-80 0 -144 -58z" />
    <glyph glyph-name="hyphen" unicode="-" horiz-adv-x="930" 
d="M172 1212h606q160 0 160 -98q0 -60 -43.5 -87.5t-103.5 -27.5h-635q-61 0 -104.5 28t-43.5 87q0 98 164 98z" />
    <glyph glyph-name="period" unicode="." horiz-adv-x="848" 
d="M434 393q98 0 172 -51t74 -149q0 -96 -72 -150.5t-174 -54.5t-174 58t-72 159q0 87 75 137.5t171 50.5z" />
    <glyph glyph-name="slash" unicode="/" horiz-adv-x="1692" 
d="M221 -74l1237 2798q38 82 111 82q66 -6 82 -74q0 -53 -13 -78l-1232 -2797q-42 -90 -111 -90q-36 0 -61.5 25.5t-28.5 60.5q0 25 16 73z" />
    <glyph glyph-name="zero" unicode="0" horiz-adv-x="2265" 
d="M1659 2261q116 -12 201 -102q106 -111 161.5 -273t71.5 -327.5t16 -366.5q0 -464 -156.5 -832t-555.5 -368q-20 0 -122 16.5t-132 16.5q-26 0 -137 -16.5t-138 -16.5q-177 0 -321 105t-240 276q-93 180 -122 386t-29 482q0 273 35 515.5t131.5 448t282.5 329.5t472 124
q218 0 410 -51.5t192 -214.5q0 -75 -20 -131zM1364 2249q16 37 16 94q-13 88 -115.5 117.5t-191.5 29.5q-165 0 -277.5 -87t-164.5 -236q-94 -257 -94 -635q0 -256 35.5 -436t119.5 -314q138 -213 459 -213q191 0 316.5 79.5t191.5 206t90.5 268.5t24.5 294q0 206 -57 414.5
t-165 208.5q-19 0 -59 -24.5t-80 -24.5q-69 0 -108 36t-39 91q0 73 98 131z" />
    <glyph glyph-name="one" unicode="1" horiz-adv-x="2265" 
d="M1122 2163q-150 -104 -233 -156q-158 -98 -217 -111q-92 0 -159 34.5t-67 92.5q0 53 62 62q152 22 319 102q171 74 287 156t245 186.5t157 104.5q25 0 41 -23t16 -51v-2060q0 -91 39.5 -137.5t123 -117.5t83.5 -114q0 -63 -87 -101t-155 -38q-21 0 -117 14t-117 14
q-18 0 -133 -12t-141 -12q-68 0 -155 37t-87 98q0 45 88.5 101.5t131.5 96t43 130.5v1544q0 74 32 160z" />
    <glyph glyph-name="two" unicode="2" horiz-adv-x="2265" 
d="M1991 901q-40 -36 -55 -56t-15 -63q0 -22 75 -146t123 -227.5t48 -203.5q0 -74 -88 -122t-199.5 -69.5t-187.5 -21.5q-10 0 -232.5 16.5t-378.5 16.5q-107 0 -361 -16.5t-269 -16.5q-87 0 -212.5 41.5t-132.5 109.5q0 80 111 258q195 308 512 557l246 201
q220 181 347.5 369t127.5 418q0 151 -66 271t-184.5 188.5t-269.5 68.5q-106 0 -209 -39.5t-168.5 -117t-65.5 -183.5q0 -120 76.5 -187t177.5 -67q136 0 217 115q68 106 140 106q51 0 98 -53q-49 -39 -49 -61t18.5 -87.5t18.5 -109.5q0 -151 -141 -251.5t-338 -100.5
q-232 0 -390.5 147t-158.5 418q0 206 100.5 353t301.5 224.5t491 77.5q485 0 719.5 -160.5t234.5 -482.5q0 -276 -193 -504q-84 -100 -188.5 -173.5t-290.5 -186.5l-172 -107q-209 -123 -381 -266q-94 -85 -94 -155q0 -78 139 -78q51 0 185 8t200 8q50 0 180 -8t152 -8
q94 0 125 33t31 98q0 17 -2 52t-2 54q0 66 54 119t122 53q70 0 123 -53z" />
    <glyph glyph-name="three" unicode="3" horiz-adv-x="2265" 
d="M614 831q-41 -61 -41 -114q0 -103 67.5 -131.5t166.5 -28.5q34 0 112 2t105 2q32 0 142 -4t124 -4q131 0 217 104.5t86 239.5q0 142 -66 273t-179 202q-105 66 -227.5 99.5t-297.5 64.5l-143 25q-86 17 -86 86q0 56 90 90l496 168q137 46 210 77.5t134 95t61 158.5
q0 139 -138 196.5t-300 57.5q-119 0 -240 -21t-121 -89q0 -44 74 -62q189 -37 189 -147q0 -67 -50 -111q-22 66 -90 66q-44 0 -105 -14.5t-112 -14.5q-135 0 -258 61t-123 197q0 303 815 303q959 0 959 -426q0 -175 -122 -274t-269 -136t-391 -77q-45 -5 -112.5 -13
t-121 -21t-53.5 -32q0 -21 33.5 -33t100 -21t79.5 -11q366 -53 651 -271q295 -216 295 -614q0 -164 -63.5 -312.5t-182.5 -252.5q-95 -84 -208.5 -128t-295.5 -44q-14 0 -133 6t-174 6q-33 0 -194 -8t-187 -8q-186 0 -334 64t-230.5 180.5t-82.5 267.5q0 155 97 274t243 119
q107 0 184 -62z" />
    <glyph glyph-name="four" unicode="4" horiz-adv-x="2265" 
d="M1860 1315q82 -35 90 -37l78 -16q95 -21 156 -112t61 -216q0 -139 -108 -252t-261 -113q-28 0 -167 29t-271 29q-108 0 -201.5 -6.5t-209 -18.5t-213 -18t-228.5 -6q-225 0 -389 69.5t-164 188.5q0 37 16 74.5t38 71.5t52 79q49 70 177 255.5t218 316.5t130 198
q114 185 114 303q0 66 -14.5 101t-55 114.5t-40.5 116.5q0 139 237 139q67 3 208 8q141 4 280 4q229 0 344 -16q98 -24 98 -70q0 -31 -57 -69l-58 -41q-65 -51 -65 -160v-1176q-147 17 -230 17q-94 0 -266 -8v1196q0 43 -19.5 83t-62.5 40q-42 0 -72 -69.5t-42 -152.5
q-23 -147 -81.5 -328t-131 -356t-112.5 -273t-40 -120q0 -98 168 -98q13 0 190 16.5t301 16.5q68 0 218 -6q150 -7 241 -7q180 0 180 140q0 65 -36 139zM1655 549l4 -78q4 -65 41 -103t103 -72.5t98 -61t32 -74.5q0 -63 -98 -115.5t-201 -52.5q-13 0 -99 12t-105 12
q-20 0 -131 -10t-136 -10q-65 0 -173.5 50.5t-108.5 113.5q0 23 26 48t60 47.5t61 39.5q101 64 120.5 83.5t22.5 96.5l5 90q119 13 229 13q52 0 250 -29z" />
    <glyph glyph-name="five" unicode="5" horiz-adv-x="2265" 
d="M709 762q-127 0 -127 -103q0 -47 40.5 -78.5t90.5 -31.5q36 0 151 8t135 8q25 0 128 -8t139 -8q151 0 243.5 120.5t92.5 276.5q0 203 -85 359.5t-242 242.5t-362 86q-100 0 -237 -28q-21 -133 -106 -243t-210 -110q-62 0 -96.5 42t-34.5 110q0 169 279 332
q-44 233 -96.5 330.5t-127.5 199t-75 170.5q0 81 66.5 124.5t150.5 43.5q91 0 269 -16.5t251 -16.5q114 0 357.5 29t265.5 29q246 0 246 -99q0 -90 -74 -200q-130 -205 -438 -205q-34 0 -192.5 32.5t-254.5 53.5q-123 0 -170 -35t-47 -121q0 -27 15.5 -135.5t17.5 -146.5
q247 73 434 73q282 0 519.5 -124.5t375 -349.5t137.5 -513q0 -229 -80.5 -426.5t-246 -317.5t-406.5 -120q-56 0 -173 6t-138 6q-107 0 -256 -8t-211 -8q-190 0 -340 143q-160 148 -160 406q0 150 96 263.5t244 113.5q163 0 242 -156zM516 1565q-110 -38 -110 -111
q0 -33 24 -33q60 0 86 144z" />
    <glyph glyph-name="six" unicode="6" horiz-adv-x="2265" 
d="M500 1483q95 186 268.5 295.5t394.5 109.5q271 0 486.5 -109.5t337.5 -320t122 -495.5q0 -209 -84.5 -437t-246.5 -381t-377 -153q-18 0 -121 14t-125 14q-23 0 -131 -12t-131 -12q-125 0 -247.5 69t-211.5 177q-278 355 -278 938q0 868 397 1269q113 116 248 148.5
t346 32.5q291 0 538.5 -20.5t247.5 -82.5q0 -70 -69 -188q-52 -93 -137.5 -147t-186.5 -54q-98 0 -158.5 36t-134 111.5t-129 111.5t-147.5 36q-150 0 -256.5 -141t-160.5 -334t-54 -344v-131zM1671 1085q0 264 -137 429t-395 165q-155 0 -276 -80t-187 -213.5t-66 -287.5
q0 -158 67.5 -282t191 -193.5t282.5 -69.5q235 0 377.5 149.5t142.5 382.5z" />
    <glyph glyph-name="seven" unicode="7" horiz-adv-x="2265" 
d="M492 1757q18 -12 32 -12q35 0 54.5 26.5t19.5 63.5q0 62 -52.5 123.5t-164 167t-166.5 182t-55 162.5q0 143 336 143q47 0 348 -12t381 -12q181 0 340.5 20.5t220.5 20.5q86 0 207 -48t121 -116q0 -61 -110.5 -173.5t-167.5 -181t-112 -235.5q-55 -159 -122 -442
q-70 -311 -70 -672q0 -324 82 -422q46 -31 115 -94t69 -119q0 -55 -95.5 -95t-158.5 -40q-17 0 -125 12t-137 12q-21 0 -143 -10t-152 -10q-69 0 -169.5 54.5t-100.5 121.5q0 31 28 55.5t88.5 65.5t92.5 77t32 85q0 55 10.5 118t27.5 128t32 126q99 420 283 811
q92 197 315 586l66 115q-225 -164 -488 -164q-221 0 -520 135q95 -144 135.5 -219.5t40.5 -169.5q0 -128 -52 -219.5t-169 -91.5t-147 147z" />
    <glyph glyph-name="eight" unicode="8" horiz-adv-x="2265" 
d="M1458 1675q153 -73 301 -211.5t245 -334t97 -424.5q0 -176 -63 -341t-191.5 -268.5t-310.5 -103.5q-9 0 -180 20.5t-226 20.5q-54 0 -224 -20.5t-181 -20.5q-270 0 -417.5 215.5t-147.5 497.5q0 220 91 415t237.5 336.5t314.5 218.5q-182 76 -351 210.5t-169 338.5
q0 245 263 339.5t584 94.5q229 0 423.5 -47t309.5 -143t115 -236q0 -200 -163.5 -343t-356.5 -214zM1130 1733q200 51 313 146t113 275q0 164 -125.5 238t-300.5 74q-174 0 -299.5 -74t-125.5 -238q0 -311 425 -421zM1130 1552q-221 0 -397 -161t-176 -379q0 -149 76.5 -269
t218.5 -120q4 0 112 14t166 14q85 0 183 -14l96 -14v0q144 0 221.5 119t77.5 270q0 121 -77 247t-209.5 209.5t-291.5 83.5z" />
    <glyph glyph-name="nine" unicode="9" horiz-adv-x="2265" 
d="M655 877q-77 -96 -82 -156q0 -65 51 -112.5t113 -47.5q30 0 149 6t138 6q37 0 163 -8t144 -8q163 0 270 142.5t154 340.5t47 361q0 32 -2 98t-2 98q-82 -154 -271.5 -255t-477.5 -101q-218 0 -422 71.5t-337.5 229.5t-133.5 400q0 688 1007 688q269 0 458.5 -94.5
t304.5 -262t167.5 -391.5t52.5 -498q0 -330 -46.5 -587.5t-186.5 -472.5q-221 -332 -627 -332q-20 0 -127 8t-131 8q-22 0 -141 -8t-146 -8q-132 0 -255.5 65t-202 177.5t-78.5 244.5q0 129 70.5 261t187.5 132q11 0 55 -6t51 -6q33 0 86 17zM1716 1954q0 145 -78 253.5
t-208 165t-279 56.5q-213 0 -354.5 -127t-141.5 -340q0 -139 73 -250.5t194.5 -172t261.5 -60.5q135 0 259 61t198.5 170t74.5 244z" />
    <glyph glyph-name="colon" unicode=":" horiz-adv-x="848" 
d="M434 393q95 0 170.5 -51t75.5 -141q0 -99 -72 -156t-174 -57q-103 0 -174.5 55t-71.5 154q0 95 74.5 145.5t171.5 50.5zM434 1757q95 0 170.5 -51t75.5 -141q0 -99 -72 -156t-174 -57q-103 0 -174.5 55t-71.5 154q0 95 74.5 145.5t171.5 50.5z" />
    <glyph glyph-name="semicolon" unicode=";" horiz-adv-x="848" 
d="M397 1757q95 0 170.5 -51t75.5 -141q0 -99 -72 -156t-174 -57q-103 0 -174 55t-71 154q0 95 74.5 145.5t170.5 50.5zM135 -287q13 94 152 156l61 20q89 39 119 131q-50 -16 -82 -16q-65 0 -114.5 54.5t-49.5 121.5q0 81 59 143t142 62q113 0 175 -85t62 -206
q0 -131 -92 -229t-202 -98q-11 0 -40 1.5t-46 2.5q-80 0 -144 -58z" />
    <glyph glyph-name="less" unicode="&#x3c;" 
d="M1909 2482v-475l-1266 -614l1266 -619v-471l-1774 889v401z" />
    <glyph glyph-name="equal" unicode="=" horiz-adv-x="2265" 
d="M483 1901h1299q151 0 241.5 -30.5t90.5 -150.5q0 -95 -68 -139.5t-170 -44.5h-1487q-102 0 -169.5 44.5t-67.5 139.5q0 120 90.5 150.5t240.5 30.5zM389 1241h1393q151 0 241.5 -31t90.5 -149q0 -121 -90.5 -152.5t-241.5 -31.5h-1299q-150 0 -240.5 31.5t-90.5 152.5
q0 94 67.5 137t169.5 43z" />
    <glyph glyph-name="greater" unicode="&#x3e;" 
d="M139 299v475l1270 615l-1270 618v471l1774 -889v-401z" />
    <glyph glyph-name="question" unicode="?" horiz-adv-x="1876" 
d="M893 410q104 0 181 -51t77 -146q0 -107 -75 -168t-183 -61t-183 61t-75 168q0 95 77 146t181 51zM1159 983q-12 -37 -12 -65q0 -15 43 -99t43 -139q0 -70 -90 -70h-402q-65 0 -108 30t-43 81q0 112 62.5 249.5t150.5 246.5l201 245q274 315 274 578q0 197 -103.5 350.5
t-293.5 153.5q-135 0 -227.5 -104t-92.5 -240q0 -80 47 -151t121 -71q35 0 54.5 20t44 60t50.5 62t68 22q70 0 131 -61q-57 -26 -57 -66q0 -6 8 -57t8 -86q0 -80 -52.5 -140.5t-132 -93t-155.5 -32.5q-130 0 -253.5 61.5t-201 173.5t-77.5 256q0 281 197.5 458t551.5 177
q239 0 433.5 -77t308.5 -229t114 -362q0 -270 -172 -467q-111 -126 -277 -229.5t-287.5 -183.5t-188.5 -193q-62 -120 -62 -196q12 -29 49 -29h115q62 0 62 16q0 23 -20.5 62t-20.5 57q0 42 31.5 68t78.5 26q10 0 45 -6t37 -6z" />
    <glyph glyph-name="at" unicode="@" horiz-adv-x="3002" 
d="M1974 680q-74 -29 -127 -29q-57 0 -176 20.5t-168 20.5q-21 0 -149 -14t-158 -14q-177 0 -295.5 85.5t-118.5 241.5q0 182 145 321t335 212l135 53q159 45 159 94q0 25 -24 25q-9 0 -121.5 -20.5t-157.5 -20.5q-99 0 -180.5 43.5t-81.5 124.5q0 229 373 229q28 -1 84 -2
q55 -2 100 -2q80 0 182 4t166 4q118 0 215 -49.5t97 -187.5q0 -54 -4 -82l-111 -639q-20 -90 -20 -164q0 -115 122 -115q143 0 243 126t148 301t48 315q0 300 -143 524.5t-388.5 343.5t-541.5 119q-316 0 -587.5 -159.5t-430 -431t-158.5 -589.5q0 -337 157.5 -601
t433.5 -409t613 -145q342 0 606 66q100 24 152 28q48 0 83.5 -29t35.5 -77q-8 -131 -303 -170t-574 -39q-301 0 -567.5 97t-468 281t-312 439t-110.5 559q0 286 111 539t311 446t457 298.5t542 105.5q362 0 663.5 -149t476.5 -425.5t175 -642.5q0 -213 -89.5 -433
t-241.5 -362.5t-328 -142.5q-95 0 -234 78zM1778 1085l106 619q0 141 -64 191.5t-190 50.5q-303 0 -303 -111q0 -70 103 -70q48 0 153 16.5t137 16.5q103 0 103 -65q0 -76 -140 -136l-135 -65q-319 -151 -319 -348q0 -77 70 -124.5t159 -47.5q66 0 115 16l82 29
q31 10 123 28z" />
    <glyph glyph-name="A" unicode="A" horiz-adv-x="2626" 
d="M672 2105q-112 65 -279.5 199t-167.5 256q0 91 90.5 131.5t192.5 40.5h1610q121 0 220 -54.5t99 -170.5q0 -154 -118 -264.5t-316 -227.5l-1090 -635q-200 -116 -302.5 -246t-102.5 -339q0 -78 35.5 -139.5t103.5 -61.5q31 0 63 14.5t60 14.5q-8 -37 -8 -238
q0 -164 -78.5 -278.5t-228.5 -114.5q-161 0 -250.5 135t-89.5 303q0 201 151 623q108 284 234 549q42 88 125 260.5t165 343t107 223.5q29 60 29 78q0 40 -31.5 50.5t-120.5 10.5q-156 0 -156 -65q0 -41 13 -71.5t35 -55.5t47 -44.5t53 -41.5zM1921 1909l201 -926
q98 -433 143 -549q35 -82 176 -160q26 -16 72.5 -44.5t81 -58t35.5 -52.5q0 -44 -106.5 -79.5t-160.5 -35.5q-20 0 -135.5 16.5t-159.5 16.5q-39 0 -168.5 -14t-142.5 -15q-76 0 -174.5 24t-103.5 74q0 65 114 127l103 58q69 39 69 123q-2 21 -8 53.5t-8 48.5l-238 1159z
M672 1438q56 33 198 117t280 165.5t282.5 167t201.5 119.5q161 93 271 190t110 220q0 57 -31.5 94t-78.5 37q-73 0 -82 -86l32 -230q-177 -149 -413 -274l-78 303q-20 85 -52.5 136.5t-103.5 51.5q-75 0 -129 -95t-112 -232z" />
    <glyph glyph-name="B" unicode="B" horiz-adv-x="2642" 
d="M1823 1782q283 -146 426 -320q112 -138 170.5 -318.5t58.5 -369.5q0 -222 -78.5 -403.5t-243.5 -290.5t-407 -109q-66 0 -202.5 15.5t-204.5 22.5t-183 7q-40 0 -285 -16t-292 -16q-159 0 -299 53q-119 43 -119 82q0 47 122 124.5t206 112.5q57 24 69 51t12 97v1515
q410 -193 488 -225v-1016q3 -133 48 -196.5t173 -69.5l135 -4q280 0 389 123q99 119 99 315q0 279 -172 500q-104 134 -324 229l-635 291q-252 117 -455 221q-319 168 -319 316q0 122 121 173.5t264 51.5h1430q184 0 333.5 -66.5t149.5 -228.5q0 -372 -475 -651zM1683 1819
q185 198 185 397q0 190 -114 252.5t-324 62.5h-123q-116 0 -181 -24q-65 -29 -65 -168v-275q-216 90 -488 226v57q0 139 -94 139q-29 0 -49 -20t-20 -49q0 -51 48 -99t121 -88.5t148 -73t129 -55.5q313 -135 672 -237z" />
    <glyph glyph-name="C" unicode="C" horiz-adv-x="2392" 
d="M2187 872q176 -63 176 -241q0 -319 -243 -489.5t-633 -170.5q-336 0 -638 133.5t-493.5 425.5t-191.5 732q0 277 72.5 542.5t223.5 482t386 343.5t543 127q194 0 388.5 -68t320.5 -208.5t126 -342.5q0 -211 -142.5 -361.5t-340.5 -150.5q-181 0 -318 98.5t-174 270.5
l-28 119q-19 77 -74 77q-37 0 -37 -24q0 -49 16 -86q-47 -37 -110 -37q-56 0 -95.5 49t-39.5 111q0 67 62.5 119.5t133.5 52.5q141 0 246 -111l57 -57q82 -90 156 -90t135.5 54t61.5 126q0 96 -63.5 163.5t-158 99.5t-188.5 32q-208 0 -394.5 -115.5t-299.5 -335
t-113 -508.5q0 -223 71.5 -429t206 -364t321 -247.5t409.5 -89.5q412 0 594 217q38 47 69 151z" />
    <glyph glyph-name="D" unicode="D" horiz-adv-x="2601" 
d="M1053 1479q4 0 14 -2t14 -2q62 0 62 151q0 69 -26 117t-71.5 84.5t-112 70.5t-102.5 52l-401 209q-151 77 -282.5 183.5t-131.5 213.5q0 95 79.5 139.5t174.5 44.5q55 0 251 -6t319 -6q93 0 241 6t164 6q193 0 381.5 -64.5t335.5 -181.5q164 -131 275 -333t164 -432.5
t53 -454.5q0 -331 -103.5 -613.5t-339.5 -455.5q-289 -213 -692 -213q-5 0 -175 14t-255 14q-37 0 -194 -8t-183 -8q-168 0 -299 57q-22 11 -57 27.5t-62.5 36.5t-27.5 39q0 80 413 385q70 46 92.5 97.5t22.5 144.5v1224l459 -237v-299zM1053 1352v-238q0 -160 69 -209
q54 -30 54 -69t-74 -66q-64 -26 -156.5 -88.5t-146.5 -116.5q196 -24 393 -24q246 0 423 76t286 268q147 255 147 676q0 231 -78.5 440t-236.5 354q-94 92 -221.5 148.5t-258.5 56.5q-102 0 -200 -41v-446l-459 229v111q0 47 -27.5 84.5t-74.5 37.5q-74 0 -74 -102
q8 -74 58 -113.5t163 -99.5l549 -270q303 -148 303 -332q0 -266 -438 -266z" />
    <glyph glyph-name="E" unicode="E" horiz-adv-x="2404" 
d="M2154 688q226 -119 226 -319t-132 -299t-360 -99q-27 0 -349 13q-322 12 -466 12q-165 0 -369 -10l-196 -11v0q-94 0 -258 47t-164 121q0 39 70 78l213 139q67 41 84.5 111.5t17.5 220.5v1295v114q0 132 -29 193q-26 57 -118 102q-234 130 -234 189q5 83 162 113t289 30
h1302q414 0 414 -139q0 -100 -173.5 -230.5t-334.5 -216.5l-430 -237q-189 -107 -189 -148q0 -28 41 -28q17 0 33 4q249 94 369 94q136 0 250 -71.5t114 -194.5q0 -163 -159 -213v32q0 62 -70 62q-81 0 -160 -25l-196 -53q-105 -29 -181 -29q-111 0 -211 70.5t-100 179.5
q0 146 176 283l471 373q37 27 71.5 52t57.5 57t23 75q0 67 -73.5 82.5t-254.5 15.5h-135q-153 0 -188 -49q-45 -58 -45 -258v-131v-209q-156 -140 -156 -270q0 -143 156 -263v-323q0 -303 45 -377q110 -156 557 -156h164q206 0 315 50q81 35 110 151z" />
    <glyph glyph-name="F" unicode="F" horiz-adv-x="2314" 
d="M1806 1372q-63 98 -164 98q-62 0 -107.5 -17.5t-126.5 -57t-139 -58t-134 -18.5q-121 0 -226.5 76.5t-105.5 189.5q0 80 35 147.5t89 122.5t127.5 110.5t121.5 90.5l348 271q90 61 90 127q-6 66 -78 84t-279 18h-102q-141 0 -184 -29q-37 -28 -37 -123v-471
q-189 -174 -189 -331q0 -187 189 -291v-783q0 -82 20 -122q11 -23 29.5 -38.5t47 -33t46.5 -27.5q41 -22 95.5 -51.5t96.5 -64.5t42 -68q0 -64 -110.5 -93.5t-192.5 -29.5q-31 0 -164 8t-156 8q-42 0 -175 -12t-165 -12q-62 0 -154 31t-92 79q0 63 189 181q98 60 120.5 95.5
t22.5 145.5v1639q0 89 -7 125t-35 63.5t-97 65.5q-201 115 -201 188q0 68 166.5 97.5t288.5 29.5h1233q409 0 409 -152q0 -74 -45 -121.5t-196 -148.5q-136 -90 -341 -205t-306 -168q-226 -117 -226 -184q0 -20 37 -20q5 0 85 32t162.5 55t162.5 23q139 0 239.5 -84.5
t100.5 -218.5q0 -93 -58 -168z" />
    <glyph glyph-name="G" unicode="G" horiz-adv-x="2601" 
d="M2265 1188v-639q0 -90 15 -146t63 -112l106 -123q12 -11 21 -37q0 -37 -74 -70q-221 -81 -373 -81q-25 0 -186 12t-178 12q-29 0 -219.5 -16.5t-227.5 -16.5q-159 0 -338.5 71.5t-343.5 231t-265 414t-101 606.5q0 446 113.5 736t318 448t476 218.5t632.5 60.5
q561 0 561 -222q0 -104 -77 -164t-214 -126l-241 -119q-181 -90 -451 -262q-123 -79 -123 -123q0 -52 18.5 -84t18.5 -72q0 -72 -53 -128t-131 -56q-87 0 -148 65t-61 152q0 129 188 250l512 315q28 17 64 38.5t70.5 48.5t60.5 61.5t26 68.5q0 127 -245 127
q-304 0 -513.5 -104t-313 -303.5t-103.5 -485.5q0 -322 87.5 -570t260.5 -385.5t418 -137.5q356 0 418 65q45 58 45 422q0 201 -17 299q-10 47 -65 94l-103 74q-77 67 -77 94q0 41 67 59.5t117 18.5q31 0 149 -14.5t187 -14.5q48 0 156.5 14.5t166.5 14.5q45 0 102.5 -14.5
t57.5 -46.5q0 -37 -86 -111l-90 -74q-78 -64 -78 -233z" />
    <glyph glyph-name="H" unicode="H" horiz-adv-x="2540" 
d="M2224 -668q-19 58 -70 58q-3 0 -74.5 -12.5t-137.5 -12.5q-125 0 -202 89t-77 214q0 144 49 303l66 197q127 381 127 745q0 388 -172 627q-106 148 -282 235t-423 162l-479 152q-179 58 -349.5 190t-170.5 289q0 160 295 160h1654q230 0 230 -164q0 -65 -45 -119
t-45 -102q0 -37 49 -62q-61 -24 -103 -24q-140 0 -254 151q-69 103 -184 103h-364q-122 0 -165.5 -21.5t-43.5 -93.5v-213q-255 44 -488 127v82q0 111 -69 111q-33 0 -59.5 -22.5t-26.5 -55.5q0 -81 103.5 -140.5t249.5 -96.5t286.5 -58t199.5 -29l275 -37q417 -51 635 -254
q119 -106 182 -263t63 -326q0 -450 -221 -852l-123 -226q-139 -244 -139 -376q0 -50 24 -86.5t70 -36.5q17 0 66 12t61 12q57 0 114.5 -46t57.5 -118q0 -58 -53 -122q-17 -23 -24 -32t-13 -18zM1053 1880v-1393q0 -102 49 -131q70 -36 186.5 -118t116.5 -123
q0 -54 -111 -86.5t-180 -32.5q-25 0 -143 8t-144 8q-23 0 -132 -10t-130 -10q-75 0 -203.5 39t-128.5 100q0 45 185 164l98 53q49 25 49 82v1610z" />
    <glyph glyph-name="I" unicode="I" horiz-adv-x="1962" 
d="M238 2114q9 0 21.5 -2.5t19.5 -2.5q20 0 36.5 19.5t16.5 42.5q0 32 -37.5 67t-123 103t-128.5 118t-43 101q0 117 217 168q135 29 483 29q608 0 873.5 -37.5t265.5 -143.5q0 -78 -128.5 -148.5t-180 -113t-51.5 -184.5v-1323q0 -168 77 -189l50 -12q57 -14 57 -123
q0 -214 -180 -356q-198 -156 -680 -156q-283 0 -537 90.5t-254 323.5q0 157 57 226.5t158 141t101 128.5q0 19 -13 45q17 4 50 4q58 -3 92.5 -49t34.5 -107l-9 -61q0 -213 226 -213q112 0 174.5 21t91.5 78.5t29 166.5v1114q0 147 -36 196t-96.5 83.5t-60.5 81.5q0 42 70 61
l258 70q237 63 237 127q0 39 -74.5 50t-224.5 11h-172q-206 0 -305.5 -10.5t-99.5 -55.5q0 -27 17 -50.5t65 -81.5t71 -97.5t23 -81.5q0 -95 -67 -160t-158 -65q-160 0 -213 156z" />
    <glyph glyph-name="J" unicode="J" horiz-adv-x="1962" 
d="M238 2114q9 0 21.5 -2.5t19.5 -2.5q20 0 36.5 19.5t16.5 42.5q0 32 -37.5 67t-123 103t-128.5 118t-43 101q0 117 217 168q135 29 483 29q608 0 873.5 -37.5t265.5 -143.5q0 -78 -128.5 -148.5t-180 -113t-51.5 -184.5v-1815q0 -168 77 -188l50 -12q57 -15 57 -123
q0 -213 -180 -357q-196 -155 -680 -155q-286 0 -538.5 90t-252.5 324q0 156 57 226t158 141.5t101 127.5q0 19 -13 45q17 4 50 4q58 -3 92.5 -49t34.5 -106l-9 -62q0 -213 226 -213q112 0 174.5 21t91.5 78.5t29 166.5v1606q0 147 -36 196t-96.5 83.5t-60.5 81.5q0 42 70 61
l258 70q237 63 237 127q0 39 -74.5 50t-224.5 11h-172q-206 0 -305.5 -10.5t-99.5 -55.5q0 -27 17 -50.5t65 -81.5t71 -97.5t23 -81.5q0 -95 -67 -160t-158 -65q-160 0 -213 156z" />
    <glyph glyph-name="K" unicode="K" horiz-adv-x="2630" 
d="M1450 1819q182 -10 301.5 -112.5t177.5 -227.5t90 -250l74 -295q27 -116 90 -320q29 -105 49.5 -148.5t55 -71.5t133.5 -83q254 -133 254 -200q0 -58 -102 -84.5t-181 -26.5q-30 0 -150.5 16.5t-148.5 16.5q-24 0 -130 -16.5t-140 -16.5q-127 0 -144 156l-32 221
q-88 567 -213 868q-85 215 -188.5 331.5t-299.5 192.5l-123 54q-426 166 -659 422q-164 171 -164 303q0 115 125 149.5t346 34.5h516q90 0 215 -29t125 -90q0 -39 -32 -68t-108.5 -75.5t-119 -78.5t-68.5 -81q-28 -57 -28 -156v-167q-155 62 -262 118q-74 41 -238 152v98
q0 115 -65 115q-78 0 -78 -78q0 -89 65 -147.5t185 -126.5q237 -130 421 -193q69 -24 246 -49q463 272 463 524q0 34 -14.5 115.5t-14.5 134.5q0 82 205 82h303q231 0 246 -57q0 -41 -29 -63.5t-86 -55.5l-73 -37q-72 -36 -144 -115l-86 -98q-231 -265 -565 -487zM971 1708
v-1225q0 -56 49.5 -100t145.5 -98.5t143 -88.5t47 -73q0 -64 -102.5 -93.5t-184.5 -29.5q-24 0 -149.5 12.5t-161.5 12.5q-72 0 -188.5 -16.5t-135.5 -16.5q-76 0 -183.5 37.5t-107.5 97.5q0 40 39 70t120.5 74.5t125 86t43.5 101.5v1487q231 -137 500 -238z" />
    <glyph glyph-name="L" unicode="L" horiz-adv-x="2298" 
d="M1700 1499q11 -11 82.5 -47t115.5 -77.5t44 -104.5q0 -43 -23 -108t-23 -72q0 -29 29 -99l115 -250q85 -184 184 -340q57 -93 57 -139q0 -139 -189.5 -200.5t-362.5 -61.5q-67 0 -306 30.5t-370 30.5q-60 0 -119 -8.5t-167 -27.5t-157 -26t-114 -7q-127 0 -298.5 51
t-185.5 141q0 62 73 144.5t140 130.5l99 78q144 109 180 180q41 74 41 258v1438q0 34 -36 61t-102.5 62t-99.5 61.5t-33 64.5q0 31 28.5 50.5t62.5 19.5h811q30 0 55.5 -14.5t25.5 -46.5q0 -40 -28.5 -67t-87 -64t-86 -65t-27.5 -71v-1421q0 -75 25 -98t78 -49t53 -62
q0 -42 -28 -67t-112.5 -57t-93.5 -36q-336 -138 -501.5 -219.5t-165.5 -148.5q0 -45 127 -45q223 0 503 127q282 128 463 184q255 82 373 82q28 0 80 -8t55 -8q33 0 33 24q0 47 -119 213t-166 243t-47 167q0 50 23.5 88t59.5 80t36 57q0 33 -4 49z" />
    <glyph glyph-name="M" unicode="M" horiz-adv-x="3817" 
d="M2015 1794v-1352q0 -42 38.5 -85t113.5 -100t113 -92.5t38 -66.5q0 -48 -82.5 -75t-142.5 -27q-30 0 -155 18.5t-152 18.5q-73 0 -195 -18.5t-153 -18.5q-57 0 -141.5 32t-84.5 78q0 38 33 67.5t115 86t123 104t41 111.5v1335q164 -16 245 -16h246zM2626 1892
q-123 -24 -266.5 -36t-271.5 -14q-128 -3 -319 -3q-424 0 -921 143l70 136q190 -61 428 -94t419 -33h246q363 0 565 45zM3142 2208q192 83 192 209q0 77 -168 77q-151 0 -151 -77q0 -13 38 -122.5t44 -135.5l131 -512q43 -177 94 -562q45 -345 45 -553v-143q0 -225 -37 -303
q-47 -94 -168 -94q-13 0 -99 14t-106 14q-13 0 -132 -14t-167 -14q-58 0 -145.5 31t-87.5 79q0 52 258 222q35 22 63 41t44 35t30.5 43t22.5 69q16 98 16 295q0 462 -152 995q-52 184 -102.5 316.5t-150 250t-242.5 117.5q-197 0 -197 -360v-90q-245 0 -491 12v66
q0 380 -258 380q-206 0 -365 -290q-157 -297 -246 -631q-90 -369 -90 -619q0 -237 66 -413q27 -74 67 -115.5t125 -97.5l217 -152q62 -47 62 -74q0 -55 -88.5 -82.5t-157.5 -27.5q-49 0 -132 12t-97 12q-15 0 -87 -8t-106 -8q-115 0 -155 111q-41 122 -41 397
q0 905 483 1864q2 5 19.5 39.5t17.5 46.5q0 41 -127 41q-156 0 -156 -86q0 -51 28.5 -77t106.5 -79l-82 -172q-223 101 -353 192.5t-130 233.5q0 125 115 177t258 52l520 -12q205 -4 905 -4q656 0 983 4q95 2 283 7t282 5q113 0 208.5 -48t95.5 -144q0 -118 -77 -218
t-185.5 -170.5t-237.5 -131.5z" />
    <glyph glyph-name="N" unicode="N" horiz-adv-x="2892" 
d="M1016 1839l-500 307v230q0 98 -61 98q-52 0 -79.5 -44t-27.5 -95q0 -135 131 -217l1008 -623q233 -143 233 -315q0 -89 -71.5 -147t-161.5 -58q-127 7 -205 98l-25 33q-20 26 -61 41q21 14 45 20l70 13q41 7 41 61q0 42 -31.5 70t-79.5 57l-868 533q-373 222 -373 507
q0 100 65 181.5t165 126.5t200 45q141 0 381 -17q147 -12 287 -12h585q250 0 447 -51.5t336 -194.5q188 -194 188 -508q0 -284 -106 -495q-78 -159 -143.5 -253t-146.5 -198.5t-110.5 -167t-29.5 -147.5q0 -49 35 -90t83 -41q38 0 149 26.5t179 26.5q82 0 151.5 -45
t108.5 -118t39 -157q0 -139 -90 -262q-10 -12 -45 -65q-9 106 -78 106q-15 0 -65 -20q-188 -82 -328 -82q-122 0 -220 56t-154 154t-56 220q0 104 24 209l99 471q49 224 75.5 385.5t26.5 323.5q0 374 -262 561q-111 74 -251 92t-347 18q-119 0 -176 -4v-643zM1016 1458
v-1024q0 -37 41 -65.5t136 -79.5t143 -88.5t48 -81.5q0 -56 -118.5 -89.5t-192.5 -33.5q-25 0 -144 14.5t-151 14.5q-28 0 -150.5 -16.5t-140.5 -16.5q-73 0 -196 34.5t-123 88.5q0 41 46 77.5t136 87.5t130 80t40 58v1339q141 -84 277.5 -167t218.5 -132z" />
    <glyph glyph-name="O" unicode="O" horiz-adv-x="2527" 
d="M2363 1393q0 -577 -196 -955q-66 -126 -156 -225t-206.5 -160t-248.5 -61q-51 0 -146.5 18.5t-115.5 18.5q-31 0 -147 -18.5t-139 -18.5q-189 0 -347.5 121t-267.5 305q-229 385 -229 860q0 587 225 987q129 234 370.5 363t518.5 129q350 0 596.5 -196t367.5 -509.5
t121 -658.5zM635 983q23 250 130.5 426.5t324.5 294.5l200 111q182 96 281.5 195t99.5 259q0 145 -125.5 220t-296.5 75q-277 0 -436 -162t-217.5 -388t-58.5 -453q0 -306 98 -578zM1823 2183q-14 -184 -107 -287q-115 -130 -348 -249l-188 -103q-170 -92 -277.5 -250
t-107.5 -352q8 -196 151 -282.5t357 -86.5q376 0 544 345q76 150 99.5 284t23.5 285q0 395 -147 696z" />
    <glyph glyph-name="P" unicode="P" horiz-adv-x="2503" 
d="M1085 1810q71 25 115 25q82 0 145 -54t72 -134l4 -70q7 -54 52.5 -84.5t103.5 -30.5q157 0 246.5 124.5t89.5 285.5q0 350 -238 536q-184 148 -446 148q-164 0 -225 -49q-29 -29 -29 -123v-680q-107 -131 -107 -242q0 -175 107 -286v-693q0 -52 47.5 -98.5t146.5 -111
t136.5 -93.5t37.5 -61q0 -63 -99.5 -95t-166.5 -32q-22 0 -154 14t-157 14q-80 0 -187 -14t-112 -14q-106 0 -213 36t-107 95q0 34 47.5 71.5t133.5 87.5t133 85.5t47 66.5l-4 1823q0 69 -12.5 95.5t-69.5 60.5q-262 150 -262 213q13 131 676 131h98q502 0 840 -91
q195 -54 343.5 -194t230 -333.5t81.5 -393.5q0 -248 -99.5 -428.5t-284.5 -275.5t-427 -95q-148 0 -307.5 55.5t-268 166.5t-108.5 266q0 151 94 233l37 33q37 30 37 74q0 13 -17 36z" />
    <glyph glyph-name="Q" unicode="Q" horiz-adv-x="2527" 
d="M1389 -61q-13 -19 -13 -41q0 -78 94 -78q27 0 66 6t45 6q98 0 172 -62.5t74 -150.5q0 -101 -78 -192q-16 65 -78 65q-11 0 -144 -30.5t-237 -30.5q-86 0 -151.5 55t-65.5 137q0 43 57.5 150t57.5 174q58 8 90 8q37 0 111 -16zM2363 1393q0 -577 -196 -955
q-66 -126 -156 -225t-206.5 -160t-248.5 -61q-51 0 -146.5 18.5t-115.5 18.5q-31 0 -147 -18.5t-139 -18.5q-189 0 -347.5 121t-267.5 305q-229 385 -229 860q0 587 225 987q129 234 370.5 363t518.5 129q350 0 596.5 -196t367.5 -509.5t121 -658.5zM635 983
q23 250 130.5 426.5t324.5 294.5l200 111q182 96 281.5 195t99.5 259q0 145 -125.5 220t-296.5 75q-277 0 -436 -162t-217.5 -388t-58.5 -453q0 -306 98 -578zM1823 2183q-14 -184 -107 -287q-115 -130 -348 -249l-188 -103q-170 -92 -277.5 -250t-107.5 -352
q8 -196 151 -282.5t357 -86.5q376 0 544 345q76 150 99.5 284t23.5 285q0 395 -147 696z" />
    <glyph glyph-name="R" unicode="R" horiz-adv-x="2761" 
d="M1663 1855l102 -57q32 -15 122 -52.5t149 -62.5q81 -32 137 -104t68 -154q19 -104 56.5 -310t78 -428.5t41.5 -231.5q14 -95 73 -119l103 -49q52 -21 132.5 -80t80.5 -96q0 -52 -92.5 -85.5t-153.5 -33.5q-17 0 -124 10t-134 10q-32 0 -143 -10t-123 -10q-119 0 -127 147
l-8 135q-56 820 -287 1168q-82 122 -187 184t-366 193l-311 155l-308 168q-230 131 -352 238q-90 75 -90 168q0 180 324 180h1495q193 0 348 -55t155 -215q0 -192 -207 -346.5t-452 -256.5zM995 1806v-1228q0 -130 22.5 -177t125.5 -106q57 -28 126.5 -83t69.5 -97
q0 -62 -97 -92.5t-173 -30.5q-51 0 -164 16.5t-143 16.5q-32 0 -137.5 -14.5t-161.5 -14.5q-83 0 -203.5 31.5t-120.5 95.5q0 24 22.5 49t57.5 48.5t75 44t58 30.5q96 51 134 96t38 137v1516q224 -132 471 -238zM995 2093q-236 106 -471 258v53q0 111 -98 111
q-30 0 -58 -17.5t-28 -48.5q0 -52 157 -151.5t298 -171.5q364 -197 598 -197q207 0 381 197q110 125 110 237q0 107 -130.5 139.5t-356.5 32.5q-193 0 -283 -24q-80 -22 -99.5 -69.5t-19.5 -143.5v-205z" />
    <glyph glyph-name="S" unicode="S" horiz-adv-x="2294" 
d="M1757 2105q-60 -12 -106 -12q-63 0 -111.5 55.5t-48.5 120.5q0 54 35 103t35 73q0 95 -283 95h-459q-233 0 -233 -99q0 -114 311 -254l369 -172q275 -129 469.5 -273.5t315 -364.5t120.5 -529q0 -227 -98 -423.5t-285.5 -314.5t-439.5 -118q-17 0 -130 10t-128 10
q-36 0 -155 -8t-132 -8q-185 0 -357 98q-153 93 -244 258.5t-91 343.5q0 180 69.5 342.5t207.5 264.5t329 102q313 0 512 -242q59 -69 110 -69q16 0 58 16q-15 -129 -60.5 -208t-160.5 -79q-57 0 -103 15.5t-100.5 45t-98.5 46t-96 16.5t-93.5 -49t-41.5 -106
q0 -275 438 -275q295 0 444.5 127.5t149.5 372.5q0 186 -107 325t-253 228.5t-369 195.5l-336 164q-438 207 -438 516q0 154 116 218.5t281 68.5h1082q393 0 393 -168q0 -124 -115 -188l-143 -82q-86 -44 -86 -99q0 -9 28 -48t29 -42z" />
    <glyph glyph-name="T" unicode="T" horiz-adv-x="2712" 
d="M1569 2392v-1872q0 -110 114 -184l168 -107q91 -55 99 -102q0 -68 -125.5 -101.5t-214.5 -33.5q-56 0 -154 14t-117 14q-16 0 -134 -12t-177 -12q-80 0 -191.5 32.5t-111.5 98.5q5 42 66 78l172 114q66 40 94 77.5t28 107.5v1904q0 70 -25 94.5t-97 24.5h-250
q-111 0 -111 -53q0 -20 16 -78l107 -233q66 -140 66 -246q0 -70 -48.5 -131.5t-128.5 -61.5q-52 0 -95.5 41t-43.5 95q0 62 53.5 106.5t53.5 61.5q0 45 -66 90l-323 254q-53 38 -117 108.5t-64 116.5q0 79 114.5 107t233.5 28h1926q303 0 303 -123q0 -84 -127 -221
l-279 -303q-33 -43 -33 -62q0 -24 49.5 -66.5t49.5 -101.5q0 -50 -44 -86t-104 -36q-72 0 -122 53.5t-50 126.5q0 63 41 188l94 279q9 20 9 57q0 90 -127 90l-283 4q-63 0 -78.5 -30.5t-15.5 -108.5z" />
    <glyph glyph-name="U" unicode="U" horiz-adv-x="2638" 
d="M1761 1335v914q0 75 -16.5 105.5t-77.5 74.5l-172 123q-61 49 -61 78q5 48 113.5 77t176.5 29q15 0 111 -4t135 -4q21 0 121 6t121 6q79 0 209.5 -32t130.5 -87q0 -37 -66 -73l-151 -94q-107 -65 -107 -197v-1679q0 -86 16 -128t78 -85l201 -132q82 -52 82 -94
q0 -45 -102 -86q-143 -41 -336 -41q-25 0 -167.5 12.5t-172.5 12.5q-12 0 -245 -22.5t-361 -22.5q-456 0 -721 282q-267 272 -267 742q0 288 119.5 571.5t323.5 521.5l115 136q90 101 90 184q0 78 -115 78h-143q-86 0 -86 -53q0 -22 12 -40t39 -39.5t30 -23.5l123 -98
l-123 -135l-167 114q-45 32 -105 75t-117.5 93.5t-94 103t-36.5 101.5q0 127 234 127h704q205 0 213 -90q0 -129 -110 -270l-135 -177q-357 -468 -357 -880q0 -219 84.5 -398t242.5 -282t369 -103q202 0 324 66q90 57 90 213q0 214 -126 439t-324 412t-410 300l102 147
q287 -185 454 -346t308 -428z" />
    <glyph glyph-name="V" unicode="V" horiz-adv-x="2613" 
d="M381 2322q-25 17 -78 17q-119 0 -225.5 59t-106.5 170q0 54 44 89.5t104 45.5q192 37 586 37q712 0 712 -94q0 -80 -147 -147l-439 -226q-53 -26 -53 -45q0 -7 13 -49l643 -1446q44 -98 106 -98q58 0 110.5 55.5t97.5 139.5t71 133q124 239 195 500.5t71 514.5
q0 144 -75 258.5t-212 114.5q-59 0 -164 -33l-684 -180q-10 0 -22 -4t-23 -4q-18 0 -37.5 12.5t-19.5 28.5q0 50 70 78l204 61q287 94 668 266l201 86q155 70 270 70q132 0 215.5 -71.5t83.5 -202.5q0 -270 -165 -699.5t-393.5 -853t-416.5 -692.5l-131 -188
q-68 -99 -143 -99q-64 0 -94 78l-902 1974q-42 87 -86 107l-36 16q-58 26 -58 62q0 54 62 69l65 13q120 31 184 53l271 94q254 99 254 156q0 28 -107 28l-360 -8q-172 0 -172 -106q0 -40 33 -78q16 -28 16 -62z" />
    <glyph glyph-name="W" unicode="W" horiz-adv-x="3502" 
d="M2527 741q76 111 103 164q82 161 130 340t99 438q82 446 94 869h-344q-47 0 -61 -33q-47 -115 -140 -115q-14 0 -35.5 6.5t-33.5 6.5q-3 0 -14 -2t-15 -2q21 21 21 41q0 13 -39 54t-39 72q0 96 70 122t180 26h708q128 0 230 -41t102 -147q0 -134 -156 -246
q-51 -39 -163 -78l12 168q115 47 115 123q0 53 -78 53h-74q-18 -505 -131 -1020q-97 -456 -283 -958q-62 -174 -155 -369l-62 -123q-42 -98 -98 -98q-5 0 -36 12t-38 12q-5 0 -36 -12t-38 -12q-45 7 -90 106q-282 640 -430 1094l-33 106q-165 -457 -270 -671l-254 -529
q-49 -114 -102 -114q-7 0 -36 16t-34 16q-8 0 -42 -16t-40 -16q-21 0 -34.5 17.5t-23.5 43t-20 49.5l-61 135q-77 180 -201 627q-236 893 -254 1700h-94q-31 0 -60.5 -14.5t-29.5 -42.5q0 -36 52 -65.5t87 -41.5l17 -168q-148 50 -238 123q-143 117 -143 233q0 148 319 148
h844q180 0 233 -74q33 -38 33 -102q0 -16 -4.5 -34.5t-7.5 -27.5q0 -13 25 -69q-26 8 -41 8q-5 0 -38 -8t-61 -8q-103 0 -143 102q-19 37 -70 37h-172q0 -24 -2 -73t-2 -75q0 -448 148 -1171q53 -264 127 -406q20 -40 33 -64t24 -50q189 204 290.5 542t118.5 678
q-405 16 -671 86l-13 172q397 -98 959 -98q590 0 975 143l-17 -184q-207 -76 -667 -127l-62 -4l13 -78q34 -192 59.5 -313t70 -265.5t103.5 -276t135 -247.5z" />
    <glyph glyph-name="X" unicode="X" horiz-adv-x="2589" 
d="M1458 1475l615 -869q70 -98 116 -145.5t80.5 -69t57.5 -35.5q290 -163 290 -229q0 -65 -99.5 -98t-178.5 -33q-25 0 -165.5 20.5t-178.5 20.5q-61 0 -194.5 -18.5t-158.5 -18.5q-71 0 -189 36t-118 95q0 34 90 98l95 62q53 40 53 78q0 96 -303 553l-160 237
q-172 -166 -360.5 -377t-196.5 -290q0 -51 35.5 -79t111.5 -69q72 -27 198 -102t126 -123q0 -60 -159.5 -93.5t-254.5 -33.5q-26 0 -133 10t-125 10q-21 0 -71 -4t-68 -4q-90 0 -151.5 46t-61.5 138q0 83 43 154t125 166q147 157 389 369l471 409l-573 803q-49 73 -119 94
q-82 30 -82 74q0 49 70 57l151 17q112 7 306 50t194 101q0 33 -176 33q-30 0 -127 6t-131 6q-193 0 -193 -102q0 -11 12 -62q-33 23 -73 29l-54 8q-74 14 -131 52t-57 104q0 168 320 168q81 0 198 -4t191 -4q166 0 274 4t127 4q291 0 291 -94q0 -126 -467 -340
q-49 -30 -49 -58q0 -8 5 -15t14.5 -19t13.5 -19l417 -594l365 336q124 111 213 229q37 52 37 119q0 60 -39.5 91.5t-95.5 31.5q-67 0 -254 -61l-369 -136q-105 -28 -143 -28q-22 0 -44 11.5t-22 29.5q0 40 62 57l159 62q82 30 267 114l487 225q156 74 291 74q168 0 168 -127
q0 -120 -74.5 -223.5t-216.5 -255.5q-143 -156 -463 -442z" />
    <glyph glyph-name="Y" unicode="Y" horiz-adv-x="2707" 
d="M1716 1331v-815q0 -47 10 -75.5t28.5 -46.5t53 -37t76.5 -42q49 -27 72 -39.5t62.5 -38.5t67.5 -54.5t28 -51.5q0 -59 -115 -95t-189 -36q-22 0 -138 14.5t-152 14.5q-29 0 -146.5 -17.5t-144.5 -19.5q-103 0 -238 57q-48 21 -71 34.5t-23 39.5q0 42 107.5 114t179.5 111
q73 56 73 205v565l-745 967q-23 32 -53.5 47t-73 27.5t-58.5 24t-16 36.5q0 50 49 66l488 176q9 4 50.5 17.5t73.5 30t32 30.5q0 24 -107 24l-344 -8q-181 -10 -217 -82v-57l16 -29q3 -6 6.5 -15t6.5 -18q-30 12 -127 21q-99 7 -183 61t-84 143q0 152 262 152h918
q328 0 328 -86q0 -44 -38.5 -69t-121.5 -62l-266 -115q-70 -25 -70 -78q0 -30 24 -73t59.5 -89t55.5 -71l496 -627q573 508 573 836q0 62 -33 109t-94 47q-40 0 -201 -36t-196 -42q-89 -18 -237 -52t-218 -51q-8 -1 -22 -4t-28.5 -5.5t-22.5 -2.5q-70 0 -70 49
q0 26 37.5 39.5t118.5 34.5q219 63 651 221l127 49q227 86 360 86q96 0 177 -44.5t81 -131.5q0 -227 -323 -631q-210 -259 -582 -602z" />
    <glyph glyph-name="Z" unicode="Z" horiz-adv-x="2642" 
d="M1847 1630q7 -4 17 -12t16 -12l78 -33q115 -46 115 -225q0 -51 -18.5 -120t-18.5 -102q0 -61 104 -166.5t215.5 -211t191 -225t79.5 -249.5q0 -124 -102 -197t-234 -73q-69 0 -442 15q-373 14 -468 14q-201 0 -479 -20.5l-278 -20.5v0q-175 0 -352 45t-177 168
q0 97 139 278l1389 1819q98 129 98 172q0 82 -200 82h-643q-242 0 -254 -107q0 -122 213 -295l176 -147q45 -30 45 -98q0 -54 -24.5 -84t-93 -90t-116 -124.5t-78.5 -164.5q-16 16 -20 16l-49 13q-98 22 -98 159q0 71 28.5 182t28.5 154q0 64 -73 123t-219.5 150.5
t-224 165.5t-77.5 163q0 98 197 131t561 33q71 0 217 -2t217 -2q472 0 791 -28t319 -132q0 -71 -49 -143l-1000 -1278q-20 -27 -144.5 -198t-195.5 -269q-32 -50 -32 -74q0 -94 258 -94h659q344 0 344 78q0 81 -352 287l-156 90q-94 58 -94 139t35.5 131t102.5 106.5
t101.5 104t34.5 121.5q0 17 -8 57z" />
    <glyph glyph-name="bracketleft" unicode="[" horiz-adv-x="1548" 
d="M836 1077q0 -107 -12 -246.5t-41 -440.5t-39.5 -442t-10.5 -255q0 -188 90 -246q72 -49 156 -49q23 0 82 10t90 10q119 0 119 -69q0 -86 -131 -86q-30 0 -83 6t-106 6q-32 0 -176.5 -14.5t-187.5 -14.5q-279 0 -279 287q0 87 15.5 296t35 457t31.5 447t12 340
q0 303 -41 890.5t-41 604.5q0 176 209 176q34 -1 95 -2q60 -2 94 -2q20 0 160.5 8.5t203.5 8.5q160 0 160 -70q0 -82 -94 -82q-25 0 -100.5 14.5t-100.5 14.5q-91 0 -139.5 -55t-48.5 -121t25.5 -400t39 -554t13.5 -427z" />
    <glyph glyph-name="backslash" unicode="\" horiz-adv-x="1692" 
d="M1454 -147l-1233 2797q-12 25 -12 78q15 78 82 78q74 0 110 -82l1237 -2802q17 -38 17 -69q-3 -35 -28.5 -60.5t-61.5 -25.5q-67 0 -111 86z" />
    <glyph glyph-name="bracketright" unicode="]" horiz-adv-x="1548" 
d="M733 926q0 86 18 292.5t38 415t33.5 375t13.5 301.5q0 187 -91 246q-70 49 -155 49q-22 0 -81 -10t-91 -10q-119 0 -119 69q0 86 131 86q32 0 84 -6t104 -6q25 0 169.5 14.5t195.5 14.5q279 0 279 -287q0 -113 -33.5 -540t-47.5 -621t-14 -379q0 -274 41 -861.5
t41 -633.5q0 -176 -209 -176q-34 1 -94 3q-60 1 -94 1t-175.5 -8.5t-189.5 -8.5q-159 0 -159 70q0 82 94 82q31 0 106.5 -14.5t94.5 -14.5q93 0 140.5 55.5t47.5 120.5q0 66 -25.5 400t-39 554t-13.5 427z" />
    <glyph glyph-name="asciicircum" unicode="^" 
d="M541 1401h-500l672 1343h626l672 -1343h-500l-483 962z" />
    <glyph glyph-name="underscore" unicode="_" 
d="M-41 -209h2130v-430h-2130v430z" />
    <glyph glyph-name="grave" unicode="`" 
d="M582 2675l626 -369q23 -12 42.5 -40.5t19.5 -53.5q0 -35 -20.5 -58.5t-53.5 -23.5q-24 0 -115 49q-52 35 -137 91t-113 69l-339 180q-91 49 -91 119q0 29 25.5 53.5t56.5 24.5q25 0 99 -41z" />
    <glyph glyph-name="a" unicode="a" horiz-adv-x="2269" 
d="M2003 319q22 -18 74 -53q106 -76 106 -114q0 -52 -82 -87.5t-185.5 -54t-150.5 -18.5q-116 0 -267.5 30.5t-248.5 30.5q-30 0 -200 -20.5t-242 -20.5q-307 0 -488 148q-92 74 -148 183.5t-56 221.5q0 206 139.5 394.5t429.5 310.5l184 78q59 19 134 58t75 77
q0 14 -20 25.5t-37 11.5q-19 0 -158 -29t-198 -29q-189 0 -324 72.5t-135 230.5t150.5 216.5t340.5 58.5q48 -1 157 -2q109 -2 228 -2q106 0 248 8l137 8v0q237 0 387 -115t150 -356v-1262zM1511 627v905q0 352 -434 352q-418 0 -418 -151q0 -57 51.5 -84t116.5 -27
q62 0 211 22.5t183 22.5q192 0 192 -106q0 -67 -40 -102t-132 -87l-184 -90q-381 -194 -381 -467q0 -139 122 -217t267 -78q82 0 156 25l114 41q27 9 176 41z" />
    <glyph glyph-name="b" unicode="b" horiz-adv-x="2281" 
d="M270 549v1806q0 92 -65 127l-123 70q-74 40 -74 98q0 82 254 82h430q62 0 62 -53v-774q82 0 147 32q212 86 356 86q221 0 393 -82t287.5 -225t174.5 -331t59 -402q0 -257 -93 -486t-274 -369t-428 -140q-23 0 -169 14t-179 14q-31 0 -133 -10t-182 -10q-199 0 -320 127
q-79 83 -101 177t-22 249zM754 1671v-827q0 -168 60 -237.5t198 -69.5q17 0 74 6t73 6t72 -4t72 -4q430 0 430 610q0 233 -130 442t-366 209q-109 0 -238 -61q-83 -38 -245 -70z" />
    <glyph glyph-name="c" unicode="c" horiz-adv-x="1991" 
d="M1778 791q4 -36 41 -78q102 -117 102 -262q0 -129 -63 -233.5t-171.5 -165t-232.5 -60.5q-30 0 -158 12t-149 12q-50 0 -151 -8t-119 -8q-186 0 -331 87.5t-240.5 232.5t-143 322t-47.5 353q0 312 114 551t337 370.5t540 131.5q151 0 308.5 -37.5t270.5 -131.5t113 -249
q0 -132 -101 -232t-235 -100q-108 0 -159.5 27.5t-99 74t-81.5 46.5q-33 0 -49 -49q-61 50 -61 102q0 58 49 100.5t102 42.5q36 0 90 -10t62 -10q49 0 49 53q0 60 -54 98.5t-130 56t-127 17.5q-207 0 -386.5 -153.5t-179.5 -485.5q0 -667 689 -667h106q368 0 430 147l37 74z
" />
    <glyph glyph-name="d" unicode="d" horiz-adv-x="2290" 
d="M2003 336l57 -29q198 -106 205 -160q0 -30 -74 -77q-152 -70 -290 -70q-20 0 -191.5 12.5t-234.5 12.5q-74 0 -270.5 -16.5t-213.5 -16.5q-457 0 -672 299q-204 295 -204 704q0 193 81 436.5t265.5 422t468.5 178.5q231 0 377 -70l118 -57q11 -6 95 -37v524q0 40 -14 55
t-56 35l-156 90q-53 28 -53 90q0 70 275 70h409q45 0 61.5 -11.5t16.5 -54.5v-2330zM1520 1638q-91 34 -230 111q-114 66 -266 66q-239 -16 -351 -227t-112 -462q0 -234 108.5 -411.5t301.5 -177.5q60 0 110 4t82 4q34 0 85 -4t71 -4q132 0 166.5 68t34.5 198v835z" />
    <glyph glyph-name="e" unicode="e" horiz-adv-x="2073" 
d="M1761 786q216 -81 221 -286q0 -142 -70.5 -259t-186.5 -183t-250 -66q-23 0 -154 12t-162 12q-23 0 -161 -10t-171 -10q-210 0 -373 128.5t-251 330t-88 405.5q0 181 34 354t111.5 330t198.5 266q209 185 577 185h426q98 0 207 -22t188.5 -80.5t79.5 -155.5
q0 -178 -168 -344q-66 -63 -138 -104t-226 -118l-135 -65q-241 -114 -385 -275q-69 -78 -90 -225q217 -98 426 -98q193 0 350.5 61t189.5 217zM623 725q52 187 163 303q103 103 238 180l205 115q125 71 181 120.5t56 145.5q0 121 -111.5 169t-269.5 48q-299 0 -417 -151
q-156 -188 -156 -508q0 -212 111 -422z" />
    <glyph glyph-name="f" unicode="f" horiz-adv-x="1102" 
d="M1122 2818q4 -10 12 -32.5t9 -24.5l20 -49q25 -63 25 -107q0 -136 -119 -232t-258 -96q-83 0 -173.5 25t-125.5 25q-98 0 -98 -62q0 -28 32 -78l74 -94h180q111 0 258.5 -27t147.5 -92q0 -42 -86.5 -104.5t-142.5 -83.5q-47 -16 -58.5 -40t-11.5 -87v-1360q16 -6 57 -33
q180 -96 180 -135q0 -38 -61 -70q-125 -69 -238 -69q-14 0 -86 10t-90 10q-17 0 -93 -10t-91 -10q-111 0 -242 69q-57 37 -57 62q0 55 180 143q28 22 58 33v1352q0 73 -16.5 97t-82.5 58l-147 86q-111 68 -111 127q0 66 131 66l148 8l-103 102q-155 148 -155 308
q0 142 123 220.5t311 78.5q91 0 272.5 -33t259.5 -33q101 0 168 82z" />
    <glyph glyph-name="g" unicode="g" horiz-adv-x="2208" 
d="M1933 1753v-1106q0 -184 45 -340l21 -82q45 -175 45 -295q0 -108 -51 -225.5t-142 -208.5q-184 -184 -577 -184q-52 0 -142 -2t-124 -2q-134 0 -233 -4t-111 -4q-216 0 -376.5 74t-160.5 241q0 32 24.5 95t24.5 73q0 36 -33 61q13 4 99 4q209 0 348 -139l41 -41
q130 -135 389 -135q213 0 368.5 67t155.5 240q0 124 -65 185q-108 -58 -172 -58q-70 0 -145 8.5t-93 8.5q-35 0 -129 -8.5t-145 -8.5q-212 0 -364 128.5t-228 341.5t-76 460q0 337 106.5 582t337 378.5t588.5 133.5h823q103 0 111 -45q0 -78 -94 -144q-8 -6 -20.5 -15
t-25 -18.5t-20.5 -15.5zM1475 860v557q0 177 -109 275t-289 98q-166 0 -279.5 -102t-166.5 -259.5t-53 -318.5q0 -218 82 -414t262 -196q17 0 96 4t92 4q14 0 86 -4t86 -4q109 0 151 109.5t42 250.5z" />
    <glyph glyph-name="h" unicode="h" horiz-adv-x="2232" 
d="M291 299v2118q0 44 -11.5 63t-54.5 43l-98 62q-49 27 -49 81q18 66 217 66h475q203 0 217 -66q0 -47 -49 -81l-98 -62q-46 -29 -56 -42t-10 -64v-676q81 34 184 94q268 160 467 160q253 0 389 -132t136 -384v-1180q27 -13 57 -33q163 -95 172 -135q0 -33 -57 -70
q-125 -69 -234 -69q-14 0 -88 10t-92 10q-16 0 -91 -10t-89 -10q-109 0 -234 69q-57 37 -57 70q17 57 176 135q25 19 53 33v1069q0 128 -56 215.5t-177 87.5q-64 0 -139 -20l-74 -21q-97 -30 -246 -37v-1294q31 -12 57 -33q160 -84 173 -135q0 -55 -114 -97t-173 -42
q-13 0 -92 10t-97 10q-15 0 -89 -10t-87 -10q-111 0 -229 69q-57 30 -57 70q13 59 172 135q11 9 27.5 18.5t25.5 14.5z" />
    <glyph glyph-name="i" unicode="i" horiz-adv-x="1057" 
d="M774 299q23 -11 57 -33q160 -84 173 -135q0 -38 -62 -70q-118 -69 -233 -69q-13 0 -88 10t-93 10q-17 0 -89 -10t-87 -10q-108 0 -233 69q-58 36 -58 70q12 50 172 135q38 24 58 33v1393q0 53 -25 73l-98 74q-53 34 -53 82q0 74 188 74h459q188 0 188 -74q0 -50 -57 -86
l-107 -82q-12 -16 -12 -61v-1393zM532 2605q287 0 287 -164q0 -184 -287 -184q-282 0 -282 184q0 164 282 164z" />
    <glyph glyph-name="j" unicode="j" horiz-adv-x="1085" 
d="M311 -213q17 -26 17 -61q0 -58 -41.5 -92.5t-102.5 -34.5q-80 0 -123 57q-14 29 -36 29q-16 0 -28.5 -20t-12.5 -38q0 -80 72 -122t157 -42q128 0 207.5 65.5t79.5 188.5q0 92 -82 189l-33 41q-44 54 -55 86.5t-11 105.5v1442q0 100 -10.5 146.5t-50.5 62.5l-65 33
q-82 35 -82 90q0 74 110 74l660 4q106 0 106 -66q0 -73 -57 -98l-49 -29q-78 -39 -78 -188v-1409q0 -79 28 -135l21 -46q78 -186 78 -278t-58 -193t-155 -172q-165 -110 -467 -110q-223 0 -416.5 104.5t-193.5 304.5q0 138 91.5 235t227.5 97q76 0 150 -45t100 -115
q26 -69 65 -69q13 0 37 8zM537 2601q282 0 282 -160q0 -188 -282 -188q-283 0 -283 188q0 160 283 160z" />
    <glyph glyph-name="k" unicode="k" horiz-adv-x="2417" 
d="M295 303v2114q0 53 -8 64t-58 42l-98 66q-49 27 -49 77q18 66 217 66h487q208 0 218 -66q0 -52 -46 -77l-106 -66q-53 -32 -63.5 -43.5t-10.5 -62.5v-648q70 23 144 70q272 172 536 172q138 0 281.5 -41.5t244.5 -136t101 -240.5q0 -173 -180 -262.5t-381 -89.5
q-111 0 -170 12.5t-88 12.5q-49 0 -49 -17q0 -24 65 -45l373 -143q221 -85 287 -189q115 -177 122 -413v-66q6 -70 66 -102l53 -29q47 -22 109.5 -69t62.5 -78q0 -36 -69 -66l-62 -29q-55 -24 -115 -24q-14 0 -85 6t-87 6q-19 0 -102 -8t-98 -8q-112 0 -164.5 96t-52.5 211
q0 334 -99 537q-60 137 -278 249l-103 54q-135 63 -135 180q0 59 50.5 93t105.5 34q47 0 174.5 -22.5t144.5 -22.5q81 0 145 49.5t64 130.5q0 90 -78.5 133t-175.5 43q-119 0 -299 -86q-150 -72 -258 -90v-1278q12 -5 58 -33q176 -94 176 -139q0 -32 -58 -65
q-125 -70 -237 -70q-13 0 -90 10t-95 10q-22 0 -80 -10t-96 -10q-111 0 -237 70q-58 33 -58 65q0 54 177 139q11 9 29 18.5t28 14.5z" />
    <glyph glyph-name="l" unicode="l" horiz-adv-x="1057" 
d="M778 299q29 -14 53 -33q165 -86 173 -135q0 -40 -58 -70q-116 -69 -229 -69q-11 0 -88 10t-92 10q-16 0 -91 -10t-90 -10q-111 0 -229 69q-57 30 -57 70q0 35 112.5 102.5t112.5 69.5v2126q0 37 -24.5 64t-71.5 62t-65.5 54.5t-18.5 48.5q0 74 188 74h406
q30 0 49.5 -26.5t19.5 -59.5v-2347z" />
    <glyph glyph-name="m" unicode="m" horiz-adv-x="3355" 
d="M778 1495v-1200q16 -6 30 -14t28 -15l75 -45t61 -44.5t36 -49.5q0 -40 -58 -70q-121 -65 -229 -65q-13 0 -92 10t-97 10q-15 0 -89 -10t-87 -10q-106 0 -229 65q-57 30 -57 70q4 21 22.5 39.5t44.5 37t56.5 35.5t48.5 27q8 4 24.5 13.5t28.5 15.5v1364q0 55 -28 90
t-83.5 70t-76.5 54t-21 56q0 40 50.5 51t162.5 11h483q185 0 185 -74q0 -41 -61.5 -90t-102.5 -74q-7 -9 -11.5 -46t-5.5 -60q121 30 295 151l70 49q222 156 381 156q126 0 214.5 -54.5t133 -136t49.5 -161.5q105 20 271 151q129 99 234.5 152t231.5 53q111 0 213.5 -59
t164 -158t61.5 -213v-1282q14 -7 27 -14.5t26 -14.5q24 -14 69 -39.5t74 -50.5t29 -49q0 -39 -57 -70q-123 -65 -230 -65q-14 0 -88 10t-92 10q-16 0 -91 -10t-89 -10q-104 0 -234 65q-57 37 -57 70q0 26 29 51t74 50t69 38q11 4 27 13.5t30 15.5v1081q0 234 -180 234
q-78 0 -180 -37l-70 -29q-86 -37 -249 -53v-1196q12 -6 26 -14t31 -15q10 -6 60.5 -35t81 -54t30.5 -50q0 -39 -57 -70q-130 -65 -234 -65q-13 0 -88 10t-92 10q-16 0 -91 -10t-89 -10q-107 0 -230 65q-57 31 -57 70q0 25 29.5 51t76 51.5t66.5 36.5q8 4 24.5 13.5
t28.5 15.5v1065q0 262 -168 262q-87 0 -180 -41q-117 -49 -207.5 -67t-124.5 -19z" />
    <glyph glyph-name="n" unicode="n" horiz-adv-x="2269" 
d="M778 1458v-1159q32 -22 53 -33q173 -90 173 -139q0 -37 -54 -70q-128 -65 -233 -65q-11 0 -86 10t-90 10q-16 0 -93 -10t-92 -10q-106 0 -229 65q-57 30 -57 70q0 25 29.5 51t76 51.5t66.5 36.5q27 13 53 33v1380q0 45 -28.5 76t-82 64.5t-76 54.5t-22.5 55q0 62 217 62
h483q185 0 185 -74q0 -44 -66 -92t-110 -72q-17 -21 -17 -61v-45q101 32 230 151q224 217 467 217q150 0 264 -62t174.5 -176.5t60.5 -269.5v-1208q11 -6 26.5 -16t31.5 -17q11 -6 41.5 -23t58.5 -35.5t48 -40.5t20 -40q0 -31 -58 -70q-121 -65 -225 -65q-13 0 -86 10
t-90 10t-97 -10t-92 -10q-102 0 -225 65q-57 31 -57 70q0 25 28.5 50.5t72 50.5t67.5 38q19 8 53 33v1053q0 270 -225 270q-93 0 -226 -61l-98 -45q-36 -17 -164 -58z" />
    <glyph glyph-name="o" unicode="o" horiz-adv-x="2130" 
d="M2015 1028q0 -166 -45.5 -346t-137 -337t-231.5 -255t-319 -98q-18 0 -108 10t-109 10q-16 0 -93 -6t-91 -6q-151 0 -296 87t-245 220q-106 141 -165.5 340.5t-59.5 380.5q0 312 99 549t308 368.5t527 131.5q463 0 716 -271q131 -138 190.5 -345t59.5 -433zM1585 1237
q0 312 -136 477.5t-396 165.5q-177 0 -291 -93t-165.5 -233.5t-51.5 -291.5q0 -288 133 -455.5t366 -167.5q189 0 311 91.5t176 228.5t54 278z" />
    <glyph glyph-name="p" unicode="p" horiz-adv-x="2204" 
d="M778 1495v-877q-69 -109 -69 -212q0 -148 77 -254v-562q11 -10 23.5 -16t30.5 -16q77 -40 124.5 -71t47.5 -65q0 -41 -58 -69q-118 -70 -229 -70q-11 0 -83 10.5t-93 10.5q-23 0 -100.5 -10.5t-92.5 -10.5q-109 0 -229 70q-57 27 -57 69q0 48 172 136q2 1 27.5 11.5
t25.5 20.5v2114q0 37 -29 60t-83 50t-79.5 49.5t-25.5 57.5q0 74 213 74h459q184 0 184 -74q0 -35 -27 -60.5t-86 -70.5t-59 -61v-37l323 217q117 77 258 90q132 0 245 -44.5t201 -121.5t148 -178q160 -257 160 -709q0 -392 -180 -647q-110 -162 -284.5 -263.5
t-362.5 -101.5q-199 0 -359.5 129t-160.5 322q0 77 19.5 116.5t59 96t39.5 90.5q0 33 -28 70q48 12 69 12q89 0 152 -57q32 -29 51 -102.5t43.5 -106.5t106.5 -33q257 0 362 196t105 455q0 242 -127 414t-349 172q-97 0 -159.5 -28.5t-188.5 -106.5z" />
    <glyph glyph-name="q" unicode="q" horiz-adv-x="2220" 
d="M2179 -492q-45 29 -82 29q-40 0 -74 -53q-149 -234 -327 -234q-242 0 -242 381v398q-186 -135 -422 -135q-262 0 -470.5 116.5t-327.5 348.5t-119 563q0 275 92.5 520t288.5 405q176 144 385 144q117 0 204.5 -36.5t188.5 -115.5q107 -77 180 -98v41l-119 61
q-53 32 -53 82q0 70 160 70h487q213 0 213 -62q0 -56 -45 -82l-106 -65q-37 -19 -45.5 -37.5t-8.5 -69.5v-1933q67 41 131 41q58 0 103 -46.5t45 -100.5q0 -45 -16 -82q-17 -31 -21 -50zM1454 1565q-161 47 -233 94l-58 33q-66 41 -168 41q-237 0 -358 -195.5t-121 -443.5
t107 -422q64 -102 172 -166t225 -64q245 0 434 209v914z" />
    <glyph glyph-name="r" unicode="r" horiz-adv-x="1712" 
d="M1253 1008q-16 -4 -41 -4q-38 0 -68 37t-30 77q0 43 9 64t35.5 67.5t38 82t11.5 89.5t-38.5 94.5t-96.5 40.5q-47 0 -86 -16l-57 -24q-38 -14 -152 -33v-1184q12 -5 58 -33q172 -92 172 -139q0 -30 -58 -66q-116 -69 -229 -69q-13 0 -88 10t-92 10t-95 -10t-90 -10
q-111 0 -229 69q-57 30 -57 62q0 59 172 143q21 17 53 33v1393q0 53 -8 61q-42 26 -105 76.5t-63 91.5q0 74 188 74h475q185 0 185 -74q0 -32 -24.5 -56.5t-71 -52t-72 -51t-25.5 -53.5v-49q147 53 262 168q160 168 303 168q94 0 175 -55.5t127.5 -153t46.5 -217.5
q0 -152 -93.5 -298t-263.5 -186q-73 -20 -78 -77z" />
    <glyph glyph-name="s" unicode="s" horiz-adv-x="2085" 
d="M197 926q66 32 131 32q122 0 215 -75.5t96 -194.5q0 -87 45 -123q90 -69 283 -69q434 0 434 229q0 125 -121.5 225.5t-271.5 163.5l-217 98q-184 84 -297.5 143.5t-225.5 162t-112 215.5q0 153 180.5 207.5t392.5 54.5h578q266 0 389 -33q155 -38 155 -160
q0 -85 -60 -136.5t-144 -51.5q-185 0 -185 184q-30 2 -89 11.5t-95 9.5h-254q-283 0 -283 -90t149 -173.5t302 -138.5l192 -74q261 -96 423.5 -274t162.5 -426q0 -185 -71.5 -333.5t-206.5 -233t-316 -84.5q-30 0 -208.5 18.5t-225.5 18.5q-142 0 -284.5 -14.5t-165.5 -14.5
q-104 0 -205 54.5t-163.5 147t-62.5 199.5q0 99 26.5 150t88.5 143t62 142q0 58 -41 90z" />
    <glyph glyph-name="t" unicode="t" horiz-adv-x="1331" 
d="M1253 1409q-84 -78 -180 -78q-95 0 -148 72t-53 153q0 21 5 45.5t8 36.5q0 45 -58 45l-49 -4v-1380q12 -5 58 -33q172 -92 172 -139q0 -36 -58 -66q-116 -69 -229 -69q-13 0 -88 10t-92 10q-16 0 -93 -10t-92 -10q-111 0 -229 69q-57 30 -57 66q0 55 172 139q21 17 53 33
v1434q-30 11 -66 32q-131 62 -131 131q0 58 82 58l111 4l-4 106q-7 96 -70 127q-18 9 -32.5 16.5t-26 19t-11.5 26.5q0 29 12 38.5t65 30t100 45.5q145 78 223 134t143 108.5t84 52.5q22 0 42 -17.5t20 -39.5q0 -2 -13 -41q-53 -100 -53 -205v-442l111 12q9 1 84.5 19
t128.5 18q56 0 101.5 -34.5t45.5 -88.5q0 -66 -32.5 -145t-32.5 -113q0 -87 77 -176z" />
    <glyph glyph-name="u" unicode="u" horiz-adv-x="2228" 
d="M1421 549v1171q0 20 -26.5 40t-81 52t-80 55.5t-25.5 53.5q0 74 217 74h480q213 0 213 -74q0 -34 -26.5 -58.5t-85 -56.5t-80 -47t-21.5 -39v-1388q0 -41 30 -72.5t89 -68.5t88.5 -63t29.5 -58q0 -70 -94 -70h-750q-110 0 -110 70q0 44 53 82l172 135q8 4 8 37v36
q-124 -37 -254 -147l-110 -90q-143 -123 -324 -123q-109 0 -207.5 54t-169.5 147q-90 121 -90 393v1139q0 13 -58 53t-90 69t-32 66q0 74 188 74h385q91 0 91 -90v-1151q0 -152 24 -217q62 -111 201 -111q94 0 155 29l123 49q60 22 168 45z" />
    <glyph glyph-name="v" unicode="v" horiz-adv-x="1962" 
d="M979 1581q19 37 20 37v0q0 37 -57 61q-147 66 -147 168q0 148 335 148h435q159 0 274 -37t115 -176q0 -54 -11 -101t-33.5 -105.5t-37.5 -105.5q-161 -469 -328 -798q-225 -419 -360 -598q-81 -115 -131 -115q-29 0 -61.5 22.5t-37.5 22.5q-11 0 -46.5 -22.5t-55.5 -22.5
q-56 0 -86 70l-578 1417q-49 125 -100.5 215.5t-132.5 148.5q-26 19 -48.5 35.5t-38 37.5t-15.5 46q0 66 106 66h688q30 0 56 -14t26 -39q0 -63 -57 -99q-64 -52 -74 -119q0 -80 33 -163l139 -390q49 -137 217 -462q119 -238 201 -238q68 0 111.5 83.5t89.5 211.5l122 340
q47 132 86 389q9 81 9 102q0 100 -53 156.5t-205 56.5q-30 0 -66.5 2.5t-60.5 2.5q-91 0 -91 -46q0 -9 23 -44.5t23 -61.5q0 -44 -29 -79t-74 -44q-59 0 -94 41z" />
    <glyph glyph-name="w" unicode="w" horiz-adv-x="2466" 
d="M1294 803l-307 -770q-27 -74 -82 -74q-7 0 -46 22.5t-52 22.5q-16 0 -47.5 -20.5t-42.5 -20.5q-52 0 -70 66l-553 1585q-34 126 -119 188l-61 45q-12 6 -12 37q0 37 15.5 74t37.5 37h680q94 0 94 -66q0 -41 -18 -60.5t-52.5 -36t-53.5 -38.5t-19 -70q0 -54 12 -98
l356 -1032l394 1040q25 58 73 58q54 0 70 -50l360 -1069l263 754q65 186 65 320q0 192 -291 192h-667q-127 0 -127 -37q0 -3 22.5 -49t22.5 -102q0 -64 -44 -112t-116 -48q-61 0 -91.5 28t-56.5 91q78 0 78 53q0 30 -43 85t-43 112q0 135 303 135h1233q156 0 156 -103
q0 -29 -32 -145t-50 -166l-557 -1544q-24 -74 -82 -74q-18 0 -44.5 20.5t-37.5 20.5q-12 0 -43.5 -20.5t-46.5 -20.5q-51 0 -70 62z" />
    <glyph glyph-name="x" unicode="x" horiz-adv-x="2105" 
d="M1208 1155l484 -623q123 -159 282 -266l107 -65q90 -64 90 -90q0 -31 -49 -58q-129 -61 -205 -61q-13 0 -119 14t-131 14q-27 0 -158 -12t-157 -12q-36 0 -120.5 25t-84.5 57q0 25 20 49t62 61t60 57t18 42t-17 49l-364 491l-205 -249q-111 -143 -111 -222q0 -47 17 -68
t69 -59q35 -19 83 -59.5t48 -67.5q0 -43 -103.5 -72.5t-162.5 -29.5q-15 0 -100 8t-105 8q-53 0 -133 -12t-108 -12q-107 0 -107 82q0 81 98 196q47 58 203.5 214.5t296 291.5t205.5 199l-369 495q-190 268 -295 312l-53 24q-78 40 -78 107q0 78 144 78h868q115 0 115 -45
q0 -41 -45 -86q32 10 69 20.5t78 24.5q296 90 459 90q188 0 188 -74q0 -28 -17.5 -51.5t-64 -66t-86.5 -83.5q-30 -30 -79.5 -83.5t-100.5 -104.5q-26 -28 -56 -60.5t-49 -53t-55 -58.5zM1106 1303l237 307q49 69 62 110q0 70 -53 70q-27 0 -95 -21l-229 -73q-21 -5 -48 -13
t-50 -8q-31 0 -56.5 19t-25.5 51q0 43 57 86h-127q-45 0 -45 -25q0 -17 33 -61z" />
    <glyph glyph-name="y" unicode="y" horiz-adv-x="2019" 
d="M1315 385v-692q0 -426 -250 -426q-196 0 -332 201q-31 57 -64 94t-79 37q-39 0 -107 -41q8 18 17.5 38.5t11.5 34.5v58q3 69 50 122.5t114 53.5q63 0 155 -45v475l-692 1307q-74 146 -155 208l-50 40t-27.5 32t-12.5 47q0 66 94 66h1024q69 0 69 -70q0 -59 -53 -86
l402 86q318 66 483 66q135 0 135 -119q0 -60 -53 -197q-234 -499 -275 -577q-64 -123 -286 -512zM774 1835h-237l565 -1139q23 -57 53 -57q38 0 135 160q287 422 287 811q0 85 -27.5 116t-111.5 31q-57 0 -107 -12l-323 -74q-110 -20 -152 -20q-151 0 -151 86q0 39 69 98z
" />
    <glyph glyph-name="z" unicode="z" horiz-adv-x="2064" 
d="M1835 860q-53 -51 -53 -86q0 -68 28.5 -117.5t95.5 -131.5t98.5 -140t31.5 -135q0 -149 -148.5 -203.5t-331.5 -54.5q-75 0 -321 28.5t-317 28.5q-123 0 -336 -26.5t-308 -26.5q-307 0 -307 115q0 48 70 135l1212 1446q21 32 21 41q0 57 -189 57h-344q-184 0 -184 -74
q0 -34 26.5 -81t26.5 -74q0 -71 -48.5 -121.5t-119.5 -50.5q-89 0 -143 106q57 19 57 53q0 37 -32.5 71t-99.5 86.5t-98.5 87.5t-31.5 75q0 127 377 127h1110q373 0 373 -99q0 -48 -37 -102l-1045 -1212q136 -62 312 -62q389 0 389 156q0 16 -18.5 61t-18.5 86q0 53 47 92.5
t104 42.5q96 0 152 -98z" />
    <glyph glyph-name="braceleft" unicode="{" horiz-adv-x="1548" 
d="M643 999q142 -80 190 -192t48 -295v-610q0 -193 61 -267q34 -36 70.5 -47t117.5 -26q75 -16 107.5 -49t32.5 -107q0 -93 -51 -124.5t-154 -31.5q-286 0 -419.5 144t-133.5 446v656q0 255 -127 327l-53 33q-53 31 -53 156q0 120 53 155l57 37q123 83 123 299v692
q0 299 148.5 430.5t453.5 131.5q149 0 156 -156q0 -134 -131 -160l-86 -16q-107 -19 -139.5 -99.5t-32.5 -211.5v-631q0 -184 -47.5 -291.5t-190.5 -192.5z" />
    <glyph glyph-name="bar" unicode="|" 
d="M782 2728h480v-3412h-480v3412z" />
    <glyph glyph-name="braceright" unicode="}" horiz-adv-x="1548" 
d="M909 1008q-140 82 -188.5 193.5t-48.5 293.5v610q0 197 -62 267q-43 46 -188 73q-76 18 -107.5 50t-31.5 106q0 94 51.5 127t152.5 33q296 0 424.5 -143.5t128.5 -450.5v-656q0 -255 127 -327l54 -29q53 -31 53 -160q0 -120 -53 -155l-58 -33q-123 -88 -123 -303v-692
q0 -298 -147.5 -430t-454.5 -132q-73 0 -114 43t-41 117q0 138 131 156l86 16q107 20 139.5 100t32.5 212v634q0 183 48.5 291.5t188.5 188.5z" />
    <glyph glyph-name="asciitilde" unicode="~" 
d="M328 1200l-267 172q7 17 16 36.5t13 29.5q109 234 227.5 358.5t321.5 124.5q119 0 225.5 -29.5t240 -84.5t209 -79t156.5 -24q103 0 171 57.5t137 167.5l270 -160q-115 -245 -260 -386.5t-408 -141.5q-48 0 -113.5 21t-225 82t-255 89.5t-163.5 28.5q-102 0 -164.5 -66.5
t-130.5 -195.5z" />
    <glyph glyph-name="Adieresis" unicode="&#xc4;" horiz-adv-x="2626" 
d="M672 2105q-112 65 -279.5 199t-167.5 256q0 91 90.5 131.5t192.5 40.5h1610q121 0 220 -54.5t99 -170.5q0 -154 -118 -264.5t-316 -227.5l-1090 -635q-200 -116 -302.5 -246t-102.5 -339q0 -78 35.5 -139.5t103.5 -61.5q31 0 63 14.5t60 14.5q-8 -37 -8 -238
q0 -164 -78.5 -278.5t-228.5 -114.5q-161 0 -250.5 135t-89.5 303q0 201 151 623q108 284 234 549q42 88 125 260.5t165 343t107 223.5q29 60 29 78q0 40 -31.5 50.5t-120.5 10.5q-156 0 -156 -65q0 -41 13 -71.5t35 -55.5t47 -44.5t53 -41.5zM1921 1909l201 -926
q98 -433 143 -549q35 -82 176 -160q26 -16 72.5 -44.5t81 -58t35.5 -52.5q0 -44 -106.5 -79.5t-160.5 -35.5q-20 0 -135.5 16.5t-159.5 16.5q-39 0 -168.5 -14t-142.5 -15q-76 0 -174.5 24t-103.5 74q0 65 114 127l103 58q69 39 69 123q-2 21 -8 53.5t-8 48.5l-238 1159z
M672 1438q56 33 198 117t280 165.5t282.5 167t201.5 119.5q161 93 271 190t110 220q0 57 -31.5 94t-78.5 37q-73 0 -82 -86l32 -230q-177 -149 -413 -274l-78 303q-20 85 -52.5 136.5t-103.5 51.5q-75 0 -129 -95t-112 -232zM1729 3285q282 0 282 -163q0 -104 -84 -146.5
t-198 -42.5q-113 0 -196 43.5t-83 145.5q0 163 279 163zM909 3285q283 0 283 -163q0 -189 -283 -189q-114 0 -196 43.5t-82 145.5q0 163 278 163z" />
    <glyph glyph-name="Aring" unicode="&#xc5;" horiz-adv-x="2626" 
d="M672 2105q-112 65 -279.5 199t-167.5 256q0 91 90.5 131.5t192.5 40.5h1610q121 0 220 -54.5t99 -170.5q0 -154 -118 -264.5t-316 -227.5l-1090 -635q-200 -116 -302.5 -246t-102.5 -339q0 -78 35.5 -139.5t103.5 -61.5q31 0 63 14.5t60 14.5q-8 -37 -8 -238
q0 -164 -78.5 -278.5t-228.5 -114.5q-161 0 -250.5 135t-89.5 303q0 201 151 623q108 284 234 549q42 88 125 260.5t165 343t107 223.5q29 60 29 78q0 40 -31.5 50.5t-120.5 10.5q-156 0 -156 -65q0 -41 13 -71.5t35 -55.5t47 -44.5t53 -41.5zM1921 1909l201 -926
q98 -433 143 -549q35 -82 176 -160q26 -16 72.5 -44.5t81 -58t35.5 -52.5q0 -44 -106.5 -79.5t-160.5 -35.5q-20 0 -135.5 16.5t-159.5 16.5q-39 0 -168.5 -14t-142.5 -15q-76 0 -174.5 24t-103.5 74q0 65 114 127l103 58q69 39 69 123q-2 21 -8 53.5t-8 48.5l-238 1159z
M672 1438q56 33 198 117t280 165.5t282.5 167t201.5 119.5q161 93 271 190t110 220q0 57 -31.5 94t-78.5 37q-73 0 -82 -86l32 -230q-177 -149 -413 -274l-78 303q-20 85 -52.5 136.5t-103.5 51.5q-75 0 -129 -95t-112 -232zM1327 3453q171 0 298.5 -59t127.5 -203
q0 -279 -426 -279q-422 0 -422 262q0 279 422 279zM1327 3359q-94 0 -167.5 -44.5t-73.5 -132.5q0 -90 72 -131t169 -41q100 0 173 41t73 131q0 88 -74.5 132.5t-171.5 44.5z" />
    <glyph glyph-name="Ccedilla" unicode="&#xc7;" horiz-adv-x="2392" 
d="M1139 -344l102 332q-293 47 -536.5 196t-392 420t-148.5 658q0 277 72.5 542.5t223.5 482t386 343.5t543 127q194 0 388.5 -68t320.5 -208.5t126 -342.5q0 -211 -142.5 -361.5t-340.5 -150.5q-181 0 -318 98.5t-174 270.5l-28 119q-19 77 -74 77q-37 0 -37 -24
q0 -49 16 -86q-47 -37 -110 -37q-56 0 -95.5 49t-39.5 111q0 67 62.5 119.5t133.5 52.5q141 0 246 -111l57 -57q82 -90 156 -90t135.5 54t61.5 126q0 96 -63.5 163.5t-158 99.5t-188.5 32q-208 0 -394.5 -115.5t-299.5 -335t-113 -508.5q0 -223 71.5 -429t206 -364
t321 -247.5t409.5 -89.5q412 0 594 217q38 47 69 151q176 -63 176 -241q0 -319 -243 -489.5t-633 -170.5h-57l-46 -147q90 20 140 20q130 0 224.5 -86.5t94.5 -208.5q0 -166 -110 -261t-279 -95q-92 0 -152 18.5t-151.5 55.5t-126.5 37q-49 0 -90 -41q-4 8 -4 28
q0 88 69 148.5t160 60.5q46 0 142.5 -18.5t160.5 -18.5q53 0 92 32t39 83q0 127 -213 127q-88 0 -241 -49z" />
    <glyph glyph-name="Eacute" unicode="&#xc9;" horiz-adv-x="2404" 
d="M2154 688q226 -119 226 -319t-132 -299t-360 -99q-27 0 -349 13q-322 12 -466 12q-165 0 -369 -10l-196 -11v0q-94 0 -258 47t-164 121q0 39 70 78l213 139q67 41 84.5 111.5t17.5 220.5v1295v114q0 132 -29 193q-26 57 -118 102q-234 130 -234 189q5 83 162 113t289 30
h1302q414 0 414 -139q0 -100 -173.5 -230.5t-334.5 -216.5l-430 -237q-189 -107 -189 -148q0 -28 41 -28q17 0 33 4q249 94 369 94q136 0 250 -71.5t114 -194.5q0 -163 -159 -213v32q0 62 -70 62q-81 0 -160 -25l-196 -53q-105 -29 -181 -29q-111 0 -211 70.5t-100 179.5
q0 146 176 283l471 373q37 27 71.5 52t57.5 57t23 75q0 67 -73.5 82.5t-254.5 15.5h-135q-153 0 -188 -49q-45 -58 -45 -258v-131v-209q-156 -140 -156 -270q0 -143 156 -263v-323q0 -303 45 -377q110 -156 557 -156h164q206 0 315 50q81 35 110 151zM1794 3261l-626 -369
q-70 -41 -99 -41q-31 0 -56.5 24.5t-25.5 53.5q0 70 91 119l340 180q22 11 109.5 67.5t139.5 91.5q88 50 115 50q33 0 53.5 -23.5t20.5 -58.5q0 -25 -19.5 -53.5t-42.5 -40.5z" />
    <glyph glyph-name="Ntilde" unicode="&#xd1;" horiz-adv-x="2892" 
d="M1016 1839l-500 307v230q0 98 -61 98q-52 0 -79.5 -44t-27.5 -95q0 -135 131 -217l1008 -623q233 -143 233 -315q0 -89 -71.5 -147t-161.5 -58q-127 7 -205 98l-25 33q-20 26 -61 41q21 14 45 20l70 13q41 7 41 61q0 42 -31.5 70t-79.5 57l-868 533q-373 222 -373 507
q0 100 65 181.5t165 126.5t200 45q141 0 381 -17q147 -12 287 -12h585q250 0 447 -51.5t336 -194.5q188 -194 188 -508q0 -284 -106 -495q-78 -159 -143.5 -253t-146.5 -198.5t-110.5 -167t-29.5 -147.5q0 -49 35 -90t83 -41q38 0 149 26.5t179 26.5q82 0 151.5 -45
t108.5 -118t39 -157q0 -139 -90 -262q-10 -12 -45 -65q-9 106 -78 106q-15 0 -65 -20q-188 -82 -328 -82q-122 0 -220 56t-154 154t-56 220q0 104 24 209l99 471q49 224 75.5 385.5t26.5 323.5q0 374 -262 561q-111 74 -251 92t-347 18q-119 0 -176 -4v-643zM1016 1458
v-1024q0 -37 41 -65.5t136 -79.5t143 -88.5t48 -81.5q0 -56 -118.5 -89.5t-192.5 -33.5q-25 0 -144 14.5t-151 14.5q-28 0 -150.5 -16.5t-140.5 -16.5q-73 0 -196 34.5t-123 88.5q0 41 46 77.5t136 87.5t130 80t40 58v1339q141 -84 277.5 -167t218.5 -132zM1340 3326
l287 -217q99 -69 147 -69q38 0 66 27.5t28 78.5q0 31 -12 86t-12 57q0 43 29 69t61 26q98 0 98 -140q0 -145 -83 -250.5t-224 -105.5q-117 0 -254 107l-230 188q-68 53 -114 53q-90 0 -90 -119q0 -16 6 -51t6 -59q0 -51 -23.5 -83t-62.5 -32q-60 0 -81 35t-21 100
q0 80 39 167.5t105.5 146.5t145.5 59q91 0 189 -74z" />
    <glyph glyph-name="Odieresis" unicode="&#xd6;" horiz-adv-x="2527" 
d="M2363 1393q0 -577 -196 -955q-66 -126 -156 -225t-206.5 -160t-248.5 -61q-51 0 -146.5 18.5t-115.5 18.5q-31 0 -147 -18.5t-139 -18.5q-189 0 -347.5 121t-267.5 305q-229 385 -229 860q0 587 225 987q129 234 370.5 363t518.5 129q350 0 596.5 -196t367.5 -509.5
t121 -658.5zM635 983q23 250 130.5 426.5t324.5 294.5l200 111q182 96 281.5 195t99.5 259q0 145 -125.5 220t-296.5 75q-277 0 -436 -162t-217.5 -388t-58.5 -453q0 -306 98 -578zM1823 2183q-14 -184 -107 -287q-115 -130 -348 -249l-188 -103q-170 -92 -277.5 -250
t-107.5 -352q8 -196 151 -282.5t357 -86.5q376 0 544 345q76 150 99.5 284t23.5 285q0 395 -147 696zM1668 3285q282 0 282 -163q0 -104 -84 -146.5t-198 -42.5q-113 0 -196 43.5t-83 145.5q0 163 279 163zM848 3285q283 0 283 -163q0 -189 -283 -189q-114 0 -196 43.5
t-82 145.5q0 163 278 163z" />
    <glyph glyph-name="Udieresis" unicode="&#xdc;" horiz-adv-x="2638" 
d="M1761 1335v914q0 75 -16.5 105.5t-77.5 74.5l-172 123q-61 49 -61 78q5 48 113.5 77t176.5 29q15 0 111 -4t135 -4q21 0 121 6t121 6q79 0 209.5 -32t130.5 -87q0 -37 -66 -73l-151 -94q-107 -65 -107 -197v-1679q0 -86 16 -128t78 -85l201 -132q82 -52 82 -94
q0 -45 -102 -86q-143 -41 -336 -41q-25 0 -167.5 12.5t-172.5 12.5q-12 0 -245 -22.5t-361 -22.5q-456 0 -721 282q-267 272 -267 742q0 288 119.5 571.5t323.5 521.5l115 136q90 101 90 184q0 78 -115 78h-143q-86 0 -86 -53q0 -22 12 -40t39 -39.5t30 -23.5l123 -98
l-123 -135l-167 114q-45 32 -105 75t-117.5 93.5t-94 103t-36.5 101.5q0 127 234 127h704q205 0 213 -90q0 -129 -110 -270l-135 -177q-357 -468 -357 -880q0 -219 84.5 -398t242.5 -282t369 -103q202 0 324 66q90 57 90 213q0 214 -126 439t-324 412t-410 300l102 147
q287 -185 454 -346t308 -428zM1741 3285q282 0 282 -163q0 -104 -84 -146.5t-198 -42.5q-113 0 -196 43.5t-83 145.5q0 163 279 163zM921 3285q283 0 283 -163q0 -189 -283 -189q-114 0 -196 43.5t-82 145.5q0 163 278 163z" />
    <glyph glyph-name="aacute" unicode="&#xe1;" horiz-adv-x="2269" 
d="M2003 319q22 -18 74 -53q106 -76 106 -114q0 -52 -82 -87.5t-185.5 -54t-150.5 -18.5q-116 0 -267.5 30.5t-248.5 30.5q-30 0 -200 -20.5t-242 -20.5q-307 0 -488 148q-92 74 -148 183.5t-56 221.5q0 206 139.5 394.5t429.5 310.5l184 78q59 19 134 58t75 77
q0 14 -20 25.5t-37 11.5q-19 0 -158 -29t-198 -29q-189 0 -324 72.5t-135 230.5t150.5 216.5t340.5 58.5q48 -1 157 -2q109 -2 228 -2q106 0 248 8l137 8v0q237 0 387 -115t150 -356v-1262zM1511 627v905q0 352 -434 352q-418 0 -418 -151q0 -57 51.5 -84t116.5 -27
q62 0 211 22.5t183 22.5q192 0 192 -106q0 -67 -40 -102t-132 -87l-184 -90q-381 -194 -381 -467q0 -139 122 -217t267 -78q82 0 156 25l114 41q27 9 176 41zM1691 2540l-626 -369q-70 -41 -99 -41q-31 0 -56.5 24.5t-25.5 53.5q0 70 91 119l340 180q22 11 109.5 67.5
t139.5 91.5q88 50 115 50q33 0 53.5 -23.5t20.5 -58.5q0 -25 -19.5 -53.5t-42.5 -40.5z" />
    <glyph glyph-name="agrave" unicode="&#xe0;" horiz-adv-x="2269" 
d="M2003 319q22 -18 74 -53q106 -76 106 -114q0 -52 -82 -87.5t-185.5 -54t-150.5 -18.5q-116 0 -267.5 30.5t-248.5 30.5q-30 0 -200 -20.5t-242 -20.5q-307 0 -488 148q-92 74 -148 183.5t-56 221.5q0 206 139.5 394.5t429.5 310.5l184 78q59 19 134 58t75 77
q0 14 -20 25.5t-37 11.5q-19 0 -158 -29t-198 -29q-189 0 -324 72.5t-135 230.5t150.5 216.5t340.5 58.5q48 -1 157 -2q109 -2 228 -2q106 0 248 8l137 8v0q237 0 387 -115t150 -356v-1262zM1511 627v905q0 352 -434 352q-418 0 -418 -151q0 -57 51.5 -84t116.5 -27
q62 0 211 22.5t183 22.5q192 0 192 -106q0 -67 -40 -102t-132 -87l-184 -90q-381 -194 -381 -467q0 -139 122 -217t267 -78q82 0 156 25l114 41q27 9 176 41zM688 2675l626 -369q23 -12 42.5 -40.5t19.5 -53.5q0 -35 -20.5 -58.5t-53.5 -23.5q-24 0 -115 49q-52 35 -137 91
t-113 69l-339 180q-91 49 -91 119q0 29 25.5 53.5t56.5 24.5q25 0 99 -41z" />
    <glyph glyph-name="acircumflex" unicode="&#xe2;" horiz-adv-x="2269" 
d="M2003 319q22 -18 74 -53q106 -76 106 -114q0 -52 -82 -87.5t-185.5 -54t-150.5 -18.5q-116 0 -267.5 30.5t-248.5 30.5q-30 0 -200 -20.5t-242 -20.5q-307 0 -488 148q-92 74 -148 183.5t-56 221.5q0 206 139.5 394.5t429.5 310.5l184 78q59 19 134 58t75 77
q0 14 -20 25.5t-37 11.5q-19 0 -158 -29t-198 -29q-189 0 -324 72.5t-135 230.5t150.5 216.5t340.5 58.5q48 -1 157 -2q109 -2 228 -2q106 0 248 8l137 8v0q237 0 387 -115t150 -356v-1262zM1511 627v905q0 352 -434 352q-418 0 -418 -151q0 -57 51.5 -84t116.5 -27
q62 0 211 22.5t183 22.5q192 0 192 -106q0 -67 -40 -102t-132 -87l-184 -90q-381 -194 -381 -467q0 -139 122 -217t267 -78q82 0 156 25l114 41q27 9 176 41zM1135 2695q90 -117 283 -205l217 -90q151 -59 151 -147q0 -34 -26 -58t-60 -24q-23 0 -58.5 15.5t-102.5 50.5
t-113 57q-228 107 -291 180q-73 -73 -295 -180q-28 -14 -100 -52.5t-109 -54.5t-65 -16q-32 0 -59 24.5t-27 57.5q0 90 155 147l213 90q195 85 287 205z" />
    <glyph glyph-name="adieresis" unicode="&#xe4;" horiz-adv-x="2269" 
d="M2003 319q22 -18 74 -53q106 -76 106 -114q0 -52 -82 -87.5t-185.5 -54t-150.5 -18.5q-116 0 -267.5 30.5t-248.5 30.5q-30 0 -200 -20.5t-242 -20.5q-307 0 -488 148q-92 74 -148 183.5t-56 221.5q0 206 139.5 394.5t429.5 310.5l184 78q59 19 134 58t75 77
q0 14 -20 25.5t-37 11.5q-19 0 -158 -29t-198 -29q-189 0 -324 72.5t-135 230.5t150.5 216.5t340.5 58.5q48 -1 157 -2q109 -2 228 -2q106 0 248 8l137 8v0q237 0 387 -115t150 -356v-1262zM1511 627v905q0 352 -434 352q-418 0 -418 -151q0 -57 51.5 -84t116.5 -27
q62 0 211 22.5t183 22.5q192 0 192 -106q0 -67 -40 -102t-132 -87l-184 -90q-381 -194 -381 -467q0 -139 122 -217t267 -78q82 0 156 25l114 41q27 9 176 41zM1541 2576q282 0 282 -163q0 -104 -84 -146.5t-198 -42.5q-113 0 -196 43.5t-83 145.5q0 163 279 163zM721 2576
q283 0 283 -163q0 -189 -283 -189q-114 0 -196 43.5t-82 145.5q0 163 278 163z" />
    <glyph glyph-name="atilde" unicode="&#xe3;" horiz-adv-x="2269" 
d="M2003 319q22 -18 74 -53q106 -76 106 -114q0 -52 -82 -87.5t-185.5 -54t-150.5 -18.5q-116 0 -267.5 30.5t-248.5 30.5q-30 0 -200 -20.5t-242 -20.5q-307 0 -488 148q-92 74 -148 183.5t-56 221.5q0 206 139.5 394.5t429.5 310.5l184 78q59 19 134 58t75 77
q0 14 -20 25.5t-37 11.5q-19 0 -158 -29t-198 -29q-189 0 -324 72.5t-135 230.5t150.5 216.5t340.5 58.5q48 -1 157 -2q109 -2 228 -2q106 0 248 8l137 8v0q237 0 387 -115t150 -356v-1262zM1511 627v905q0 352 -434 352q-418 0 -418 -151q0 -57 51.5 -84t116.5 -27
q62 0 211 22.5t183 22.5q192 0 192 -106q0 -67 -40 -102t-132 -87l-184 -90q-381 -194 -381 -467q0 -139 122 -217t267 -78q82 0 156 25l114 41q27 9 176 41zM1028 2617l287 -217q99 -69 147 -69q38 0 66 27.5t28 78.5q0 31 -12 86t-12 57q0 43 29 69t61 26q98 0 98 -140
q0 -145 -83 -250.5t-224 -105.5q-117 0 -254 107l-230 188q-68 53 -114 53q-90 0 -90 -119q0 -16 6 -51t6 -59q0 -51 -23.5 -83t-62.5 -32q-60 0 -81 35t-21 100q0 80 39 167.5t105.5 146.5t145.5 59q91 0 189 -74z" />
    <glyph glyph-name="aring" unicode="&#xe5;" horiz-adv-x="2269" 
d="M2003 319q22 -18 74 -53q106 -76 106 -114q0 -52 -82 -87.5t-185.5 -54t-150.5 -18.5q-116 0 -267.5 30.5t-248.5 30.5q-30 0 -200 -20.5t-242 -20.5q-307 0 -488 148q-92 74 -148 183.5t-56 221.5q0 206 139.5 394.5t429.5 310.5l184 78q59 19 134 58t75 77
q0 14 -20 25.5t-37 11.5q-19 0 -158 -29t-198 -29q-189 0 -324 72.5t-135 230.5t150.5 216.5t340.5 58.5q48 -1 157 -2q109 -2 228 -2q106 0 248 8l137 8v0q237 0 387 -115t150 -356v-1262zM1511 627v905q0 352 -434 352q-418 0 -418 -151q0 -57 51.5 -84t116.5 -27
q62 0 211 22.5t183 22.5q192 0 192 -106q0 -67 -40 -102t-132 -87l-184 -90q-381 -194 -381 -467q0 -139 122 -217t267 -78q82 0 156 25l114 41q27 9 176 41zM1130 2761q171 0 298.5 -59t127.5 -203q0 -279 -426 -279q-422 0 -422 262q0 279 422 279zM1130 2667
q-94 0 -167.5 -44.5t-73.5 -132.5q0 -90 72 -131t169 -41q100 0 173 41t73 131q0 88 -74.5 132.5t-171.5 44.5z" />
    <glyph glyph-name="ccedilla" unicode="&#xe7;" horiz-adv-x="1991" 
d="M913 -336l95 344q-108 -8 -131 -8q-186 0 -331 87.5t-240.5 232.5t-143 322t-47.5 353q0 312 114 551t337 370.5t540 131.5q151 0 308.5 -37.5t270.5 -131.5t113 -249q0 -132 -101 -232t-235 -100q-108 0 -159.5 27.5t-99 74t-81.5 46.5q-33 0 -49 -49q-61 50 -61 102
q0 58 49 100.5t102 42.5q36 0 90 -10t62 -10q49 0 49 53q0 60 -54 98.5t-130 56t-127 17.5q-207 0 -386.5 -153.5t-179.5 -485.5q0 -667 689 -667h106q368 0 430 147l37 74l29 29q4 -36 41 -78q102 -117 102 -262q0 -129 -63 -233.5t-171.5 -165t-232.5 -60.5
q-27 0 -132.5 9.5t-125.5 10.5l-41 -184q61 20 152 20q117 0 203.5 -84t86.5 -202q0 -108 -50 -186t-136 -118t-190 -40q-86 0 -240 53t-178 53q-44 0 -86 -37q-4 8 -4 25q0 88 66.5 146.5t154.5 58.5q33 0 141.5 -18.5t132.5 -18.5q61 0 104.5 29t43.5 81q0 69 -63 98
t-142 29q-95 0 -238 -53z" />
    <glyph glyph-name="eacute" unicode="&#xe9;" horiz-adv-x="2073" 
d="M1761 786q216 -81 221 -286q0 -142 -70.5 -259t-186.5 -183t-250 -66q-23 0 -154 12t-162 12q-23 0 -161 -10t-171 -10q-210 0 -373 128.5t-251 330t-88 405.5q0 181 34 354t111.5 330t198.5 266q209 185 577 185h426q98 0 207 -22t188.5 -80.5t79.5 -155.5
q0 -178 -168 -344q-66 -63 -138 -104t-226 -118l-135 -65q-241 -114 -385 -275q-69 -78 -90 -225q217 -98 426 -98q193 0 350.5 61t189.5 217zM623 725q52 187 163 303q103 103 238 180l205 115q125 71 181 120.5t56 145.5q0 121 -111.5 169t-269.5 48q-299 0 -417 -151
q-156 -188 -156 -508q0 -212 111 -422zM1761 2540l-626 -369q-70 -41 -99 -41q-31 0 -56.5 24.5t-25.5 53.5q0 70 91 119l340 180q22 11 109.5 67.5t139.5 91.5q88 50 115 50q33 0 53.5 -23.5t20.5 -58.5q0 -25 -19.5 -53.5t-42.5 -40.5z" />
    <glyph glyph-name="egrave" unicode="&#xe8;" horiz-adv-x="2073" 
d="M1761 786q216 -81 221 -286q0 -142 -70.5 -259t-186.5 -183t-250 -66q-23 0 -154 12t-162 12q-23 0 -161 -10t-171 -10q-210 0 -373 128.5t-251 330t-88 405.5q0 181 34 354t111.5 330t198.5 266q209 185 577 185h426q98 0 207 -22t188.5 -80.5t79.5 -155.5
q0 -178 -168 -344q-66 -63 -138 -104t-226 -118l-135 -65q-241 -114 -385 -275q-69 -78 -90 -225q217 -98 426 -98q193 0 350.5 61t189.5 217zM623 725q52 187 163 303q103 103 238 180l205 115q125 71 181 120.5t56 145.5q0 121 -111.5 169t-269.5 48q-299 0 -417 -151
q-156 -188 -156 -508q0 -212 111 -422zM537 2675l626 -369q23 -12 42.5 -40.5t19.5 -53.5q0 -35 -20.5 -58.5t-53.5 -23.5q-24 0 -115 49q-52 35 -137 91t-113 69l-339 180q-91 49 -91 119q0 29 25.5 53.5t56.5 24.5q25 0 99 -41z" />
    <glyph glyph-name="ecircumflex" unicode="&#xea;" horiz-adv-x="2072" 
d="M1761 786q216 -81 221 -286q0 -142 -70.5 -259t-186.5 -183t-250 -66q-23 0 -154 12t-162 12q-23 0 -161 -10t-171 -10q-210 0 -373 128.5t-251 330t-88 405.5q0 181 34 354t111.5 330t198.5 266q209 185 577 185h426q98 0 207 -22t188.5 -80.5t79.5 -155.5
q0 -178 -168 -344q-66 -63 -138 -104t-226 -118l-135 -65q-241 -114 -385 -275q-69 -78 -90 -225q217 -98 426 -98q193 0 350.5 61t189.5 217zM623 725q52 187 163 303q103 103 238 180l205 115q125 71 181 120.5t56 145.5q0 121 -111.5 169t-269.5 48q-299 0 -417 -151
q-156 -188 -156 -508q0 -212 111 -422zM1118 2695q90 -117 283 -205l217 -90q151 -59 151 -147q0 -34 -26 -58t-60 -24q-23 0 -58.5 15.5t-102.5 50.5t-113 57q-228 107 -291 180q-73 -73 -295 -180q-28 -14 -100 -52.5t-109 -54.5t-65 -16q-32 0 -59 24.5t-27 57.5
q0 90 155 147l213 90q195 85 287 205z" />
    <glyph glyph-name="edieresis" unicode="&#xeb;" horiz-adv-x="2073" 
d="M1761 786q216 -81 221 -286q0 -142 -70.5 -259t-186.5 -183t-250 -66q-23 0 -154 12t-162 12q-23 0 -161 -10t-171 -10q-210 0 -373 128.5t-251 330t-88 405.5q0 181 34 354t111.5 330t198.5 266q209 185 577 185h426q98 0 207 -22t188.5 -80.5t79.5 -155.5
q0 -178 -168 -344q-66 -63 -138 -104t-226 -118l-135 -65q-241 -114 -385 -275q-69 -78 -90 -225q217 -98 426 -98q193 0 350.5 61t189.5 217zM623 725q52 187 163 303q103 103 238 180l205 115q125 71 181 120.5t56 145.5q0 121 -111.5 169t-269.5 48q-299 0 -417 -151
q-156 -188 -156 -508q0 -212 111 -422zM1442 2576q282 0 282 -163q0 -104 -84 -146.5t-198 -42.5q-113 0 -196 43.5t-83 145.5q0 163 279 163zM622 2576q283 0 283 -163q0 -189 -283 -189q-114 0 -196 43.5t-82 145.5q0 163 278 163z" />
    <glyph glyph-name="iacute" unicode="&#xed;" horiz-adv-x="1056" 
d="M774 299q23 -11 57 -33q160 -84 173 -135q0 -38 -62 -70q-118 -69 -233 -69q-13 0 -88 10t-93 10q-17 0 -89 -10t-87 -10q-108 0 -233 69q-58 36 -58 70q12 50 172 135q38 24 58 33v1393q0 53 -25 73l-98 74q-53 34 -53 82q0 74 188 74h459q188 0 188 -74q0 -50 -57 -86
l-107 -82q-12 -16 -12 -61v-1393zM1097 2540l-626 -369q-70 -41 -99 -41q-31 0 -56.5 24.5t-25.5 53.5q0 70 91 119l340 180q22 11 109.5 67.5t139.5 91.5q88 50 115 50q33 0 53.5 -23.5t20.5 -58.5q0 -25 -19.5 -53.5t-42.5 -40.5z" />
    <glyph glyph-name="igrave" unicode="&#xec;" horiz-adv-x="1057" 
d="M774 299q23 -11 57 -33q160 -84 173 -135q0 -38 -62 -70q-118 -69 -233 -69q-13 0 -88 10t-93 10q-17 0 -89 -10t-87 -10q-108 0 -233 69q-58 36 -58 70q12 50 172 135q38 24 58 33v1393q0 53 -25 73l-98 74q-53 34 -53 82q0 74 188 74h459q188 0 188 -74q0 -50 -57 -86
l-107 -82q-12 -16 -12 -61v-1393zM95 2675l626 -369q23 -12 42.5 -40.5t19.5 -53.5q0 -35 -20.5 -58.5t-53.5 -23.5q-24 0 -115 49q-52 35 -137 91t-113 69l-339 180q-91 49 -91 119q0 29 25.5 53.5t56.5 24.5q25 0 99 -41z" />
    <glyph glyph-name="icircumflex" unicode="&#xee;" horiz-adv-x="1057" 
d="M774 299q23 -11 57 -33q160 -84 173 -135q0 -38 -62 -70q-118 -69 -233 -69q-13 0 -88 10t-93 10q-17 0 -89 -10t-87 -10q-108 0 -233 69q-58 36 -58 70q12 50 172 135q38 24 58 33v1393q0 53 -25 73l-98 74q-53 34 -53 82q0 74 188 74h459q188 0 188 -74q0 -50 -57 -86
l-107 -82q-12 -16 -12 -61v-1393zM541 2695q90 -117 283 -205l217 -90q151 -59 151 -147q0 -34 -26 -58t-60 -24q-23 0 -58.5 15.5t-102.5 50.5t-113 57q-228 107 -291 180q-73 -73 -295 -180q-28 -14 -100 -52.5t-109 -54.5t-65 -16q-32 0 -59 24.5t-27 57.5q0 90 155 147
l213 90q195 85 287 205z" />
    <glyph glyph-name="idieresis" unicode="&#xef;" horiz-adv-x="1057" 
d="M774 299q23 -11 57 -33q160 -84 173 -135q0 -38 -62 -70q-118 -69 -233 -69q-13 0 -88 10t-93 10q-17 0 -89 -10t-87 -10q-108 0 -233 69q-58 36 -58 70q12 50 172 135q38 24 58 33v1393q0 53 -25 73l-98 74q-53 34 -53 82q0 74 188 74h459q188 0 188 -74q0 -50 -57 -86
l-107 -82q-12 -16 -12 -61v-1393zM947 2576q282 0 282 -163q0 -104 -84 -146.5t-198 -42.5q-113 0 -196 43.5t-83 145.5q0 163 279 163zM127 2576q283 0 283 -163q0 -189 -283 -189q-114 0 -196 43.5t-82 145.5q0 163 278 163z" />
    <glyph glyph-name="ntilde" unicode="&#xf1;" horiz-adv-x="2228" 
d="M778 1458v-1159q32 -22 53 -33q173 -90 173 -139q0 -37 -54 -70q-128 -65 -233 -65q-11 0 -86 10t-90 10q-16 0 -93 -10t-92 -10q-106 0 -229 65q-57 30 -57 70q0 25 29.5 51t76 51.5t66.5 36.5q27 13 53 33v1380q0 45 -28.5 76t-82 64.5t-76 54.5t-22.5 55q0 62 217 62
h483q185 0 185 -74q0 -44 -66 -92t-110 -72q-17 -21 -17 -61v-45q101 32 230 151q224 217 467 217q150 0 264 -62t174.5 -176.5t60.5 -269.5v-1208q11 -6 26.5 -16t31.5 -17q11 -6 41.5 -23t58.5 -35.5t48 -40.5t20 -40q0 -31 -58 -70q-121 -65 -225 -65q-13 0 -86 10
t-90 10t-97 -10t-92 -10q-102 0 -225 65q-57 31 -57 70q0 25 28.5 50.5t72 50.5t67.5 38q19 8 53 33v1053q0 270 -225 270q-93 0 -226 -61l-98 -45q-36 -17 -164 -58zM1008 2617l287 -217q99 -69 147 -69q38 0 66 27.5t28 78.5q0 31 -12 86t-12 57q0 43 29 69t61 26
q98 0 98 -140q0 -145 -83 -250.5t-224 -105.5q-117 0 -254 107l-230 188q-68 53 -114 53q-90 0 -90 -119q0 -16 6 -51t6 -59q0 -51 -23.5 -83t-62.5 -32q-60 0 -81 35t-21 100q0 80 39 167.5t105.5 146.5t145.5 59q91 0 189 -74z" />
    <glyph glyph-name="oacute" unicode="&#xf3;" horiz-adv-x="2130" 
d="M2015 1028q0 -166 -45.5 -346t-137 -337t-231.5 -255t-319 -98q-18 0 -108 10t-109 10q-16 0 -93 -6t-91 -6q-151 0 -296 87t-245 220q-106 141 -165.5 340.5t-59.5 380.5q0 312 99 549t308 368.5t527 131.5q463 0 716 -271q131 -138 190.5 -345t59.5 -433zM1585 1237
q0 312 -136 477.5t-396 165.5q-177 0 -291 -93t-165.5 -233.5t-51.5 -291.5q0 -288 133 -455.5t366 -167.5q189 0 311 91.5t176 228.5t54 278zM1626 2540l-626 -369q-70 -41 -99 -41q-31 0 -56.5 24.5t-25.5 53.5q0 70 91 119l340 180q22 11 109.5 67.5t139.5 91.5
q88 50 115 50q33 0 53.5 -23.5t20.5 -58.5q0 -25 -19.5 -53.5t-42.5 -40.5z" />
    <glyph glyph-name="ograve" unicode="&#xf2;" horiz-adv-x="2130" 
d="M2015 1028q0 -166 -45.5 -346t-137 -337t-231.5 -255t-319 -98q-18 0 -108 10t-109 10q-16 0 -93 -6t-91 -6q-151 0 -296 87t-245 220q-106 141 -165.5 340.5t-59.5 380.5q0 312 99 549t308 368.5t527 131.5q463 0 716 -271q131 -138 190.5 -345t59.5 -433zM1585 1237
q0 312 -136 477.5t-396 165.5q-177 0 -291 -93t-165.5 -233.5t-51.5 -291.5q0 -288 133 -455.5t366 -167.5q189 0 311 91.5t176 228.5t54 278zM623 2675l626 -369q23 -12 42.5 -40.5t19.5 -53.5q0 -35 -20.5 -58.5t-53.5 -23.5q-24 0 -115 49q-52 35 -137 91t-113 69
l-339 180q-91 49 -91 119q0 29 25.5 53.5t56.5 24.5q25 0 99 -41z" />
    <glyph glyph-name="ocircumflex" unicode="&#xf4;" horiz-adv-x="2130" 
d="M2015 1028q0 -166 -45.5 -346t-137 -337t-231.5 -255t-319 -98q-18 0 -108 10t-109 10q-16 0 -93 -6t-91 -6q-151 0 -296 87t-245 220q-106 141 -165.5 340.5t-59.5 380.5q0 312 99 549t308 368.5t527 131.5q463 0 716 -271q131 -138 190.5 -345t59.5 -433zM1585 1237
q0 312 -136 477.5t-396 165.5q-177 0 -291 -93t-165.5 -233.5t-51.5 -291.5q0 -288 133 -455.5t366 -167.5q189 0 311 91.5t176 228.5t54 278zM1065 2695q90 -117 283 -205l217 -90q151 -59 151 -147q0 -34 -26 -58t-60 -24q-23 0 -58.5 15.5t-102.5 50.5t-113 57
q-228 107 -291 180q-73 -73 -295 -180q-28 -14 -100 -52.5t-109 -54.5t-65 -16q-32 0 -59 24.5t-27 57.5q0 90 155 147l213 90q195 85 287 205z" />
    <glyph glyph-name="odieresis" unicode="&#xf6;" horiz-adv-x="2130" 
d="M2015 1028q0 -166 -45.5 -346t-137 -337t-231.5 -255t-319 -98q-18 0 -108 10t-109 10q-16 0 -93 -6t-91 -6q-151 0 -296 87t-245 220q-106 141 -165.5 340.5t-59.5 380.5q0 312 99 549t308 368.5t527 131.5q463 0 716 -271q131 -138 190.5 -345t59.5 -433zM1585 1237
q0 312 -136 477.5t-396 165.5q-177 0 -291 -93t-165.5 -233.5t-51.5 -291.5q0 -288 133 -455.5t366 -167.5q189 0 311 91.5t176 228.5t54 278zM1475 2576q282 0 282 -163q0 -104 -84 -146.5t-198 -42.5q-113 0 -196 43.5t-83 145.5q0 163 279 163zM655 2576q283 0 283 -163
q0 -189 -283 -189q-114 0 -196 43.5t-82 145.5q0 163 278 163z" />
    <glyph glyph-name="otilde" unicode="&#xf5;" horiz-adv-x="2130" 
d="M2015 1028q0 -166 -45.5 -346t-137 -337t-231.5 -255t-319 -98q-18 0 -108 10t-109 10q-16 0 -93 -6t-91 -6q-151 0 -296 87t-245 220q-106 141 -165.5 340.5t-59.5 380.5q0 312 99 549t308 368.5t527 131.5q463 0 716 -271q131 -138 190.5 -345t59.5 -433zM1585 1237
q0 312 -136 477.5t-396 165.5q-177 0 -291 -93t-165.5 -233.5t-51.5 -291.5q0 -288 133 -455.5t366 -167.5q189 0 311 91.5t176 228.5t54 278zM959 2617l287 -217q99 -69 147 -69q38 0 66 27.5t28 78.5q0 31 -12 86t-12 57q0 43 29 69t61 26q98 0 98 -140q0 -145 -83 -250.5
t-224 -105.5q-117 0 -254 107l-230 188q-68 53 -114 53q-90 0 -90 -119q0 -16 6 -51t6 -59q0 -51 -23.5 -83t-62.5 -32q-60 0 -81 35t-21 100q0 80 39 167.5t105.5 146.5t145.5 59q91 0 189 -74z" />
    <glyph glyph-name="uacute" unicode="&#xfa;" horiz-adv-x="2228" 
d="M1421 549v1171q0 20 -26.5 40t-81 52t-80 55.5t-25.5 53.5q0 74 217 74h480q213 0 213 -74q0 -34 -26.5 -58.5t-85 -56.5t-80 -47t-21.5 -39v-1388q0 -41 30 -72.5t89 -68.5t88.5 -63t29.5 -58q0 -70 -94 -70h-750q-110 0 -110 70q0 44 53 82l172 135q8 4 8 37v36
q-124 -37 -254 -147l-110 -90q-143 -123 -324 -123q-109 0 -207.5 54t-169.5 147q-90 121 -90 393v1139q0 13 -58 53t-90 69t-32 66q0 74 188 74h385q91 0 91 -90v-1151q0 -152 24 -217q62 -111 201 -111q94 0 155 29l123 49q60 22 168 45zM1663 2540l-626 -369
q-70 -41 -99 -41q-31 0 -56.5 24.5t-25.5 53.5q0 70 91 119l340 180q22 11 109.5 67.5t139.5 91.5q88 50 115 50q33 0 53.5 -23.5t20.5 -58.5q0 -25 -19.5 -53.5t-42.5 -40.5z" />
    <glyph glyph-name="ugrave" unicode="&#xf9;" horiz-adv-x="2228" 
d="M1421 549v1171q0 20 -26.5 40t-81 52t-80 55.5t-25.5 53.5q0 74 217 74h480q213 0 213 -74q0 -34 -26.5 -58.5t-85 -56.5t-80 -47t-21.5 -39v-1388q0 -41 30 -72.5t89 -68.5t88.5 -63t29.5 -58q0 -70 -94 -70h-750q-110 0 -110 70q0 44 53 82l172 135q8 4 8 37v36
q-124 -37 -254 -147l-110 -90q-143 -123 -324 -123q-109 0 -207.5 54t-169.5 147q-90 121 -90 393v1139q0 13 -58 53t-90 69t-32 66q0 74 188 74h385q91 0 91 -90v-1151q0 -152 24 -217q62 -111 201 -111q94 0 155 29l123 49q60 22 168 45zM656 2675l626 -369
q23 -12 42.5 -40.5t19.5 -53.5q0 -35 -20.5 -58.5t-53.5 -23.5q-24 0 -115 49q-52 35 -137 91t-113 69l-339 180q-91 49 -91 119q0 29 25.5 53.5t56.5 24.5q25 0 99 -41z" />
    <glyph glyph-name="ucircumflex" unicode="&#xfb;" horiz-adv-x="2228" 
d="M1421 549v1171q0 20 -26.5 40t-81 52t-80 55.5t-25.5 53.5q0 74 217 74h480q213 0 213 -74q0 -34 -26.5 -58.5t-85 -56.5t-80 -47t-21.5 -39v-1388q0 -41 30 -72.5t89 -68.5t88.5 -63t29.5 -58q0 -70 -94 -70h-750q-110 0 -110 70q0 44 53 82l172 135q8 4 8 37v36
q-124 -37 -254 -147l-110 -90q-143 -123 -324 -123q-109 0 -207.5 54t-169.5 147q-90 121 -90 393v1139q0 13 -58 53t-90 69t-32 66q0 74 188 74h385q91 0 91 -90v-1151q0 -152 24 -217q62 -111 201 -111q94 0 155 29l123 49q60 22 168 45zM1102 2695q90 -117 283 -205
l217 -90q151 -59 151 -147q0 -34 -26 -58t-60 -24q-23 0 -58.5 15.5t-102.5 50.5t-113 57q-228 107 -291 180q-73 -73 -295 -180q-28 -14 -100 -52.5t-109 -54.5t-65 -16q-32 0 -59 24.5t-27 57.5q0 90 155 147l213 90q195 85 287 205z" />
    <glyph glyph-name="udieresis" unicode="&#xfc;" horiz-adv-x="2228" 
d="M1421 549v1171q0 20 -26.5 40t-81 52t-80 55.5t-25.5 53.5q0 74 217 74h480q213 0 213 -74q0 -34 -26.5 -58.5t-85 -56.5t-80 -47t-21.5 -39v-1388q0 -41 30 -72.5t89 -68.5t88.5 -63t29.5 -58q0 -70 -94 -70h-750q-110 0 -110 70q0 44 53 82l172 135q8 4 8 37v36
q-124 -37 -254 -147l-110 -90q-143 -123 -324 -123q-109 0 -207.5 54t-169.5 147q-90 121 -90 393v1139q0 13 -58 53t-90 69t-32 66q0 74 188 74h385q91 0 91 -90v-1151q0 -152 24 -217q62 -111 201 -111q94 0 155 29l123 49q60 22 168 45zM1508 2576q282 0 282 -163
q0 -104 -84 -146.5t-198 -42.5q-113 0 -196 43.5t-83 145.5q0 163 279 163zM688 2576q283 0 283 -163q0 -189 -283 -189q-114 0 -196 43.5t-82 145.5q0 163 278 163z" />
    <glyph glyph-name="dagger" unicode="&#x2020;" horiz-adv-x="1462" 
d="M811 512v-475q0 -74 -70 -74q-69 0 -69 74v475q0 106 -41 483q-4 40 -41 198t-37 261q0 62 41 225.5t59.5 251.5t18.5 203q-87 -1 -130 -22t-139 -77.5t-145 -56.5q-75 0 -121 50.5t-112 175.5q66 125 111.5 175t121.5 50q47 0 82.5 -18t99.5 -58t113 -59.5t119 -20.5
q0 107 -28.5 159.5t-96.5 151t-68 156.5q0 67 47.5 104t214.5 126q156 -82 209.5 -125.5t53.5 -104.5q0 -51 -65 -145.5t-96.5 -154.5t-31.5 -167q86 1 132.5 23.5t139.5 77.5t142 55q76 0 122 -51.5t111 -173.5q-62 -117 -112 -171.5t-121 -54.5q-49 0 -142 55t-139.5 77.5
t-132.5 23.5q0 -115 18.5 -203t59.5 -251.5t41 -225.5q0 -110 -35.5 -252.5t-42.5 -206.5q-41 -359 -41 -483z" />
    <glyph glyph-name="degree" unicode="&#xb0;" horiz-adv-x="1503" 
d="M156 2179q0 155 82 289t218.5 211.5t293.5 77.5q156 0 292.5 -77.5t218.5 -211.5t82 -289q0 -158 -81 -293t-218 -214t-294 -79q-156 0 -294 79t-219 214t-81 293zM385 2175q0 -147 108.5 -253.5t256.5 -106.5q147 0 255.5 107t108.5 253q0 150 -108 255t-256 105
q-149 0 -257 -104.5t-108 -255.5z" />
    <glyph glyph-name="cent" unicode="&#xa2;" horiz-adv-x="2265" 
d="M1905 1130q147 -120 147 -303q0 -189 -64.5 -296.5t-186 -149t-314.5 -41.5q-75 0 -95 -19.5t-20 -95.5v-82q0 -70 -22.5 -100.5t-92.5 -30.5h-131q-70 0 -94 19.5t-24 87.5v168q0 43 -66 57q-296 67 -455 242q-136 157 -203 372.5t-67 442.5q0 345 165.5 623.5
t477.5 383.5q91 29 119.5 49.5t28.5 90.5v82q0 59 22.5 82.5t79.5 23.5h160q102 0 102 -82v-90q0 -50 16 -76t62 -39l74 -16q105 -22 198.5 -79.5t152 -145t58.5 -193.5q0 -143 -96.5 -229t-226.5 -86q-91 0 -133.5 23.5t-108 73.5t-106.5 50q-40 0 -78 -32q-37 59 -37 110
q0 45 38 86t89 41q27 0 84 -10t80 -10q69 0 69 57q0 98 -104.5 137t-218.5 39q-191 0 -330 -92.5t-210 -249.5t-71 -350q0 -364 199.5 -520t501.5 -156q266 0 397 21q99 20 151.5 68t82.5 144z" />
    <glyph glyph-name="sterling" unicode="&#xa3;" horiz-adv-x="2265" 
d="M500 1610q-34 74 -41 86l-107 200q-86 174 -86 299q0 117 66.5 227.5t171.5 174.5q162 99 304.5 129.5t358.5 30.5q230 0 437.5 -75t335.5 -215.5t128 -324.5q0 -159 -104 -276t-256 -117q-183 0 -256.5 67t-129 176t-110.5 109q-30 0 -57 -20q25 110 102 110
q23 0 125 -26.5t121 -26.5q58 0 123.5 44.5t65.5 127.5q0 133 -123 206t-271 73q-276 0 -385.5 -143.5t-109.5 -319.5q0 -185 37 -516q-111 12 -156 12q-67 0 -184 -12zM815 1315q-11 -131 -59 -231.5t-146 -247.5q-12 -21 -38.5 -63t-39 -72.5t-12.5 -61.5q0 -135 213 -135
q51 0 137 10t179 10q90 0 254.5 -22.5t166.5 -22.5q189 0 189 156q0 129 -90.5 261t-208.5 230q-159 141 -318 202t-358 61q-336 0 -336 -140q0 -49 25 -98q-49 -16 -103 -16q-51 0 -84.5 46t-33.5 97q0 126 151 206.5t352 80.5q241 0 504 -107q402 -172 668 -614l213 -352
q127 -212 127 -324q0 -106 -100 -157.5t-224 -51.5q-189 0 -427.5 24.5t-305.5 24.5q-109 0 -318 -20.5t-231 -20.5q-142 0 -275.5 61t-133.5 169q0 62 32 110q203 396 262 594q62 203 86 414q58 16 136 16q82 0 147 -16z" />
    <glyph glyph-name="section" unicode="&#xa7;" 
d="M1610 393q139 -113 221 -241t82 -299q0 -144 -75.5 -270t-206 -200.5t-283.5 -74.5q-61 0 -160 -4t-164 -4q-73 0 -153 -2q-80 -3 -121 -3q-139 0 -258 37q-168 51 -262.5 164.5t-94.5 278.5q0 156 63 282.5t203 126.5q40 0 65 -17t61.5 -55.5t53.5 -50.5t46 -12
q36 0 65 25q8 -26 8 -33q0 -87 -122 -147q-111 -62 -111 -164q0 -226 483 -226q280 0 435 50.5t155 228.5q0 224 -455 442l-458 234q-553 273 -553 676q0 165 46.5 290t110.5 203.5t141.5 135.5t102.5 75q-323 267 -323 541q0 162 86.5 239.5t210 97t305.5 19.5h471h192
q170 0 324 -33q192 -37 192 -155q0 -59 -45.5 -100.5t-134.5 -92.5t-132.5 -87t-43.5 -89q0 -47 33 -111q-51 -12 -70 -12q-76 0 -130 43.5t-54 116.5q0 63 49 134t49 104q0 53 -53 66.5t-135 19.5q-166 12 -340 12q-122 0 -254 -21q-44 -10 -79.5 -43.5t-35.5 -74.5
q0 -68 50.5 -134t124 -121t164 -106.5t136.5 -77.5l369 -196q273 -145 433.5 -320.5t160.5 -421.5q0 -198 -99 -342.5t-286 -300.5zM623 1720q-201 -177 -201 -352q0 -193 127 -332q54 -62 344 -221l557 -307q188 188 188 356q0 182 -118 295t-332 238z" />
    <glyph glyph-name="bullet" unicode="&#x2022;" horiz-adv-x="2732" 
d="M1368 1962q153 0 281.5 -78.5t204 -210.5t75.5 -280q0 -150 -75.5 -283.5t-204 -212t-281.5 -78.5q-151 0 -281.5 77.5t-207 210t-76.5 286.5q0 153 76.5 284t206 208t282.5 77z" />
    <glyph glyph-name="paragraph" unicode="&#xb6;" horiz-adv-x="2265" 
d="M1102 1921q32 -40 49 -53q131 -118 131 -266q0 -131 -79 -247t-206.5 -184.5t-259.5 -68.5q-231 0 -392 121.5t-240.5 325t-79.5 450.5q0 143 61 280t175 242t259 154q164 55 334.5 68.5t427.5 13.5h373q729 0 729 -127q0 -40 -96 -108.5t-166 -104.5q-56 -32 -73 -62.5
t-17 -97.5v-2503q0 -92 24 -106l271 -180q69 -49 69 -86q0 -59 -103.5 -95.5t-178.5 -36.5q-31 0 -164.5 14.5t-311.5 14.5q-61 0 -467 -29q-82 0 -190.5 31.5t-108.5 95.5q0 47 95 107l184 123q56 38 73 72.5t17 103.5v1556q107 119 107 291q0 103 -107 242v512
q0 106 -45 135q-57 37 -209 37q-263 0 -406 -197.5t-143 -486.5q0 -152 43.5 -281t157.5 -129q145 0 160 185q16 155 131 172l69 8q55 9 103 94zM1745 -319v2715q0 61 -27.5 104.5t-87.5 43.5q-102 0 -102 -160v-2687q0 -160 102 -160q115 0 115 144z" />
    <glyph glyph-name="germandbls" unicode="&#xdf;" horiz-adv-x="2433" 
d="M1069 840q13 3 57 20q46 33 103 33q74 0 139.5 -59t65.5 -134q0 -23 -6.5 -58.5t-6.5 -51.5q0 -58 62 -58q5 0 53.5 6.5t81.5 6.5q13 0 61 -4t58 -4q131 0 131 208q0 159 -117.5 294t-365.5 314t-323 241.5t-75 146.5q0 78 57.5 148.5t169.5 171t172 179t60 168.5
q0 144 -275 144h-356l-217 -17q-19 -1 -60.5 -5t-70.5 -18.5t-29 -45.5q0 -95 295 -131l213 -33q66 -7 66 -66q0 -52 -49 -82l-37 -24q-103 -62 -103 -270v-1737q0 -57 -34 -90t-93 -33q-8 0 -72.5 12.5t-107.5 12.5q-11 0 -71 -12.5t-93 -12.5q-108 0 -221 70
q-78 37 -78 77t108.5 87.5t182.5 64.5v1741q0 116 -26 172t-113 110l-164 111q-90 55 -90 127q0 90 172 123q359 57 782 57q449 0 824 -45q217 -34 217 -155q0 -125 -109.5 -222t-354.5 -280.5t-245 -247.5q0 -60 94 -102l144 -70q235 -114 441.5 -266.5t345 -357
t138.5 -441.5q0 -181 -110.5 -371t-343.5 -190q-27 0 -175 18.5t-198 18.5q-32 0 -174.5 -18.5t-173.5 -18.5q-127 0 -221.5 80.5t-94.5 206.5q0 82 31.5 139.5t95.5 124t87.5 99t23.5 83.5q0 26 -29 53l-33 33q-6 6 -16 29z" />
    <glyph glyph-name="registered" unicode="&#xae;" horiz-adv-x="3076" 
d="M1540 2769q378 0 702 -189.5t513.5 -513.5t189.5 -702q0 -376 -189 -700t-513 -514.5t-703 -190.5q-377 0 -701 190t-514 514t-190 701q0 378 189.5 702t513.5 513.5t702 189.5zM1540 2568q-323 0 -601 -161.5t-440.5 -440t-162.5 -602.5t162.5 -602.5t440.5 -440
t601 -161.5t601.5 162t440.5 440.5t162 601.5t-162 601.5t-440.5 440.5t-601.5 162zM1700 1659l57 -33q8 -5 63 -28.5t89 -36.5q96 -37 119 -148q24 -134 61 -343t37 -210q8 -56 41 -65l57 -29q30 -12 76.5 -45.5t46.5 -56.5q0 -27 -52.5 -46.5t-86.5 -19.5q-9 0 -71 6
t-77 6q-18 0 -80 -6t-71 -6q-70 0 -70 82l-8 78q-27 463 -160 663q-48 71 -111 108t-204 109l-176 86l-176 99q-130 69 -201 135q-49 39 -49 94q0 102 184 102h848q287 0 287 -155q0 -109 -118.5 -197t-254.5 -143zM1319 1630v-700q0 -74 13 -100.5t69 -59.5q31 -12 73 -44
t42 -58q0 -34 -55 -52t-101 -18q-28 0 -93 8t-79 8q-15 0 -78 -8t-94 -8q-48 0 -116.5 19t-68.5 55t123 98q55 30 77 55.5t22 75.5v864q105 -65 266 -135zM1319 1794q-132 57 -266 148v28q0 26 -15.5 44t-42.5 18q-15 0 -32 -10.5t-17 -26.5q0 -42 258 -185
q202 -110 340 -110q115 0 217 110q62 70 62 136q0 98 -275 98q-110 0 -164 -12q-44 -14 -54.5 -41.5t-10.5 -81.5v-115z" />
    <glyph glyph-name="copyright" unicode="&#xa9;" horiz-adv-x="3076" 
d="M1540 2769q378 0 702 -189.5t513.5 -513.5t189.5 -702q0 -376 -189 -700t-513 -514.5t-703 -190.5q-377 0 -701 190t-514 514t-190 701q0 378 189.5 702t513.5 513.5t702 189.5zM1540 2568q-323 0 -601 -161.5t-440.5 -440t-162.5 -602.5t162.5 -602.5t440.5 -440
t601 -161.5t601.5 162t440.5 440.5t162 601.5t-162 601.5t-440.5 440.5t-601.5 162zM2048 1102q106 -38 106 -139q0 -181 -144 -277t-376 -96q-199 0 -377.5 76t-291.5 241t-113 416q0 218 77.5 410.5t242 315t405.5 122.5q188 0 342 -91t154 -261q0 -119 -85 -205t-202 -86
q-105 0 -187 56.5t-104 152.5l-16 69q-19 45 -45 45q-21 0 -21 -16q0 -33 8 -49q-35 -21 -65 -21q-33 0 -57.5 27.5t-24.5 62.5q0 39 38 69t81 30q81 0 143 -62l37 -32q52 -54 90 -54q43 0 81 31t38 72q0 82 -77 125t-169 43q-123 0 -232 -65.5t-176 -190t-67 -289.5
q0 -168 74 -316t209.5 -235.5t310.5 -87.5q244 0 352 123q26 25 41 86z" />
    <glyph glyph-name="trademark" unicode="&#x2122;" horiz-adv-x="3920" 
d="M995 2535v-1069q0 -62 66 -102l102 -61q59 -36 62 -58q0 -39 -75 -58.5t-130 -19.5q-36 0 -92 8.5t-72 8.5q-17 0 -85.5 -8.5t-102.5 -8.5q-51 0 -118 19.5t-67 58.5q6 24 41 45l103 66q73 36 73 102v1090q0 40 -14.5 52.5t-58.5 12.5h-152q-65 0 -65 -28q0 -13 8 -45
l65 -136q41 -72 41 -139q0 -39 -29.5 -75t-76.5 -36q-34 0 -60 23.5t-26 54.5q0 37 32.5 61.5t32.5 33.5q0 34 -41 53l-196 143q-107 92 -107 131q0 78 209 78h1163q185 0 185 -74q0 -45 -78 -123l-168 -176q-21 -21 -21 -32q0 -15 31 -39t31 -60q0 -29 -26.5 -49t-63.5 -20
q-44 0 -73.5 30.5t-29.5 71.5q0 34 25 111l57 159q0 82 -73 82l-172 4q-36 0 -45 -18t-9 -64zM2879 2195v-770q0 -25 22 -47.5t67 -55.5t66.5 -51.5t21.5 -37.5q0 -29 -48 -45.5t-83 -16.5q-17 0 -90.5 12.5t-90.5 12.5q-44 0 -114.5 -12.5t-89.5 -12.5q-34 0 -83 19t-49 47
q0 21 16.5 35.5t68 50t74 61t22.5 62.5v762q80 -13 147 -13h143zM3236 2253q-164 -29 -500 -29q-253 0 -541 82l37 74q229 -70 500 -70q320 0 475 25zM3539 2433q115 46 115 119q0 45 -99 45q-90 0 -90 -45q0 -8 20.5 -64.5t28.5 -83.5l78 -290q33 -141 53 -320
q25 -156 25 -315q0 -197 -20 -254q-25 -54 -99 -54q-6 0 -54.5 8.5t-64.5 8.5q-14 0 -80.5 -8.5t-95.5 -8.5q-35 0 -87 17.5t-52 44.5q0 29 152 127q48 29 67 46.5t27 59.5q12 58 12 168q0 259 -90 566q-44 157 -107.5 275t-183.5 118q-115 0 -115 -209v-49q-94 0 -290 8v37
q0 217 -152 217q-116 0 -213 -168q-95 -180 -143 -356q-53 -210 -53 -353t36 -237q28 -68 115 -119l127 -90q37 -25 37 -41q0 -32 -51.5 -47t-91.5 -15q-31 0 -76 6.5t-60 6.5q-7 0 -50 -4t-64 -4q-70 0 -90 61q-25 70 -25 229q0 178 35 360.5t98 356t150 344.5q2 7 13 25
t11 24q0 21 -78 21q-90 0 -90 -49q0 -39 78 -86l-45 -99q-144 65 -215.5 112t-71.5 130q0 127 222 127l303 -4h532h578q110 4 331 4q67 0 122 -27t55 -79q0 -160 -291 -295z" />
    <glyph glyph-name="acute" unicode="&#xb4;" 
d="M1593 2540l-626 -369q-70 -41 -99 -41q-31 0 -56.5 24.5t-25.5 53.5q0 70 91 119l340 180q22 11 109.5 67.5t139.5 91.5q88 50 115 50q33 0 53.5 -23.5t20.5 -58.5q0 -25 -19.5 -53.5t-42.5 -40.5z" />
    <glyph glyph-name="dieresis" unicode="&#xa8;" 
d="M1430 2576q282 0 282 -163q0 -104 -84 -146.5t-198 -42.5q-113 0 -196 43.5t-83 145.5q0 163 279 163zM610 2576q283 0 283 -163q0 -189 -283 -189q-114 0 -196 43.5t-82 145.5q0 163 278 163z" />
    <glyph glyph-name="AE" unicode="&#xc6;" horiz-adv-x="3781" 
d="M3531 713q99 -50 162 -131t63 -185q0 -179 -143 -303q-65 -57 -149.5 -73.5t-215.5 -16.5q-92 0 -352 11q-261 10 -328 10q-84 0 -350 -10q-267 -11 -289 -11q-137 0 -285.5 46t-148.5 118q0 44 86 86l164 106q83 52 103 115.5t20 192.5v770l-549 327l-401 254
q-195 127 -296.5 228t-101.5 252q0 127 111 196q57 37 205 37h2297q224 0 360 -25t136 -102q0 -104 -194 -247.5t-379 -243.5l-398 -218q-20 -12 -57 -35t-61.5 -45t-24.5 -42q0 -37 29 -37q9 0 153 49t248 49q146 0 255.5 -68t109.5 -211q0 -83 -33 -122t-115 -66
q4 12 4 41q0 53 -74 53q-72 0 -269 -53t-259 -53q-111 0 -211 65.5t-100 171.5q0 138 160 275l417 332q32 24 85.5 65t90.5 83.5t37 76.5q0 115 -225 115h-98q-141 0 -203.5 -7.5t-99 -40.5t-49.5 -107.5t-13 -225.5v-271q-155 -145 -155 -274q0 -156 155 -254v-455
q0 -183 58 -254q111 -139 507 -139h222q190 0 282 48t107 153zM1311 1696l-537 -1295q-16 -39 -20 -65q0 -43 69 -78q40 -17 102.5 -69t65.5 -83q0 -33 -61 -57q-92 -57 -217 -57q-21 0 -125 10t-125 10q-27 0 -128 -10t-114 -10q-55 0 -150.5 35t-95.5 79q5 75 238 185
q38 16 66 78l659 1560q202 -135 373 -233zM1868 1614v553q0 80 -41 154.5t-119 74.5q-60 0 -89.5 -42t-74.5 -134l-123 -254l-192 139q-78 53 -164 160q14 36 35.5 96t21.5 88q0 103 -86 103q-38 0 -66 -43.5t-28 -87.5q0 -151 184 -312q140 -117 324 -233z" />
    <glyph glyph-name="Oslash" unicode="&#xd8;" horiz-adv-x="4096" 
d="M2019 2445q76 -79 152.5 -196t140.5 -341.5t64 -551.5q0 -349 -84.5 -666t-284.5 -514q-201 -192 -434 -192q-17 0 -139 20.5t-144 20.5q-27 0 -155.5 -18.5t-139.5 -18.5q-237 0 -467 245l-147 -221q-41 -55 -78 -73q-22 -9 -29 -9q-32 0 -59 28t-27 62q12 51 50 103
l180 270q-238 413 -238 946q0 579 234 942q87 141 219 247.5t291.5 165.5t324.5 59q375 0 631 -185l123 180q38 63 82 82q18 9 33 9q33 0 61.5 -22.5t28.5 -55.5q0 -38 -45 -103zM1847 2191l-995 -1478q187 -148 438 -148q229 0 385 118t231.5 315.5t75.5 435.5
q0 474 -135 757zM729 856l1008 1495q-191 209 -488 209q-151 0 -290 -71.5t-226 -194.5q-89 -124 -134.5 -320t-45.5 -405q0 -299 50.5 -448t125.5 -265z" />
    <glyph glyph-name="plusminus" unicode="&#xb1;" horiz-adv-x="2265" 
d="M946 1581v418q0 153 31.5 242.5t152.5 89.5q125 0 157 -89.5t32 -242.5v-418h463q151 0 241.5 -31t90.5 -149q0 -121 -90.5 -152.5t-241.5 -31.5h-463v-431q0 -237 -189 -237q-121 0 -152.5 89.5t-31.5 242.5v336h-463q-150 0 -240.5 31.5t-90.5 152.5q0 94 67.5 137
t169.5 43h557zM389 365h1393q151 0 241.5 -30.5t90.5 -150.5q0 -121 -90.5 -152.5t-241.5 -31.5h-1299q-150 0 -240.5 31.5t-90.5 152.5q0 94 67.5 137.5t169.5 43.5z" />
    <glyph glyph-name="yen" unicode="&#xa5;" horiz-adv-x="2707" 
d="M2449 1122h-733v-606q0 -47 10 -75.5t28.5 -46.5t53 -37t76.5 -42q49 -27 72 -39.5t62.5 -38.5t67.5 -54.5t28 -51.5q0 -59 -115 -95t-189 -36q-22 0 -138 14.5t-152 14.5q-29 0 -146.5 -17.5t-144.5 -19.5q-103 0 -238 57q-48 21 -71 34.5t-23 39.5q0 42 107.5 114
t179.5 111q73 55 73 205v569h-831q-41 0 -76 19t-35 55q0 35 34.5 54.5t72.5 19.5h717l-238 311h-471q-41 0 -76 19t-35 55q0 35 34.5 54.5t72.5 19.5h360l-274 356q-23 32 -53.5 47t-73 27.5t-58.5 24t-16 36.5q0 50 49 66l488 176q9 4 50.5 17.5t73.5 30t32 30.5
q0 24 -107 24l-344 -8q-181 -10 -217 -82v-57l16 -29q3 -6 6.5 -15t6.5 -18q-30 12 -127 21q-99 7 -183 61t-84 143q0 152 262 152h918q328 0 328 -86q0 -44 -38.5 -69t-121.5 -62l-266 -115q-70 -25 -70 -78q0 -62 135 -237l500 -623q57 45 194 183.5t258 320t121 332.5
q0 62 -33 109t-94 47q-40 0 -201 -36t-196 -42q-89 -18 -237 -52t-218 -51q-8 -1 -22 -4t-28.5 -5.5t-22.5 -2.5q-70 0 -70 49q0 26 37.5 39.5t118.5 34.5q219 63 651 221l127 49q227 86 360 86q96 0 177 -44.5t81 -131.5q0 -227 -323 -631q-84 -102 -180 -204h336
q43 0 82.5 -14.5t39.5 -47.5q0 -41 -40 -63.5t-82 -22.5h-480q-108 -114 -258 -250v-61h733q123 0 123 -62q0 -42 -40.5 -64t-82.5 -22z" />
    <glyph glyph-name="mu" unicode="&#xb5;" horiz-adv-x="2228" 
d="M221 -520q0 35 12.5 249t22.5 436t10 429v1139q0 13 -58 53t-90 69t-32 66q0 74 188 74h385q91 0 91 -90v-1151q0 -152 24 -217q62 -111 201 -111q94 0 155 29l123 49q60 22 168 45v1171q0 20 -26.5 40t-81 52t-80 55.5t-25.5 53.5q0 74 217 74h480q213 0 213 -74
q0 -34 -26.5 -58.5t-85 -56.5t-80 -47t-21.5 -39v-1388q0 -41 30 -72.5t89 -68.5t88.5 -63t29.5 -58q0 -70 -94 -70h-750q-110 0 -110 70q0 44 53 82l172 135q8 4 8 37v36q-124 -37 -254 -147l-110 -90q-143 -123 -324 -123q-66 0 -115 16q13 -73 39 -182t41 -190t15 -164
q0 -94 -68 -153.5t-190 -59.5q-102 0 -168 61t-66 152z" />
    <glyph glyph-name="ordfeminine" unicode="&#xaa;" 
d="M561 1360h942q115 0 115 -98q0 -82 -107 -82h-958q-102 0 -102 110q0 70 110 70zM1511 1741q14 -9 21.5 -15t19.5 -14q58 -41 58 -61q0 -36 -87.5 -59t-138.5 -23q-63 0 -144.5 16.5t-137.5 16.5q-19 0 -109 -10.5t-129 -10.5q-172 0 -266 74q-111 89 -111 213
q0 244 312 368l98 41q27 12 71 43.5t44 51.5t-33 20q-10 0 -83.5 -26.5t-109.5 -26.5q-97 0 -173 49t-76 131q0 147 266 147q27 -1 86 -2q58 -2 123 -2q59 0 128.5 4.5t80.5 4.5q129 0 209.5 -60.5t80.5 -185.5v-684zM1245 1901v499q0 185 -233 185q-230 0 -230 -82
q0 -58 95 -58q32 0 112 12.5t101 12.5q102 0 102 -57q0 -77 -94 -123l-99 -45q-204 -104 -204 -246q0 -73 63.5 -114.5t145.5 -41.5q48 0 86 17l61 20q15 4 40 9t54 12z" />
    <glyph glyph-name="ordmasculine" unicode="&#xba;" 
d="M561 1360h942q115 0 115 -98q0 -82 -107 -82h-958q-102 0 -102 110q0 70 110 70zM1565 2122q0 -117 -44.5 -245t-133.5 -214t-216 -86q-9 0 -58 6t-60 6q-9 0 -50 -4t-49 -4q-80 0 -158.5 45.5t-131.5 114.5q-123 155 -123 381q0 251 124.5 400t378.5 149q251 0 390 -144
q131 -136 131 -405zM1335 2228q0 165 -73 252.5t-213 87.5t-207.5 -100t-67.5 -223q0 -151 71.5 -239.5t198.5 -88.5q149 0 220 96t71 215z" />
    <glyph glyph-name="ae" unicode="&#xe6;" horiz-adv-x="4096" 
d="M3228 786q225 -95 225 -303q0 -242 -197 -393q-87 -65 -146 -81.5t-165 -16.5q-63 0 -142.5 7.5t-119.5 12.5q-432 33 -836 33q-446 0 -729 -25q-41 -7 -129.5 -17.5t-177.5 -10.5q-172 0 -326.5 60.5t-252 182t-97.5 293.5q0 466 598 709l193 78q168 54 168 119
q0 12 -20 24t-34 12q-13 0 -157.5 -26.5t-231.5 -26.5q-160 0 -293 71t-133 220q0 97 73.5 163.5t176.5 90.5q86 20 258 20q76 0 197 -2t155 -2q39 0 177 7q137 6 172 6q233 0 364 -62q51 -21 135 -114q128 108 267 147q147 37 454 37h172q263 0 385 -41q185 -62 185 -221
q0 -174 -144 -311.5t-340 -229.5l-164 -78q-219 -110 -344 -233q-114 -109 -139 -287q223 -98 438 -98q292 0 435 123q60 55 90 163zM2093 717q29 117 70 188q121 191 352 320l197 110q116 66 168.5 113t52.5 137q0 126 -108 180t-257 54q-137 0 -272.5 -46t-202.5 -139
q-98 -138 -98 -409q0 -250 24 -369q11 -41 74 -139zM1524 586v864q0 221 -107 299t-340 78q-401 0 -401 -144q0 -114 180 -114q41 0 215.5 24.5t194.5 24.5q53 0 108.5 -28.5t55.5 -73.5q0 -97 -152 -177l-242 -122q-157 -82 -250.5 -187.5t-93.5 -275.5
q0 -131 130.5 -196.5t267.5 -65.5q85 0 159 24l119 37q85 28 156 33z" />
    <glyph glyph-name="oslash" unicode="&#xf8;" horiz-adv-x="2126" 
d="M1642 1913q171 -148 246 -295q123 -233 123 -496q0 -313 -92 -581.5t-309 -421.5q-187 -127 -373 -127q-22 0 -99 8t-85 8q-13 0 -107 -8t-123 -8q-204 0 -377 164l-106 -156q-32 -49 -74 -66q-98 0 -98 70q5 51 41 98l119 185q-213 327 -213 831q0 216 85.5 423.5
t241.5 334.5q236 197 631 197q178 0 422 -86l90 139q44 65 82 94q18 12 37 12q32 0 53 -26.5t21 -71.5q-4 -12 -14 -32t-21 -37.5t-19 -32.5zM1475 1659l-660 -967q122 -61 229 -61q272 0 398 160q135 171 135 421q0 292 -102 447zM688 807l664 975q-160 94 -287 94
q-251 0 -389.5 -170.5t-138.5 -456.5q0 -244 151 -442z" />
    <glyph glyph-name="questiondown" unicode="&#xbf;" horiz-adv-x="1876" 
d="M1016 1651q-103 0 -180.5 51.5t-77.5 144.5q0 109 74.5 169.5t183.5 60.5t183.5 -60.5t74.5 -169.5q0 -93 -77.5 -144.5t-180.5 -51.5zM750 1077q12 37 12 66q0 19 -28 72t-43 88t-15 77q0 70 90 70h401q64 0 108 -30t44 -81q0 -111 -64 -249.5t-149 -245.5l-201 -246
q-274 -315 -274 -578q0 -196 103.5 -349.5t293.5 -153.5q135 0 227.5 104t92.5 240q0 82 -47 151.5t-121 69.5q-35 0 -54 -20t-45.5 -62t-50 -62t-67.5 -20q-70 0 -132 62q58 24 58 65q0 13 -8.5 60.5t-8.5 82.5q0 119 109 193t231 74q132 0 255 -62t200.5 -174.5
t77.5 -255.5q0 -183 -88 -327.5t-258 -226t-404 -81.5q-239 0 -433.5 77.5t-308.5 229t-114 361.5q0 269 172 467q109 123 277 228.5t288.5 184t188.5 193.5q61 126 61 197q-11 28 -49 28h-114q-62 0 -62 -16q0 -21 20.5 -60t20.5 -59q0 -42 -31.5 -68t-79.5 -26q-8 0 -43 6
t-38 6z" />
    <glyph glyph-name="exclamdown" unicode="&#xa1;" horiz-adv-x="1200" 
d="M860 1389l4 -1758q0 -35 21.5 -58.5t65 -56t68.5 -58t25 -56.5q0 -74 -184 -74h-459q-188 0 -188 74q0 33 20 53t65.5 50.5t70 58.5t24.5 67v1528q0 48 -28.5 76t-86 60.5t-82 55t-24.5 62.5q0 39 50 50.5t163 11.5h397q45 0 61.5 -17.5t16.5 -68.5zM614 1651
q-102 0 -180 51.5t-78 144.5q0 111 74.5 170.5t183.5 59.5q110 0 184 -60t74 -170q0 -93 -77.5 -144.5t-180.5 -51.5z" />
    <glyph glyph-name="logicalnot" unicode="&#xac;" 
d="M1434 0v647h-1299v447h1774v-1094h-475z" />
    <glyph glyph-name="florin" unicode="&#x192;" horiz-adv-x="2265" 
d="M1184 1491l20 213q8 57 8 180q-5 119 -98 283q-60 115 -83 173.5t-23 137.5q0 144 108 234t240 90q68 0 135 -16t181 -51t163 -47.5t107 -12.5q109 0 204 90q0 -21 4 -29l25 -90q8 -45 8 -135q0 -105 -95.5 -190t-195.5 -85q-107 0 -267 45.5t-183 45.5q-119 0 -119 -74
q0 -38 22.5 -75.5t57.5 -72t63 -61.5q99 -97 131.5 -163.5t32.5 -192.5v-197h234q229 0 229 -119q0 -16 -30.5 -110.5t-30.5 -114.5q0 -39 45 -82q-80 -57 -135 -61q-142 0 -181 167q-8 82 -69 82q-88 0 -107 -155l-82 -549q-16 -125 -16 -283q6 -42 57 -229
q33 -114 33 -262q0 -243 -216.5 -359t-479.5 -116q-396 0 -594 163q-80 64 -132.5 156.5t-52.5 171.5q0 155 98 268t255 113q79 0 120.5 -19t115 -63.5t112.5 -44.5q20 0 57 37q33 -56 33 -98q0 -107 -188 -127q-250 -22 -250 -176q0 -129 127.5 -189.5t277.5 -60.5
q148 0 262.5 77.5t114.5 225.5q0 123 -82 221q-63 84 -91 141.5t-28 157.5q0 29 2 49t2 49l90 725q0 98 -39 144t-124 73q-15 5 -67.5 20t-88 32t-59 43t-23.5 65q0 75 74 135q16 -61 52 -79.5t112 -18.5h217z" />
    <glyph glyph-name="guillemotleft" unicode="&#xab;" horiz-adv-x="1343" 
d="M700 1229l291 487q21 33 40 61.5t43.5 49t51.5 20.5q32 0 55 -17.5t23 -47.5q0 -69 -41 -172l-164 -402q-20 -53 -20 -106q0 -52 20 -107l164 -401q41 -103 41 -172q0 -66 -78 -66q-27 0 -51.5 20.5t-43.5 49t-40 61.5l-291 488q-45 69 -45 127t45 127zM156 1229l290 487
q21 33 41 62t43 49t52 20q77 0 77 -65q0 -69 -41 -172l-163 -402q-21 -52 -21 -106t21 -107l163 -401q41 -103 41 -172q0 -66 -77 -66q-29 0 -52 20t-43 49t-41 62l-290 488q-45 67 -45 127t45 127z" />
    <glyph glyph-name="guillemotright" unicode="&#xbb;" horiz-adv-x="1343" 
d="M643 975l-291 -488q-14 -21 -34 -50.5t-30 -42.5t-29 -25.5t-42 -12.5q-78 0 -78 66q0 63 41 172l164 401q21 58 21 107q0 50 -21 106l-164 402q-41 109 -41 172q0 65 78 65q41 0 67 -33t68 -98l291 -487q45 -67 45 -127t-45 -127zM1188 975l-291 -488q-14 -21 -34 -50.5
t-31 -43t-29 -25.5t-41 -12q-78 0 -78 66q0 63 41 172l164 401q20 55 20 107q0 53 -20 106l-164 402q-41 109 -41 172q0 65 78 65q40 0 66.5 -33t68.5 -98l291 -487q45 -69 45 -127t-45 -127z" />
    <glyph glyph-name="ellipsis" unicode="&#x2026;" horiz-adv-x="2540" 
d="M2122 393q97 0 171 -51t74 -149q0 -97 -71 -151t-174 -54q-102 0 -174 58t-72 159q0 87 75 137.5t171 50.5zM434 393q98 0 172 -51t74 -149q0 -96 -72 -150.5t-174 -54.5t-174 58t-72 159q0 87 75 137.5t171 50.5zM1278 393q98 0 172 -51t74 -149q0 -96 -72 -150.5
t-174 -54.5t-174 58t-72 159q0 87 75 137.5t171 50.5z" />
    <glyph glyph-name="nonbreakingspace" unicode="&#xa0;" horiz-adv-x="1130" 
 />
    <glyph glyph-name="Agrave" unicode="&#xc0;" horiz-adv-x="2626" 
d="M672 2105q-112 65 -279.5 199t-167.5 256q0 91 90.5 131.5t192.5 40.5h1610q121 0 220 -54.5t99 -170.5q0 -154 -118 -264.5t-316 -227.5l-1090 -635q-200 -116 -302.5 -246t-102.5 -339q0 -78 35.5 -139.5t103.5 -61.5q31 0 63 14.5t60 14.5q-8 -37 -8 -238
q0 -164 -78.5 -278.5t-228.5 -114.5q-161 0 -250.5 135t-89.5 303q0 201 151 623q108 284 234 549q42 88 125 260.5t165 343t107 223.5q29 60 29 78q0 40 -31.5 50.5t-120.5 10.5q-156 0 -156 -65q0 -41 13 -71.5t35 -55.5t47 -44.5t53 -41.5zM1921 1909l201 -926
q98 -433 143 -549q35 -82 176 -160q26 -16 72.5 -44.5t81 -58t35.5 -52.5q0 -44 -106.5 -79.5t-160.5 -35.5q-20 0 -135.5 16.5t-159.5 16.5q-39 0 -168.5 -14t-142.5 -15q-76 0 -174.5 24t-103.5 74q0 65 114 127l103 58q69 39 69 123q-2 21 -8 53.5t-8 48.5l-238 1159z
M672 1438q56 33 198 117t280 165.5t282.5 167t201.5 119.5q161 93 271 190t110 220q0 57 -31.5 94t-78.5 37q-73 0 -82 -86l32 -230q-177 -149 -413 -274l-78 303q-20 85 -52.5 136.5t-103.5 51.5q-75 0 -129 -95t-112 -232zM856 3396l626 -369q23 -12 42.5 -40.5
t19.5 -53.5q0 -35 -20.5 -58.5t-53.5 -23.5q-24 0 -115 49q-52 35 -137 91t-113 69l-339 180q-91 49 -91 119q0 29 25.5 53.5t56.5 24.5q25 0 99 -41z" />
    <glyph glyph-name="Atilde" unicode="&#xc3;" horiz-adv-x="2626" 
d="M672 2105q-112 65 -279.5 199t-167.5 256q0 91 90.5 131.5t192.5 40.5h1610q121 0 220 -54.5t99 -170.5q0 -154 -118 -264.5t-316 -227.5l-1090 -635q-200 -116 -302.5 -246t-102.5 -339q0 -78 35.5 -139.5t103.5 -61.5q31 0 63 14.5t60 14.5q-8 -37 -8 -238
q0 -164 -78.5 -278.5t-228.5 -114.5q-161 0 -250.5 135t-89.5 303q0 201 151 623q108 284 234 549q42 88 125 260.5t165 343t107 223.5q29 60 29 78q0 40 -31.5 50.5t-120.5 10.5q-156 0 -156 -65q0 -41 13 -71.5t35 -55.5t47 -44.5t53 -41.5zM1921 1909l201 -926
q98 -433 143 -549q35 -82 176 -160q26 -16 72.5 -44.5t81 -58t35.5 -52.5q0 -44 -106.5 -79.5t-160.5 -35.5q-20 0 -135.5 16.5t-159.5 16.5q-39 0 -168.5 -14t-142.5 -15q-76 0 -174.5 24t-103.5 74q0 65 114 127l103 58q69 39 69 123q-2 21 -8 53.5t-8 48.5l-238 1159z
M672 1438q56 33 198 117t280 165.5t282.5 167t201.5 119.5q161 93 271 190t110 220q0 57 -31.5 94t-78.5 37q-73 0 -82 -86l32 -230q-177 -149 -413 -274l-78 303q-20 85 -52.5 136.5t-103.5 51.5q-75 0 -129 -95t-112 -232zM1221 3326l287 -217q99 -69 147 -69
q38 0 66 27.5t28 78.5q0 31 -12 86t-12 57q0 43 29 69t61 26q98 0 98 -140q0 -145 -83 -250.5t-224 -105.5q-117 0 -254 107l-230 188q-68 53 -114 53q-90 0 -90 -119q0 -16 6 -51t6 -59q0 -51 -23.5 -83t-62.5 -32q-60 0 -81 35t-21 100q0 80 39 167.5t105.5 146.5
t145.5 59q91 0 189 -74z" />
    <glyph glyph-name="Otilde" unicode="&#xd5;" horiz-adv-x="2527" 
d="M2363 1393q0 -577 -196 -955q-66 -126 -156 -225t-206.5 -160t-248.5 -61q-51 0 -146.5 18.5t-115.5 18.5q-31 0 -147 -18.5t-139 -18.5q-189 0 -347.5 121t-267.5 305q-229 385 -229 860q0 587 225 987q129 234 370.5 363t518.5 129q350 0 596.5 -196t367.5 -509.5
t121 -658.5zM635 983q23 250 130.5 426.5t324.5 294.5l200 111q182 96 281.5 195t99.5 259q0 145 -125.5 220t-296.5 75q-277 0 -436 -162t-217.5 -388t-58.5 -453q0 -306 98 -578zM1823 2183q-14 -184 -107 -287q-115 -130 -348 -249l-188 -103q-170 -92 -277.5 -250
t-107.5 -352q8 -196 151 -282.5t357 -86.5q376 0 544 345q76 150 99.5 284t23.5 285q0 395 -147 696zM1159 3326l287 -217q99 -69 147 -69q38 0 66 27.5t28 78.5q0 31 -12 86t-12 57q0 43 29 69t61 26q98 0 98 -140q0 -145 -83 -250.5t-224 -105.5q-117 0 -254 107l-230 188
q-68 53 -114 53q-90 0 -90 -119q0 -16 6 -51t6 -59q0 -51 -23.5 -83t-62.5 -32q-60 0 -81 35t-21 100q0 80 39 167.5t105.5 146.5t145.5 59q91 0 189 -74z" />
    <glyph glyph-name="OE" unicode="&#x152;" horiz-adv-x="3875" 
d="M3629 705q221 -108 221 -316q0 -178 -128.5 -283.5t-313.5 -105.5l-488 20q-155 9 -258 9h-274l-274 -17q-50 -4 -148 -4q-75 0 -188 37q-128 -53 -217 -53q-25 0 -140 18.5t-143 18.5q-23 0 -127 -16.5t-131 -16.5q-132 0 -272 72t-228 178q-179 209 -267.5 493
t-88.5 580q0 765 377 1147q143 140 336.5 215.5t396.5 75.5q193 0 414 -86q193 61 352 61h1229q144 0 303 -28.5t159 -106.5q0 -94 -127 -201q-145 -119 -356 -237l-545 -304q-94 -47 -94 -98q0 -24 37 -24q18 0 105 32.5t154 51t142 18.5q142 0 253.5 -69t111.5 -205
q0 -151 -156 -197q9 18 9 33q0 61 -87 61q-65 0 -243 -49t-248 -49q-120 0 -226 60.5t-106 172.5q0 95 52 163t145 140l426 332q168 121 168 205q0 68 -95 85t-241 17q-187 0 -257.5 -26t-87 -99.5t-16.5 -275.5v-246q-147 -132 -147 -258q0 -179 147 -274v-389
q0 -209 29 -275q61 -117 234 -147q179 -33 356 -33q30 0 92 -2t92 -2q183 0 283 57q75 44 94 140zM1823 2187q-7 -179 -99 -286q-108 -125 -311 -234l-196 -106q-422 -225 -422 -607q0 -196 137 -292.5t342 -96.5q372 0 553 303q88 150 113.5 310.5t25.5 394.5
q0 216 -53 409q-29 81 -90 205zM639 971q7 250 106 405q139 214 369 336l189 103q172 92 272 192t100 250q0 167 -130.5 237t-311.5 70q-156 0 -296.5 -74t-223.5 -200q-106 -159 -139 -348t-33 -447q0 -263 98 -524z" />
    <glyph glyph-name="oe" unicode="&#x153;" horiz-adv-x="3535" 
d="M3232 791q213 -101 213 -304q0 -138 -68 -250t-185.5 -176.5t-254.5 -64.5q-41 0 -160 12t-143 12q-26 0 -165 -10t-175 -10q-284 0 -516 283q-265 -287 -557 -287q-11 0 -84 8t-88 8q-10 0 -94 -10t-107 -10q-148 0 -289.5 83t-230.5 212q-213 312 -213 745
q0 300 104.5 537.5t314.5 372.5t510 135q268 0 451 -79.5t344 -273.5q152 186 319.5 236.5t462.5 50.5q271 0 410 -8q144 -8 258.5 -64.5t114.5 -177.5q0 -198 -146.5 -329.5t-369.5 -235.5l-164 -82q-251 -126 -377 -278q-64 -74 -86 -226q223 -98 442 -98q288 0 439 119
q62 57 90 160zM2089 729q81 305 397 488l201 114q125 69 189.5 126t64.5 153q-6 116 -111 168.5t-254 52.5q-147 0 -283.5 -51.5t-203.5 -161.5q-107 -166 -107 -401q0 -164 20 -265t87 -223zM1581 1253q0 169 -56.5 312t-174 229t-289.5 86t-289.5 -85.5t-174 -228.5
t-56.5 -309q0 -264 143.5 -445t400.5 -181q248 0 372 183t124 439z" />
    <glyph glyph-name="emdash" unicode="&#x2013;" horiz-adv-x="2077" 
d="M229 1212h1643q160 0 160 -98q0 -115 -148 -115h-1671q-147 0 -147 115q0 98 163 98z" />
    <glyph glyph-name="endash" unicode="&#x2014;" horiz-adv-x="2736" 
d="M-12 1212h2769q159 0 159 -98q0 -115 -147 -115h-2798q-60 0 -103.5 28t-43.5 87q0 98 164 98z" />
    <glyph glyph-name="quotedblleft" unicode="&#x201c;" horiz-adv-x="1700" 
d="M1430 2757q-16 -102 -144 -148l-57 -20q-87 -35 -111 -127q50 16 82 16q64 0 108 -50t44 -114q0 -80 -58 -138t-135 -58q-107 0 -166 84.5t-59 197.5q0 125 88 214t231 89q80 0 112.5 11t64.5 43zM831 2757q-15 -102 -143 -148l-57 -20q-87 -35 -111 -127q50 16 82 16
q64 0 108 -50t44 -114q0 -80 -58 -138t-135 -58q-107 0 -166 84.5t-59 197.5q0 125 88 214t231 89q80 0 111.5 10.5t64.5 43.5z" />
    <glyph glyph-name="quotedblright" unicode="&#x201d;" horiz-adv-x="1700" 
d="M279 2118q15 103 143 147l57 21q87 34 111 127q-47 -17 -82 -17q-62 0 -107 51t-45 113q0 78 57.5 137.5t135.5 59.5q107 0 166 -84.5t59 -198.5q0 -124 -88.5 -213.5t-230.5 -89.5q-124 0 -176 -53zM877 2118q15 103 143 147l57 21q87 34 111 127q-47 -17 -82 -17
q-62 0 -107 51t-45 113q0 78 57.5 137.5t135.5 59.5q107 0 166 -84.5t59 -198.5q0 -124 -88.5 -213.5t-230.5 -89.5q-123 0 -176 -53z" />
    <glyph glyph-name="quoteleft" unicode="&#x2018;" horiz-adv-x="1102" 
d="M831 2757q-15 -102 -143 -148l-57 -20q-87 -35 -111 -127q50 16 82 16q64 0 108 -50t44 -114q0 -80 -58 -138t-135 -58q-107 0 -166 84.5t-59 197.5q0 125 88 214t231 89q80 0 111.5 10.5t64.5 43.5z" />
    <glyph glyph-name="quoteright" unicode="&#x2019;" horiz-adv-x="1102" 
d="M279 2118q15 103 143 147l57 21q87 34 111 127q-47 -17 -82 -17q-62 0 -107 51t-45 113q0 78 57.5 137.5t135.5 59.5q107 0 166 -84.5t59 -198.5q0 -124 -88.5 -213.5t-230.5 -89.5q-124 0 -176 -53z" />
    <glyph glyph-name="divide" unicode="&#xf7;" horiz-adv-x="2265" 
d="M1130 2363q103 0 172.5 -70.5t69.5 -170.5q0 -99 -71.5 -170.5t-170.5 -71.5q-98 0 -169.5 72.5t-71.5 169.5t71 169t170 72zM1130 909q104 0 173 -69t69 -172q0 -99 -71.5 -170.5t-170.5 -71.5q-98 0 -169.5 72.5t-71.5 169.5q0 100 70.5 170.5t170.5 70.5zM389 1577
h1393q151 0 241.5 -31t90.5 -149q0 -122 -90.5 -153.5t-241.5 -31.5h-1299q-150 0 -240.5 31.5t-90.5 153.5q0 94 67.5 137t169.5 43z" />
    <glyph glyph-name="ydieresis" unicode="&#xff;" horiz-adv-x="2019" 
d="M1315 385v-692q0 -426 -250 -426q-196 0 -332 201q-31 57 -64 94t-79 37q-39 0 -107 -41q8 18 17.5 38.5t11.5 34.5v58q3 69 50 122.5t114 53.5q63 0 155 -45v475l-692 1307q-74 146 -155 208l-50 40t-27.5 32t-12.5 47q0 66 94 66h1024q69 0 69 -70q0 -59 -53 -86
l402 86q318 66 483 66q135 0 135 -119q0 -60 -53 -197q-234 -499 -275 -577q-64 -123 -286 -512zM774 1835h-237l565 -1139q23 -57 53 -57q38 0 135 160q287 422 287 811q0 85 -27.5 116t-111.5 31q-57 0 -107 -12l-323 -74q-110 -20 -152 -20q-151 0 -151 86q0 39 69 98z
M1532 2576q282 0 282 -163q0 -104 -84 -146.5t-198 -42.5q-113 0 -196 43.5t-83 145.5q0 163 279 163zM712 2576q283 0 283 -163q0 -189 -283 -189q-114 0 -196 43.5t-82 145.5q0 163 278 163z" />
    <glyph glyph-name="Ydieresis" unicode="&#x178;" horiz-adv-x="2707" 
d="M1716 1331v-815q0 -47 10 -75.5t28.5 -46.5t53 -37t76.5 -42q49 -27 72 -39.5t62.5 -38.5t67.5 -54.5t28 -51.5q0 -59 -115 -95t-189 -36q-22 0 -138 14.5t-152 14.5q-29 0 -146.5 -17.5t-144.5 -19.5q-103 0 -238 57q-48 21 -71 34.5t-23 39.5q0 42 107.5 114t179.5 111
q73 56 73 205v565l-745 967q-23 32 -53.5 47t-73 27.5t-58.5 24t-16 36.5q0 50 49 66l488 176q9 4 50.5 17.5t73.5 30t32 30.5q0 24 -107 24l-344 -8q-181 -10 -217 -82v-57l16 -29q3 -6 6.5 -15t6.5 -18q-30 12 -127 21q-99 7 -183 61t-84 143q0 152 262 152h918
q328 0 328 -86q0 -44 -38.5 -69t-121.5 -62l-266 -115q-70 -25 -70 -78q0 -30 24 -73t59.5 -89t55.5 -71l496 -627q573 508 573 836q0 62 -33 109t-94 47q-40 0 -201 -36t-196 -42q-89 -18 -237 -52t-218 -51q-8 -1 -22 -4t-28.5 -5.5t-22.5 -2.5q-70 0 -70 49
q0 26 37.5 39.5t118.5 34.5q219 63 651 221l127 49q227 86 360 86q96 0 177 -44.5t81 -131.5q0 -227 -323 -631q-210 -259 -582 -602zM1868 3285q282 0 282 -163q0 -104 -84 -146.5t-198 -42.5q-113 0 -196 43.5t-83 145.5q0 163 279 163zM1048 3285q283 0 283 -163
q0 -189 -283 -189q-114 0 -196 43.5t-82 145.5q0 163 278 163z" />
    <glyph glyph-name="fraction" unicode="&#x2044;" horiz-adv-x="512" 
d="M1126 2589l-1556 -2634q-35 -57 -111 -57q-77 8 -77 77q5 33 24 66l1548 2613q32 50 99 58q89 0 94 -58q0 -39 -21 -65z" />
    <glyph glyph-name="currency" unicode="&#x20ac;" horiz-adv-x="2732" 
d="M582 918q-201 273 -201 573q0 296 201 577l-283 283q-61 61 -61 115q0 59 43 103t100 44q58 0 119 -61l282 -283q284 205 594 205q295 0 570 -201l282 279q68 61 115 61q59 0 101 -44t42 -103q0 -47 -61 -115l-275 -278q201 -291 201 -582q0 -288 -197 -573l279 -279
q61 -61 61 -119q0 -57 -41.5 -100t-97.5 -43q-48 0 -119 61l-282 279q-266 -201 -586 -201q-289 0 -586 201l-274 -279q-49 -61 -119 -61q-59 0 -101 43t-42 100q0 43 61 119zM1368 2146q-129 0 -249.5 -51.5t-210 -142t-140.5 -211t-51 -250.5q0 -172 89 -322.5
t239.5 -239.5t322.5 -89t322.5 89t239.5 239.5t89 322.5q0 173 -88 324.5t-238.5 241t-324.5 89.5z" />
    <glyph glyph-name="guilsinglleft" unicode="&#x2039;" horiz-adv-x="795" 
d="M156 1229l290 487q21 33 41 62t43 49t52 20q77 0 77 -65q0 -69 -41 -172l-163 -402q-21 -52 -21 -106t21 -107l163 -401q41 -103 41 -172q0 -66 -77 -66q-29 0 -52 20t-43 49t-41 62l-290 488q-45 67 -45 127t45 127z" />
    <glyph glyph-name="guilsinglright" unicode="&#x203a;" horiz-adv-x="795" 
d="M643 975l-291 -488q-14 -21 -34 -50.5t-30 -42.5t-29 -25.5t-42 -12.5q-78 0 -78 66q0 63 41 172l164 401q21 58 21 107q0 50 -21 106l-164 402q-41 109 -41 172q0 65 78 65q41 0 67 -33t68 -98l291 -487q45 -67 45 -127t-45 -127z" />
    <glyph glyph-name="fi" unicode="&#xfb01;" horiz-adv-x="2277" 
d="M1122 2818q4 -10 12 -32.5t9 -24.5l20 -49q25 -63 25 -107q0 -136 -119 -232t-258 -96q-83 0 -173.5 25t-125.5 25q-98 0 -98 -62q0 -28 32 -78l74 -94h180q111 0 258.5 -27t147.5 -92q0 -42 -86.5 -104.5t-142.5 -83.5q-47 -16 -58.5 -40t-11.5 -87v-1360q16 -6 57 -33
q180 -96 180 -135q0 -38 -61 -70q-125 -69 -238 -69q-14 0 -86 10t-90 10q-17 0 -93 -10t-91 -10q-111 0 -242 69q-57 37 -57 62q0 55 180 143q28 22 58 33v1352q0 73 -16.5 97t-82.5 58l-147 86q-111 68 -111 127q0 66 131 66l148 8l-103 102q-155 148 -155 308
q0 142 123 220.5t311 78.5q91 0 272.5 -33t259.5 -33q101 0 168 82zM1991 299q27 -13 57 -33q161 -86 172 -135q0 -37 -61 -70q-118 -69 -234 -69q-13 0 -88 10t-92 10q-16 0 -89 -10t-87 -10q-109 0 -234 69q-57 37 -57 70q11 49 172 135q30 19 57 33v1393q0 53 -24 73
l-99 74q-53 35 -53 82q0 74 189 74h458q189 0 189 -74q0 -49 -58 -86l-106 -82q-12 -16 -12 -61v-1393zM1749 2605q287 0 287 -164q0 -184 -287 -184q-283 0 -283 184q0 164 283 164z" />
    <glyph glyph-name="fl" unicode="&#xfb02;" horiz-adv-x="2265" 
d="M1122 2818q4 -10 12 -32.5t9 -24.5l20 -49q25 -63 25 -107q0 -136 -119 -232t-258 -96q-83 0 -173.5 25t-125.5 25q-98 0 -98 -62q0 -28 32 -78l74 -94h180q111 0 258.5 -27t147.5 -92q0 -42 -86.5 -104.5t-142.5 -83.5q-47 -16 -58.5 -40t-11.5 -87v-1360q16 -6 57 -33
q180 -96 180 -135q0 -38 -61 -70q-125 -69 -238 -69q-14 0 -86 10t-90 10q-17 0 -93 -10t-91 -10q-111 0 -242 69q-57 37 -57 62q0 55 180 143q28 22 58 33v1352q0 73 -16.5 97t-82.5 58l-147 86q-111 68 -111 127q0 66 131 66l148 8l-103 102q-155 148 -155 308
q0 142 123 220.5t311 78.5q91 0 272.5 -33t259.5 -33q101 0 168 82zM1982 299q28 -13 54 -33q165 -88 172 -135q0 -40 -58 -70q-116 -69 -229 -69q-11 0 -88 10t-92 10q-16 0 -91 -10t-89 -10q-112 0 -230 69q-57 31 -57 70q0 35 112.5 102.5t112.5 69.5v2126q0 37 -24.5 64
t-71.5 62t-65.5 54.5t-18.5 48.5q0 74 188 74h406q30 0 49.5 -26.5t19.5 -59.5v-2347z" />
    <glyph glyph-name="daggerdbl" unicode="&#x2021;" horiz-adv-x="1462" 
d="M25 2191q74 139 112.5 184.5t120.5 45.5q46 0 81 -18t98 -57.5t114.5 -59.5t120.5 -21q0 105 -25 150t-96.5 149t-71.5 168q0 61 53 103.5t209 125.5q159 -84 211 -124.5t52 -104.5q0 -58 -68 -156.5t-96.5 -151t-28.5 -159.5q86 1 137 25.5t140.5 77.5t136.5 53
q79 0 122.5 -49.5t110.5 -176.5q-66 -122 -113 -173.5t-120 -51.5q-49 0 -145 56.5t-139 77.5t-130 22q0 -112 19 -197.5t61.5 -247t42.5 -215.5q0 -58 -43.5 -227.5t-61.5 -253t-18 -194.5q71 1 124 22t117 60.5t97 56t76 16.5q76 0 122 -51.5t111 -173.5
q-64 -120 -113.5 -172.5t-119.5 -52.5q-39 0 -74 16.5t-99 56t-117 60.5t-124 22q0 -106 27.5 -155.5t96.5 -150.5t69 -161q0 -64 -52 -104.5t-211 -124.5q-163 87 -212.5 125.5t-49.5 103.5q0 57 67 154t96.5 151.5t29.5 161.5q-69 -1 -124 -22.5t-120 -61.5t-97.5 -55.5
t-72.5 -15.5q-77 0 -120 47.5t-113 177.5q64 120 112.5 172.5t120.5 52.5q47 0 138.5 -53.5t140.5 -77t135 -24.5q0 147 -61.5 382t-61.5 293q0 59 61.5 286t61.5 374q-86 -1 -132.5 -23.5t-139.5 -77.5t-142 -55q-75 0 -120.5 48t-112.5 173z" />
    <glyph glyph-name="periodcentered" unicode="&#xb7;" horiz-adv-x="848" 
d="M434 1327q98 0 172 -52t74 -149q0 -95 -72 -149.5t-174 -54.5t-174 58t-72 159q0 87 75 137.5t171 50.5z" />
    <glyph glyph-name="quotesinglbase" unicode="&#x201a;" horiz-adv-x="1102" 
d="M274 -274q16 100 148 147l53 21q91 33 115 126q-50 -16 -78 -16q-62 0 -109 51t-47 113q0 79 56.5 138t136.5 59q107 0 166 -81t59 -194q0 -126 -84 -218.5t-239 -92.5q-93 0 -109 -6.5t-68 -46.5z" />
    <glyph glyph-name="quotedblbase" unicode="&#x201e;" horiz-adv-x="1700" 
d="M872 -274q16 100 148 147l53 21q91 33 115 126q-50 -16 -78 -16q-62 0 -109 51t-47 113q0 79 56.5 138t136.5 59q107 0 166 -81t59 -194q0 -126 -84 -218.5t-239 -92.5q-93 0 -109 -6.5t-68 -46.5zM274 -274q16 100 148 147l53 21q91 33 115 126q-50 -16 -78 -16
q-62 0 -109 51t-47 113q0 79 56.5 138t136.5 59q107 0 166 -81t59 -194q0 -126 -84 -218.5t-239 -92.5q-93 0 -109 -6.5t-68 -46.5z" />
    <glyph glyph-name="perthousand" unicode="&#x2030;" horiz-adv-x="3457" 
d="M528 90l1172 2634q12 35 42.5 58.5t67.5 23.5q67 -7 82 -74q0 -53 -12 -78l-1167 -2634q-34 -90 -107 -90q-37 0 -63.5 25.5t-26.5 60.5q0 38 12 74zM3113 1331q16 8 29 8q65 -7 127 -180q77 -231 77 -422q0 -414 -114 -639q-84 -159 -217 -159q-10 0 -73 10t-83 10
q-17 0 -61 -8t-70 -8q-177 0 -250.5 221t-73.5 446q0 323 95 549q51 123 155.5 215t224.5 92q134 0 234 -135zM819 2695q16 8 29 8q46 -5 74 -57t53 -123q78 -234 78 -422q0 -412 -115 -639q-84 -159 -217 -159q-10 0 -73 10t-83 10q-17 0 -61 -8t-70 -8q-177 0 -250 219.5
t-73 447.5q0 325 94 549q52 124 156.5 215.5t224.5 91.5q133 0 233 -135zM2023 1331q18 8 29 8q68 -8 127 -180q78 -234 78 -422q0 -198 -23 -351t-92 -288q-84 -159 -217 -159q-11 0 -73 10t-83 10q-16 0 -60 -8t-71 -8q-177 0 -250 219.5t-73 447.5q0 325 94 549
q52 124 156.5 215.5t224.5 91.5q133 0 233 -135zM729 2642q-67 82 -135 82q-161 0 -220 -184t-59 -394q0 -598 258 -598q124 0 181 73t90 206q49 179 49 377q0 156 -70 336q-53 -46 -86 -46q-22 0 -37.5 19.5t-15.5 42.5q0 30 45 86zM3023 1278q-67 82 -135 82
q-161 0 -220 -184t-59 -394q0 -598 258 -598q124 0 181 73t90 206q49 184 49 377q0 156 -70 336q-55 -46 -86 -46q-53 0 -53 62q0 32 45 86zM1933 1278q-67 82 -135 82q-160 0 -219 -184t-59 -394q0 -598 258 -598q123 0 180 73t90 206q49 179 49 377q0 154 -69 336
q-55 -46 -86 -46q-54 0 -54 62q0 30 45 86z" />
    <glyph glyph-name="Acircumflex" unicode="&#xc2;" horiz-adv-x="2626" 
d="M672 2105q-112 65 -279.5 199t-167.5 256q0 91 90.5 131.5t192.5 40.5h1610q121 0 220 -54.5t99 -170.5q0 -154 -118 -264.5t-316 -227.5l-1090 -635q-200 -116 -302.5 -246t-102.5 -339q0 -78 35.5 -139.5t103.5 -61.5q31 0 63 14.5t60 14.5q-8 -37 -8 -238
q0 -164 -78.5 -278.5t-228.5 -114.5q-161 0 -250.5 135t-89.5 303q0 201 151 623q108 284 234 549q42 88 125 260.5t165 343t107 223.5q29 60 29 78q0 40 -31.5 50.5t-120.5 10.5q-156 0 -156 -65q0 -41 13 -71.5t35 -55.5t47 -44.5t53 -41.5zM1921 1909l201 -926
q98 -433 143 -549q35 -82 176 -160q26 -16 72.5 -44.5t81 -58t35.5 -52.5q0 -44 -106.5 -79.5t-160.5 -35.5q-20 0 -135.5 16.5t-159.5 16.5q-39 0 -168.5 -14t-142.5 -15q-76 0 -174.5 24t-103.5 74q0 65 114 127l103 58q69 39 69 123q-2 21 -8 53.5t-8 48.5l-238 1159z
M672 1438q56 33 198 117t280 165.5t282.5 167t201.5 119.5q161 93 271 190t110 220q0 57 -31.5 94t-78.5 37q-73 0 -82 -86l32 -230q-177 -149 -413 -274l-78 303q-20 85 -52.5 136.5t-103.5 51.5q-75 0 -129 -95t-112 -232zM1327 3404q90 -117 283 -205l217 -90
q151 -59 151 -147q0 -34 -26 -58t-60 -24q-23 0 -58.5 15.5t-102.5 50.5t-113 57q-228 107 -291 180q-73 -73 -295 -180q-28 -14 -100 -52.5t-109 -54.5t-65 -16q-32 0 -59 24.5t-27 57.5q0 90 155 147l213 90q195 85 287 205z" />
    <glyph glyph-name="Ecircumflex" unicode="&#xca;" horiz-adv-x="2404" 
d="M2154 688q226 -119 226 -319t-132 -299t-360 -99q-27 0 -349 13q-322 12 -466 12q-165 0 -369 -10l-196 -11v0q-94 0 -258 47t-164 121q0 39 70 78l213 139q67 41 84.5 111.5t17.5 220.5v1295v114q0 132 -29 193q-26 57 -118 102q-234 130 -234 189q5 83 162 113t289 30
h1302q414 0 414 -139q0 -100 -173.5 -230.5t-334.5 -216.5l-430 -237q-189 -107 -189 -148q0 -28 41 -28q17 0 33 4q249 94 369 94q136 0 250 -71.5t114 -194.5q0 -163 -159 -213v32q0 62 -70 62q-81 0 -160 -25l-196 -53q-105 -29 -181 -29q-111 0 -211 70.5t-100 179.5
q0 146 176 283l471 373q37 27 71.5 52t57.5 57t23 75q0 67 -73.5 82.5t-254.5 15.5h-135q-153 0 -188 -49q-45 -58 -45 -258v-131v-209q-156 -140 -156 -270q0 -143 156 -263v-323q0 -303 45 -377q110 -156 557 -156h164q206 0 315 50q81 35 110 151zM1204 3404
q90 -117 283 -205l217 -90q151 -59 151 -147q0 -34 -26 -58t-60 -24q-23 0 -58.5 15.5t-102.5 50.5t-113 57q-228 107 -291 180q-73 -73 -295 -180q-28 -14 -100 -52.5t-109 -54.5t-65 -16q-32 0 -59 24.5t-27 57.5q0 90 155 147l213 90q195 85 287 205z" />
    <glyph glyph-name="Aacute" unicode="&#xc1;" horiz-adv-x="2626" 
d="M672 2105q-112 65 -279.5 199t-167.5 256q0 91 90.5 131.5t192.5 40.5h1610q121 0 220 -54.5t99 -170.5q0 -154 -118 -264.5t-316 -227.5l-1090 -635q-200 -116 -302.5 -246t-102.5 -339q0 -78 35.5 -139.5t103.5 -61.5q31 0 63 14.5t60 14.5q-8 -37 -8 -238
q0 -164 -78.5 -278.5t-228.5 -114.5q-161 0 -250.5 135t-89.5 303q0 201 151 623q108 284 234 549q42 88 125 260.5t165 343t107 223.5q29 60 29 78q0 40 -31.5 50.5t-120.5 10.5q-156 0 -156 -65q0 -41 13 -71.5t35 -55.5t47 -44.5t53 -41.5zM1921 1909l201 -926
q98 -433 143 -549q35 -82 176 -160q26 -16 72.5 -44.5t81 -58t35.5 -52.5q0 -44 -106.5 -79.5t-160.5 -35.5q-20 0 -135.5 16.5t-159.5 16.5q-39 0 -168.5 -14t-142.5 -15q-76 0 -174.5 24t-103.5 74q0 65 114 127l103 58q69 39 69 123q-2 21 -8 53.5t-8 48.5l-238 1159z
M672 1438q56 33 198 117t280 165.5t282.5 167t201.5 119.5q161 93 271 190t110 220q0 57 -31.5 94t-78.5 37q-73 0 -82 -86l32 -230q-177 -149 -413 -274l-78 303q-20 85 -52.5 136.5t-103.5 51.5q-75 0 -129 -95t-112 -232zM1912 3265l-626 -369q-70 -41 -99 -41
q-31 0 -56.5 24.5t-25.5 53.5q0 70 91 119l340 180q22 11 109.5 67.5t139.5 91.5q88 50 115 50q33 0 53.5 -23.5t20.5 -58.5q0 -25 -19.5 -53.5t-42.5 -40.5z" />
    <glyph glyph-name="Edieresis" unicode="&#xcb;" horiz-adv-x="2404" 
d="M2154 688q226 -119 226 -319t-132 -299t-360 -99q-27 0 -349 13q-322 12 -466 12q-165 0 -369 -10l-196 -11v0q-94 0 -258 47t-164 121q0 39 70 78l213 139q67 41 84.5 111.5t17.5 220.5v1295v114q0 132 -29 193q-26 57 -118 102q-234 130 -234 189q5 83 162 113t289 30
h1302q414 0 414 -139q0 -100 -173.5 -230.5t-334.5 -216.5l-430 -237q-189 -107 -189 -148q0 -28 41 -28q17 0 33 4q249 94 369 94q136 0 250 -71.5t114 -194.5q0 -163 -159 -213v32q0 62 -70 62q-81 0 -160 -25l-196 -53q-105 -29 -181 -29q-111 0 -211 70.5t-100 179.5
q0 146 176 283l471 373q37 27 71.5 52t57.5 57t23 75q0 67 -73.5 82.5t-254.5 15.5h-135q-153 0 -188 -49q-45 -58 -45 -258v-131v-209q-156 -140 -156 -270q0 -143 156 -263v-323q0 -303 45 -377q110 -156 557 -156h164q206 0 315 50q81 35 110 151zM1610 3281
q282 0 282 -163q0 -104 -84 -146.5t-198 -42.5q-113 0 -196 43.5t-83 145.5q0 163 279 163zM790 3281q283 0 283 -163q0 -189 -283 -189q-114 0 -196 43.5t-82 145.5q0 163 278 163z" />
    <glyph glyph-name="Egrave" unicode="&#xc8;" horiz-adv-x="2404" 
d="M2154 688q226 -119 226 -319t-132 -299t-360 -99q-27 0 -349 13q-322 12 -466 12q-165 0 -369 -10l-196 -11v0q-94 0 -258 47t-164 121q0 39 70 78l213 139q67 41 84.5 111.5t17.5 220.5v1295v114q0 132 -29 193q-26 57 -118 102q-234 130 -234 189q5 83 162 113t289 30
h1302q414 0 414 -139q0 -100 -173.5 -230.5t-334.5 -216.5l-430 -237q-189 -107 -189 -148q0 -28 41 -28q17 0 33 4q249 94 369 94q136 0 250 -71.5t114 -194.5q0 -163 -159 -213v32q0 62 -70 62q-81 0 -160 -25l-196 -53q-105 -29 -181 -29q-111 0 -211 70.5t-100 179.5
q0 146 176 283l471 373q37 27 71.5 52t57.5 57t23 75q0 67 -73.5 82.5t-254.5 15.5h-135q-153 0 -188 -49q-45 -58 -45 -258v-131v-209q-156 -140 -156 -270q0 -143 156 -263v-323q0 -303 45 -377q110 -156 557 -156h164q206 0 315 50q81 35 110 151zM734 3396l626 -369
q23 -12 42.5 -40.5t19.5 -53.5q0 -35 -20.5 -58.5t-53.5 -23.5q-24 0 -115 49q-52 35 -137 91t-113 69l-339 180q-91 49 -91 119q0 29 25.5 53.5t56.5 24.5q25 0 99 -41z" />
    <glyph glyph-name="Iacute" unicode="&#xcd;" horiz-adv-x="1872" 
d="M238 2114q9 0 21.5 -2.5t19.5 -2.5q20 0 36.5 19.5t16.5 42.5q0 32 -37.5 67t-123 103t-128.5 118t-43 101q0 117 217 168q135 29 483 29q608 0 873.5 -37.5t265.5 -143.5q0 -78 -128.5 -148.5t-180 -113t-51.5 -184.5v-1323q0 -168 77 -189l50 -12q57 -14 57 -123
q0 -214 -180 -356q-198 -156 -680 -156q-283 0 -537 90.5t-254 323.5q0 157 57 226.5t158 141t101 128.5q0 19 -13 45q17 4 50 4q58 -3 92.5 -49t34.5 -107l-9 -61q0 -213 226 -213q112 0 174.5 21t91.5 78.5t29 166.5v1114q0 147 -36 196t-96.5 83.5t-60.5 81.5q0 42 70 61
l258 70q237 63 237 127q0 39 -74.5 50t-224.5 11h-172q-206 0 -305.5 -10.5t-99.5 -55.5q0 -27 17 -50.5t65 -81.5t71 -97.5t23 -81.5q0 -95 -67 -160t-158 -65q-160 0 -213 156zM1523 3261l-626 -369q-70 -41 -99 -41q-31 0 -56.5 24.5t-25.5 53.5q0 70 91 119l340 180
q22 11 109.5 67.5t139.5 91.5q88 50 115 50q33 0 53.5 -23.5t20.5 -58.5q0 -25 -19.5 -53.5t-42.5 -40.5z" />
    <glyph glyph-name="Icircumflex" unicode="&#xce;" horiz-adv-x="1872" 
d="M238 2114q9 0 21.5 -2.5t19.5 -2.5q20 0 36.5 19.5t16.5 42.5q0 32 -37.5 67t-123 103t-128.5 118t-43 101q0 117 217 168q135 29 483 29q608 0 873.5 -37.5t265.5 -143.5q0 -78 -128.5 -148.5t-180 -113t-51.5 -184.5v-1323q0 -168 77 -189l50 -12q57 -14 57 -123
q0 -214 -180 -356q-198 -156 -680 -156q-283 0 -537 90.5t-254 323.5q0 157 57 226.5t158 141t101 128.5q0 19 -13 45q17 4 50 4q58 -3 92.5 -49t34.5 -107l-9 -61q0 -213 226 -213q112 0 174.5 21t91.5 78.5t29 166.5v1114q0 147 -36 196t-96.5 83.5t-60.5 81.5q0 42 70 61
l258 70q237 63 237 127q0 39 -74.5 50t-224.5 11h-172q-206 0 -305.5 -10.5t-99.5 -55.5q0 -27 17 -50.5t65 -81.5t71 -97.5t23 -81.5q0 -95 -67 -160t-158 -65q-160 0 -213 156zM938 3404q90 -117 283 -205l217 -90q151 -59 151 -147q0 -34 -26 -58t-60 -24
q-23 0 -58.5 15.5t-102.5 50.5t-113 57q-228 107 -291 180q-73 -73 -295 -180q-28 -14 -100 -52.5t-109 -54.5t-65 -16q-32 0 -59 24.5t-27 57.5q0 90 155 147l213 90q195 85 287 205z" />
    <glyph glyph-name="Idieresis" unicode="&#xcf;" horiz-adv-x="1872" 
d="M238 2114q9 0 21.5 -2.5t19.5 -2.5q20 0 36.5 19.5t16.5 42.5q0 32 -37.5 67t-123 103t-128.5 118t-43 101q0 117 217 168q135 29 483 29q608 0 873.5 -37.5t265.5 -143.5q0 -78 -128.5 -148.5t-180 -113t-51.5 -184.5v-1323q0 -168 77 -189l50 -12q57 -14 57 -123
q0 -214 -180 -356q-198 -156 -680 -156q-283 0 -537 90.5t-254 323.5q0 157 57 226.5t158 141t101 128.5q0 19 -13 45q17 4 50 4q58 -3 92.5 -49t34.5 -107l-9 -61q0 -213 226 -213q112 0 174.5 21t91.5 78.5t29 166.5v1114q0 147 -36 196t-96.5 83.5t-60.5 81.5q0 42 70 61
l258 70q237 63 237 127q0 39 -74.5 50t-224.5 11h-172q-206 0 -305.5 -10.5t-99.5 -55.5q0 -27 17 -50.5t65 -81.5t71 -97.5t23 -81.5q0 -95 -67 -160t-158 -65q-160 0 -213 156zM1344 3281q282 0 282 -163q0 -104 -84 -146.5t-198 -42.5q-113 0 -196 43.5t-83 145.5
q0 163 279 163zM524 3281q283 0 283 -163q0 -189 -283 -189q-114 0 -196 43.5t-82 145.5q0 163 278 163z" />
    <glyph glyph-name="Igrave" unicode="&#xcc;" horiz-adv-x="1872" 
d="M238 2114q9 0 21.5 -2.5t19.5 -2.5q20 0 36.5 19.5t16.5 42.5q0 32 -37.5 67t-123 103t-128.5 118t-43 101q0 117 217 168q135 29 483 29q608 0 873.5 -37.5t265.5 -143.5q0 -78 -128.5 -148.5t-180 -113t-51.5 -184.5v-1323q0 -168 77 -189l50 -12q57 -14 57 -123
q0 -214 -180 -356q-198 -156 -680 -156q-283 0 -537 90.5t-254 323.5q0 157 57 226.5t158 141t101 128.5q0 19 -13 45q17 4 50 4q58 -3 92.5 -49t34.5 -107l-9 -61q0 -213 226 -213q112 0 174.5 21t91.5 78.5t29 166.5v1114q0 147 -36 196t-96.5 83.5t-60.5 81.5q0 42 70 61
l258 70q237 63 237 127q0 39 -74.5 50t-224.5 11h-172q-206 0 -305.5 -10.5t-99.5 -55.5q0 -27 17 -50.5t65 -81.5t71 -97.5t23 -81.5q0 -95 -67 -160t-158 -65q-160 0 -213 156zM467 3396l626 -369q23 -12 42.5 -40.5t19.5 -53.5q0 -35 -20.5 -58.5t-53.5 -23.5
q-24 0 -115 49q-52 35 -137 91t-113 69l-339 180q-91 49 -91 119q0 29 25.5 53.5t56.5 24.5q25 0 99 -41z" />
    <glyph glyph-name="Oacute" unicode="&#xd3;" horiz-adv-x="2527" 
d="M2363 1393q0 -577 -196 -955q-66 -126 -156 -225t-206.5 -160t-248.5 -61q-51 0 -146.5 18.5t-115.5 18.5q-31 0 -147 -18.5t-139 -18.5q-189 0 -347.5 121t-267.5 305q-229 385 -229 860q0 587 225 987q129 234 370.5 363t518.5 129q350 0 596.5 -196t367.5 -509.5
t121 -658.5zM635 983q23 250 130.5 426.5t324.5 294.5l200 111q182 96 281.5 195t99.5 259q0 145 -125.5 220t-296.5 75q-277 0 -436 -162t-217.5 -388t-58.5 -453q0 -306 98 -578zM1823 2183q-14 -184 -107 -287q-115 -130 -348 -249l-188 -103q-170 -92 -277.5 -250
t-107.5 -352q8 -196 151 -282.5t357 -86.5q376 0 544 345q76 150 99.5 284t23.5 285q0 395 -147 696zM1851 3265l-626 -369q-70 -41 -99 -41q-31 0 -56.5 24.5t-25.5 53.5q0 70 91 119l340 180q22 11 109.5 67.5t139.5 91.5q88 50 115 50q33 0 53.5 -23.5t20.5 -58.5
q0 -25 -19.5 -53.5t-42.5 -40.5z" />
    <glyph glyph-name="Ocircumflex" unicode="&#xd4;" horiz-adv-x="2527" 
d="M2363 1393q0 -577 -196 -955q-66 -126 -156 -225t-206.5 -160t-248.5 -61q-51 0 -146.5 18.5t-115.5 18.5q-31 0 -147 -18.5t-139 -18.5q-189 0 -347.5 121t-267.5 305q-229 385 -229 860q0 587 225 987q129 234 370.5 363t518.5 129q350 0 596.5 -196t367.5 -509.5
t121 -658.5zM635 983q23 250 130.5 426.5t324.5 294.5l200 111q182 96 281.5 195t99.5 259q0 145 -125.5 220t-296.5 75q-277 0 -436 -162t-217.5 -388t-58.5 -453q0 -306 98 -578zM1823 2183q-14 -184 -107 -287q-115 -130 -348 -249l-188 -103q-170 -92 -277.5 -250
t-107.5 -352q8 -196 151 -282.5t357 -86.5q376 0 544 345q76 150 99.5 284t23.5 285q0 395 -147 696zM1266 3404q90 -117 283 -205l217 -90q151 -59 151 -147q0 -34 -26 -58t-60 -24q-23 0 -58.5 15.5t-102.5 50.5t-113 57q-228 107 -291 180q-73 -73 -295 -180
q-28 -14 -100 -52.5t-109 -54.5t-65 -16q-32 0 -59 24.5t-27 57.5q0 90 155 147l213 90q195 85 287 205z" />
    <glyph glyph-name="Ograve" unicode="&#xd2;" horiz-adv-x="2527" 
d="M2363 1393q0 -577 -196 -955q-66 -126 -156 -225t-206.5 -160t-248.5 -61q-51 0 -146.5 18.5t-115.5 18.5q-31 0 -147 -18.5t-139 -18.5q-189 0 -347.5 121t-267.5 305q-229 385 -229 860q0 587 225 987q129 234 370.5 363t518.5 129q350 0 596.5 -196t367.5 -509.5
t121 -658.5zM635 983q23 250 130.5 426.5t324.5 294.5l200 111q182 96 281.5 195t99.5 259q0 145 -125.5 220t-296.5 75q-277 0 -436 -162t-217.5 -388t-58.5 -453q0 -306 98 -578zM1823 2183q-14 -184 -107 -287q-115 -130 -348 -249l-188 -103q-170 -92 -277.5 -250
t-107.5 -352q8 -196 151 -282.5t357 -86.5q376 0 544 345q76 150 99.5 284t23.5 285q0 395 -147 696zM795 3396l626 -369q23 -12 42.5 -40.5t19.5 -53.5q0 -35 -20.5 -58.5t-53.5 -23.5q-24 0 -115 49q-52 35 -137 91t-113 69l-339 180q-91 49 -91 119q0 29 25.5 53.5
t56.5 24.5q25 0 99 -41z" />
    <glyph glyph-name="Uacute" unicode="&#xda;" horiz-adv-x="2638" 
d="M1761 1335v914q0 75 -16.5 105.5t-77.5 74.5l-172 123q-61 49 -61 78q5 48 113.5 77t176.5 29q15 0 111 -4t135 -4q21 0 121 6t121 6q79 0 209.5 -32t130.5 -87q0 -37 -66 -73l-151 -94q-107 -65 -107 -197v-1679q0 -86 16 -128t78 -85l201 -132q82 -52 82 -94
q0 -45 -102 -86q-143 -41 -336 -41q-25 0 -167.5 12.5t-172.5 12.5q-12 0 -245 -22.5t-361 -22.5q-456 0 -721 282q-267 272 -267 742q0 288 119.5 571.5t323.5 521.5l115 136q90 101 90 184q0 78 -115 78h-143q-86 0 -86 -53q0 -22 12 -40t39 -39.5t30 -23.5l123 -98
l-123 -135l-167 114q-45 32 -105 75t-117.5 93.5t-94 103t-36.5 101.5q0 127 234 127h704q205 0 213 -90q0 -129 -110 -270l-135 -177q-357 -468 -357 -880q0 -219 84.5 -398t242.5 -282t369 -103q202 0 324 66q90 57 90 213q0 214 -126 439t-324 412t-410 300l102 147
q287 -185 454 -346t308 -428zM2089 3261l-626 -369q-70 -41 -99 -41q-31 0 -56.5 24.5t-25.5 53.5q0 70 91 119l340 180q22 11 109.5 67.5t139.5 91.5q88 50 115 50q33 0 53.5 -23.5t20.5 -58.5q0 -25 -19.5 -53.5t-42.5 -40.5z" />
    <glyph glyph-name="Ucircumflex" unicode="&#xdb;" horiz-adv-x="2638" 
d="M1761 1335v914q0 75 -16.5 105.5t-77.5 74.5l-172 123q-61 49 -61 78q5 48 113.5 77t176.5 29q15 0 111 -4t135 -4q21 0 121 6t121 6q79 0 209.5 -32t130.5 -87q0 -37 -66 -73l-151 -94q-107 -65 -107 -197v-1679q0 -86 16 -128t78 -85l201 -132q82 -52 82 -94
q0 -45 -102 -86q-143 -41 -336 -41q-25 0 -167.5 12.5t-172.5 12.5q-12 0 -245 -22.5t-361 -22.5q-456 0 -721 282q-267 272 -267 742q0 288 119.5 571.5t323.5 521.5l115 136q90 101 90 184q0 78 -115 78h-143q-86 0 -86 -53q0 -22 12 -40t39 -39.5t30 -23.5l123 -98
l-123 -135l-167 114q-45 32 -105 75t-117.5 93.5t-94 103t-36.5 101.5q0 127 234 127h704q205 0 213 -90q0 -129 -110 -270l-135 -177q-357 -468 -357 -880q0 -219 84.5 -398t242.5 -282t369 -103q202 0 324 66q90 57 90 213q0 214 -126 439t-324 412t-410 300l102 147
q287 -185 454 -346t308 -428zM1335 3404q90 -117 283 -205l217 -90q151 -59 151 -147q0 -34 -26 -58t-60 -24q-23 0 -58.5 15.5t-102.5 50.5t-113 57q-228 107 -291 180q-73 -73 -295 -180q-28 -14 -100 -52.5t-109 -54.5t-65 -16q-32 0 -59 24.5t-27 57.5q0 90 155 147
l213 90q195 85 287 205z" />
    <glyph glyph-name="Ugrave" unicode="&#xd9;" horiz-adv-x="2638" 
d="M1761 1335v914q0 75 -16.5 105.5t-77.5 74.5l-172 123q-61 49 -61 78q5 48 113.5 77t176.5 29q15 0 111 -4t135 -4q21 0 121 6t121 6q79 0 209.5 -32t130.5 -87q0 -37 -66 -73l-151 -94q-107 -65 -107 -197v-1679q0 -86 16 -128t78 -85l201 -132q82 -52 82 -94
q0 -45 -102 -86q-143 -41 -336 -41q-25 0 -167.5 12.5t-172.5 12.5q-12 0 -245 -22.5t-361 -22.5q-456 0 -721 282q-267 272 -267 742q0 288 119.5 571.5t323.5 521.5l115 136q90 101 90 184q0 78 -115 78h-143q-86 0 -86 -53q0 -22 12 -40t39 -39.5t30 -23.5l123 -98
l-123 -135l-167 114q-45 32 -105 75t-117.5 93.5t-94 103t-36.5 101.5q0 127 234 127h704q205 0 213 -90q0 -129 -110 -270l-135 -177q-357 -468 -357 -880q0 -219 84.5 -398t242.5 -282t369 -103q202 0 324 66q90 57 90 213q0 214 -126 439t-324 412t-410 300l102 147
q287 -185 454 -346t308 -428zM865 3396l626 -369q23 -12 42.5 -40.5t19.5 -53.5q0 -35 -20.5 -58.5t-53.5 -23.5q-24 0 -115 49q-52 35 -137 91t-113 69l-339 180q-91 49 -91 119q0 29 25.5 53.5t56.5 24.5q25 0 99 -41z" />
    <glyph glyph-name="dotlessi" unicode="&#x131;" horiz-adv-x="1057" 
d="M774 299q23 -11 57 -33q160 -84 173 -135q0 -38 -62 -70q-118 -69 -233 -69q-13 0 -88 10t-93 10q-17 0 -89 -10t-87 -10q-108 0 -233 69q-58 36 -58 70q12 50 172 135q38 24 58 33v1393q0 53 -25 73l-98 74q-53 34 -53 82q0 74 188 74h459q188 0 188 -74q0 -50 -57 -86
l-107 -82q-12 -16 -12 -61v-1393z" />
    <glyph glyph-name="circumflex" unicode="&#x2c6;" 
d="M1024 2695q90 -117 283 -205l217 -90q151 -59 151 -147q0 -34 -26 -58t-60 -24q-23 0 -58.5 15.5t-102.5 50.5t-113 57q-228 107 -291 180q-73 -73 -295 -180q-28 -14 -100 -52.5t-109 -54.5t-65 -16q-32 0 -59 24.5t-27 57.5q0 90 155 147l213 90q195 85 287 205z" />
    <glyph glyph-name="tilde" unicode="&#x2dc;" 
d="M930 2617l287 -217q99 -69 147 -69q38 0 66 27.5t28 78.5q0 31 -12 86t-12 57q0 43 29 69t61 26q98 0 98 -140q0 -145 -83 -250.5t-224 -105.5q-117 0 -254 107l-230 188q-68 53 -114 53q-90 0 -90 -119q0 -16 6 -51t6 -59q0 -51 -23.5 -83t-62.5 -32q-60 0 -81 35
t-21 100q0 80 39 167.5t105.5 146.5t145.5 59q91 0 189 -74z" />
    <glyph glyph-name="macron" unicode="&#xaf;" 
d="M1020 2523q120 0 270 7q150 6 226 10q167 0 172 -78q0 -90 -152 -90h-467q-151 0 -281 -3q-131 -4 -206 -6q-111 0 -158 15.5t-47 66.5q8 90 184 90q70 -3 208 -7q138 -5 251 -5z" />
    <glyph glyph-name="breve" unicode="&#x2d8;" 
d="M655 2621l45 -69q50 -85 143.5 -147t180.5 -62t181 61.5t147 147.5l41 69q45 74 98 74q45 0 69.5 -42.5t24.5 -92.5q0 -101 -94 -193t-229.5 -148t-237.5 -56q-99 0 -233 55t-231 146.5t-97 195.5q0 48 24.5 91.5t69.5 43.5q53 0 98 -74z" />
    <glyph glyph-name="dotaccent" unicode="&#x2d9;" 
d="M1020 2576q283 0 283 -163q0 -102 -85.5 -145.5t-197.5 -43.5q-113 0 -196 43.5t-83 145.5q0 163 279 163z" />
    <glyph glyph-name="ring" unicode="&#x2da;" 
d="M1036 2765q171 0 298.5 -59t127.5 -203q0 -279 -426 -279q-422 0 -422 262q0 279 422 279zM1036 2671q-94 0 -167.5 -44.5t-73.5 -132.5q0 -90 72 -131t169 -41q100 0 173 41t73 131q0 88 -74.5 132.5t-171.5 44.5z" />
    <glyph glyph-name="cedilla" unicode="&#xb8;" 
d="M885 0h192l-53 -176q88 20 139 20q129 0 224.5 -86.5t95.5 -208.5q0 -166 -110 -261t-279 -95q-92 0 -152 18.5t-151.5 55.5t-126.5 37q-48 0 -91 -41q-4 8 -4 28q0 89 69.5 149t160.5 60q46 0 142.5 -18.5t160.5 -18.5q51 0 91 32t40 83q0 127 -213 127q-89 0 -242 -49z
" />
    <glyph glyph-name="hungarumlaut" unicode="&#x2dd;" 
d="M668 2347l360 541q64 90 131 90q32 0 53 -30.5t21 -68.5q0 -70 -103 -180l-69 -78q-108 -124 -143 -204l-41 -95q-69 -163 -172 -163q-31 0 -54.5 22.5t-23.5 54.5q0 47 41 111zM1077 2347l361 541q61 90 131 90q35 0 54 -30t19 -69q0 -69 -102 -180l-70 -78
q-106 -122 -143 -204l-41 -95q-69 -163 -172 -163q-31 0 -54.5 22.5t-23.5 54.5q0 43 41 111z" />
    <glyph glyph-name="ogonek" unicode="&#x2db;" 
d="M1651 49h327q-56 -67 -121 -90.5t-223 -64.5q-274 -78 -274 -209q0 -127 176 -127q43 0 149.5 22.5t129.5 22.5q208 0 208 -230q-44 37 -69 37q-24 0 -185.5 -57.5t-269.5 -57.5q-163 0 -274 96t-111 244q0 256 311 332l144 33q55 12 82 49z" />
    <glyph glyph-name="caron" unicode="&#x2c7;" 
d="M1028 2195q-88 116 -283 205l-217 90q-151 62 -151 148q0 34 26 58t60 24q33 0 134 -52.5t140 -70.5q230 -109 291 -180q75 72 295 180q15 7 97.5 51t115.5 58t61 14q32 0 59 -24.5t27 -57.5q0 -88 -155 -148l-213 -90q-195 -85 -287 -205z" />
    <glyph glyph-name="Lslash" horiz-adv-x="2298" 
d="M1700 1499q35 -17 90 -44.5t103.5 -77.5t48.5 -120q0 -18 -23 -89t-23 -78q0 -40 48 -140.5t139.5 -269.5t144.5 -274t53 -136q0 -101 -100 -160.5t-225.5 -84.5t-210.5 -25q-107 0 -299 29l-209 24q-61 8 -184 8q-98 0 -181 -16l-81 -16q-174 -37 -295 -37
q-125 0 -304.5 53.5t-179.5 138.5q0 107 213 275l99 78q102 79 143.5 125.5t59 115t18.5 197.5l4 418l-103 -74q-15 -10 -57 -62q-39 -69 -82 -69l-49 4q-35 0 -123 -57q42 65 53 139q19 84 119 147q70 44 94 66l148 131v741q0 60 -10 80.5t-56 50.5l-123 74q-86 50 -86 98
q0 70 91 70h811q81 0 81 -66q0 -44 -40 -73l-127 -90q-45 -32 -55.5 -52.5t-10.5 -78.5v-430l78 57q5 5 17 15t19.5 17.5t12.5 16.5l45 74q31 43 139 53q55 0 107 33q-49 -42 -49 -111l16 -57q0 -69 -78 -94q-82 -35 -139 -82l-164 -131v-742q0 -55 10.5 -88.5t51.5 -50.5
l45 -16q49 -18 49 -62q0 -68 -103 -110l-131 -50q-165 -54 -416 -172.5t-251 -195.5q0 -45 143 -45q78 0 234.5 40.5t252.5 86.5l119 57q154 68 344 127q255 82 369 82q42 0 90 -8t49 -8q33 0 33 24q0 48 -117 211t-166 242.5t-49 169.5q0 51 15 82.5t43.5 66t42.5 60
t14 65.5z" />
    <glyph glyph-name="lslash" horiz-adv-x="1106" 
d="M795 1876l90 86q56 45 78 45q25 0 45 -20t20 -45q0 -37 -20 -54l-213 -209v-1380q225 -112 225 -168q0 -44 -90 -91.5t-185 -47.5q-12 0 -92 10t-96 10t-91 -10t-89 -10q-83 0 -185 45t-102 86q0 59 172 143q13 10 62 33v954l-111 -102q-73 -61 -98 -61q-49 0 -49 65
q0 41 20 53l229 222v999q0 39 -24.5 67t-56 49.5t-65.5 48.5t-34 52q0 86 189 86h401q30 0 50 -26.5t20 -59.5v-770z" />
    <glyph glyph-name="Eth" horiz-adv-x="2634" 
d="M1069 1479q4 0 15 -2t14 -2q57 17 57 151q0 69 -25.5 117.5t-69.5 84t-85.5 58t-126.5 64.5l-402 209q-150 74 -281.5 184t-131.5 233q8 80 81.5 118t172.5 38q65 0 175 -4t181 -4q130 0 332 2t328 2q317 0 545 -138t363.5 -358.5t197 -470.5t61.5 -487
q0 -301 -76.5 -539t-224.5 -404t-359.5 -252.5t-474.5 -86.5q-6 0 -179 14t-251 14q-43 0 -207 -8t-170 -8q-167 0 -299 57q-142 75 -147 103q0 58 155 187t259 198q71 48 92.5 98.5t21.5 143.5v1224l459 -237v-299zM557 1352q-20 4 -61 4q-47 0 -148 -45q-71 -25 -123 -25
t-119 49t-122 49q-13 0 -34 -2t-32 -2q32 12 132.5 80t137.5 68q54 0 156 -25q71 -20 168 -20h45v-131zM1069 1352v-238q0 -156 70 -209q53 -35 53 -69q-4 -41 -74 -66q-65 -25 -156.5 -87.5t-146.5 -117.5q196 -24 389 -24q339 0 530 141.5t260.5 365t69.5 513.5
q0 243 -75.5 433.5t-196.5 316t-255 187.5t-251 62q-122 0 -221 -41v-446l-463 229l-4 111q0 122 -90 122q-74 0 -74 -102q8 -74 58 -113.5t163 -99.5l549 -270q132 -66 217.5 -143t85.5 -189q0 -266 -438 -266z" />
    <glyph glyph-name="Scaron" horiz-adv-x="2294" 
d="M1757 2105q-60 -12 -106 -12q-63 0 -111.5 55.5t-48.5 120.5q0 54 35 103t35 73q0 95 -283 95h-459q-233 0 -233 -99q0 -114 311 -254l369 -172q275 -129 469.5 -273.5t315 -364.5t120.5 -529q0 -227 -98 -423.5t-285.5 -314.5t-439.5 -118q-17 0 -130 10t-128 10
q-36 0 -155 -8t-132 -8q-185 0 -357 98q-153 93 -244 258.5t-91 343.5q0 180 69.5 342.5t207.5 264.5t329 102q313 0 512 -242q59 -69 110 -69q16 0 58 16q-15 -129 -60.5 -208t-160.5 -79q-57 0 -103 15.5t-100.5 45t-98.5 46t-96 16.5t-93.5 -49t-41.5 -106
q0 -275 438 -275q295 0 444.5 127.5t149.5 372.5q0 186 -107 325t-253 228.5t-369 195.5l-336 164q-438 207 -438 516q0 154 116 218.5t281 68.5h1082q393 0 393 -168q0 -124 -115 -188l-143 -82q-86 -44 -86 -99q0 -9 28 -48t29 -42zM1167 2879q-88 116 -283 205l-217 90
q-151 62 -151 148q0 34 26 58t60 24q33 0 134 -52.5t140 -70.5q230 -109 291 -180q75 72 295 180q15 7 97.5 51t115.5 58t61 14q32 0 59 -24.5t27 -57.5q0 -88 -155 -148l-213 -90q-195 -85 -287 -205z" />
    <glyph glyph-name="Thorn" horiz-adv-x="2503" 
d="M1085 1425q63 29 115 29q83 0 145.5 -54.5t71.5 -137.5l4 -70q7 -54 52.5 -84.5t103.5 -30.5q164 0 250 124t86 286q0 210 -89.5 366t-245 239t-349.5 83q-159 0 -225 -49q-29 -29 -29 -127v-676q-107 -131 -107 -262q0 -155 107 -266v-308q0 -53 49 -101t142 -108.5
t135 -93.5t42 -65q0 -64 -100.5 -95.5t-177.5 -31.5q-22 0 -148 14t-151 14q-66 0 -180 -14t-131 -14q-89 0 -198.5 37t-109.5 94q0 30 42 64.5t134 93t138.5 97t46.5 73.5v1929q0 47 -36.5 80t-107.5 73t-101 64.5t-30 60.5q0 31 28.5 50.5t62.5 19.5h806q31 0 61 -18
t30 -44q0 -33 -28 -59.5t-90.5 -68t-91 -67t-28.5 -54.5q0 -36 26.5 -43t153.5 -7q130 0 336 -28q455 -63 692.5 -321t237.5 -658q0 -355 -207.5 -575t-603.5 -220q-148 0 -307.5 55.5t-268 166.5t-108.5 266q0 151 94 233l37 33q37 30 37 74q0 17 -17 32z" />
    <glyph glyph-name="Yacute" horiz-adv-x="2707" 
d="M1716 1331v-815q0 -47 10 -75.5t28.5 -46.5t53 -37t76.5 -42q49 -27 72 -39.5t62.5 -38.5t67.5 -54.5t28 -51.5q0 -59 -115 -95t-189 -36q-22 0 -138 14.5t-152 14.5q-29 0 -146.5 -17.5t-144.5 -19.5q-103 0 -238 57q-48 21 -71 34.5t-23 39.5q0 42 107.5 114t179.5 111
q73 56 73 205v565l-745 967q-23 32 -53.5 47t-73 27.5t-58.5 24t-16 36.5q0 50 49 66l488 176q9 4 50.5 17.5t73.5 30t32 30.5q0 24 -107 24l-344 -8q-181 -10 -217 -82v-57l16 -29q3 -6 6.5 -15t6.5 -18q-30 12 -127 21q-99 7 -183 61t-84 143q0 152 262 152h918
q328 0 328 -86q0 -44 -38.5 -69t-121.5 -62l-266 -115q-70 -25 -70 -78q0 -30 24 -73t59.5 -89t55.5 -71l496 -627q573 508 573 836q0 62 -33 109t-94 47q-40 0 -201 -36t-196 -42q-89 -18 -237 -52t-218 -51q-8 -1 -22 -4t-28.5 -5.5t-22.5 -2.5q-70 0 -70 49
q0 26 37.5 39.5t118.5 34.5q219 63 651 221l127 49q227 86 360 86q96 0 177 -44.5t81 -131.5q0 -227 -323 -631q-210 -259 -582 -602zM2158 3265l-626 -369q-70 -41 -99 -41q-31 0 -56.5 24.5t-25.5 53.5q0 70 91 119l340 180q22 11 109.5 67.5t139.5 91.5q88 50 115 50
q33 0 53.5 -23.5t20.5 -58.5q0 -25 -19.5 -53.5t-42.5 -40.5z" />
    <glyph glyph-name="Zcaron" horiz-adv-x="2642" 
d="M1847 1630q7 -4 17 -12t16 -12l78 -33q115 -46 115 -225q0 -51 -18.5 -120t-18.5 -102q0 -61 104 -166.5t215.5 -211t191 -225t79.5 -249.5q0 -124 -102 -197t-234 -73q-69 0 -442 15q-373 14 -468 14q-201 0 -479 -20.5l-278 -20.5v0q-175 0 -352 45t-177 168
q0 97 139 278l1389 1819q98 129 98 172q0 82 -200 82h-643q-242 0 -254 -107q0 -122 213 -295l176 -147q45 -30 45 -98q0 -54 -24.5 -84t-93 -90t-116 -124.5t-78.5 -164.5q-16 16 -20 16l-49 13q-98 22 -98 159q0 71 28.5 182t28.5 154q0 64 -73 123t-219.5 150.5
t-224 165.5t-77.5 163q0 98 197 131t561 33q71 0 217 -2t217 -2q472 0 791 -28t319 -132q0 -71 -49 -143l-1000 -1278q-20 -27 -144.5 -198t-195.5 -269q-32 -50 -32 -74q0 -94 258 -94h659q344 0 344 78q0 81 -352 287l-156 90q-94 58 -94 139t35.5 131t102.5 106.5
t101.5 104t34.5 121.5q0 17 -8 57zM1331 2879q-88 116 -283 205l-217 90q-151 62 -151 148q0 34 26 58t60 24q33 0 134 -52.5t140 -70.5q230 -109 291 -180q75 72 295 180q15 7 97.5 51t115.5 58t61 14q32 0 59 -24.5t27 -57.5q0 -88 -155 -148l-213 -90q-195 -85 -287 -205
z" />
    <glyph glyph-name="brokenbar" 
d="M782 2728h480v-1405h-480v1405zM782 627h480v-1311h-480v1311z" />
    <glyph glyph-name="eth" horiz-adv-x="2146" 
d="M1028 2367l-274 -192q-52 -33 -74 -33q-45 0 -45 82q13 35 45 53l278 205q-4 9 -13 26t-15 32l-33 57q-37 61 -57 61q-29 0 -29 -57q-6 -48 -38.5 -79.5t-80.5 -31.5q-127 0 -127 172q25 -24 58 -24q39 0 49 69q13 121 43.5 194t115.5 73q80 0 131.5 -43t114.5 -125
l123 -152l189 135q58 41 106 41q24 0 49 -20l37 -29q12 -8 29 -8q22 0 49 29q-6 -131 -139 -131q-60 0 -111 -33l-119 -86l275 -311q215 -249 295 -390q172 -316 172 -704q0 -558 -234 -873q-218 -282 -516 -282q-10 0 -98 10t-111 10q-13 0 -93 -6t-99 -6q-127 0 -267 78.5
t-237 187.5q-127 145 -194.5 377t-67.5 451q0 270 96.5 492t307 356.5t538.5 134.5q59 0 147 -9zM1593 1266q0 163 -57.5 305t-179 229.5t-303.5 87.5q-171 0 -284 -93.5t-166.5 -236.5t-53.5 -288q0 -258 128.5 -442.5t375.5 -184.5q172 0 293.5 82t184 224t62.5 317z" />
    <glyph glyph-name="minus" horiz-adv-x="2265" 
d="M389 1577h1393q151 0 241.5 -31t90.5 -149q0 -122 -90.5 -153.5t-241.5 -31.5h-1299q-150 0 -240.5 31.5t-90.5 153.5q0 94 67.5 137t169.5 43z" />
    <glyph glyph-name="multiply" horiz-adv-x="2265" 
d="M1135 1651l405 409q35 34 75 72.5t79.5 61t87.5 22.5q72 0 122 -50t50 -122q0 -46 -23 -87.5t-61 -80.5t-72 -74l-409 -405l409 -410q81 -78 118.5 -126t37.5 -116q0 -72 -51 -122t-121 -50q-47 0 -86.5 22.5t-83.5 64.5t-72 69l-405 410l-410 -410l-49 -49t-62 -56
t-62.5 -37t-68.5 -14q-70 0 -121 51t-51 121q0 66 37.5 115t118.5 127l410 410l-410 405q-34 35 -72 74t-61 80t-23 88q0 70 50 121t122 51q68 0 111 -34t131 -122z" />
    <glyph glyph-name="onehalf" horiz-adv-x="3416" 
d="M688 2347q-6 -4 -63 -43.5t-99.5 -62.5t-79.5 -29q-151 0 -151 90q0 37 49 45l41 12q223 45 483 258l29 25q43 33 61 33q50 0 50 -58v-1192q0 -75 23.5 -101.5t75.5 -63.5t52 -76q0 -47 -56.5 -73t-107.5 -26q-8 0 -64.5 10.5t-74.5 10.5q-11 0 -81 -8t-87 -8
q-50 0 -105 24t-55 70q0 25 20 43t59 43.5t60 49t21 56.5v971zM2572 2589l-1556 -2634q-35 -57 -111 -57q-78 8 -78 77q5 31 25 66l1544 2613q38 50 103 58q89 0 94 -58q0 -39 -21 -65zM3232 545q-12 -6 -30.5 -24.5t-18.5 -49.5q0 -5 42.5 -66t75.5 -131t33 -139
q0 -72 -106 -105.5t-197 -33.5q-9 0 -151 10t-222 10q-34 0 -205 -10t-180 -10q-62 0 -143.5 28.5t-81.5 73.5q0 93 129 242t256 250l152 119q282 217 282 454q0 128 -86.5 211.5t-216.5 83.5q-93 0 -173.5 -52.5t-80.5 -148.5q12 -118 144 -118q70 0 114 61q50 66 90 66
q51 0 90 -45q-36 -29 -36 -45q0 -3 10 -41t10 -62q0 -102 -89 -165.5t-218 -63.5q-122 0 -235 87t-113 261q0 214 162 309.5t399 95.5q247 0 420.5 -87.5t173.5 -313.5q0 -170 -107.5 -283t-306.5 -233l-106 -62q-283 -158 -283 -233q4 -37 70 -37q25 0 107 6t126 6
q28 0 96 -6t97 -6q86 0 94 41q0 5 -2 39t-2 47q0 47 34 81t80 34q56 0 103 -45z" />
    <glyph glyph-name="onequarter" horiz-adv-x="3416" 
d="M3101 819q9 -4 38.5 -19t47.5 -18l49 -12q63 -12 103 -65.5t40 -126.5q0 -99 -69 -170.5t-164 -71.5q-13 0 -102.5 18.5t-172.5 18.5q-46 0 -243.5 -16.5t-276.5 -16.5q-108 0 -228 40t-120 124q0 43 65 143l164 225q28 38 65 87.5t75 108.5t62 108.5t24 80.5
q0 61 -35 133t-35 85q0 63 111 81q86 17 270 17q3 0 41 2t69 2q250 0 250 -70q0 -24 -38.5 -49.5t-55 -43.5t-16.5 -66v-668q-26 0 -78 2t-78 2q-119 0 -176 -4v684q0 57 -33 57q-35 0 -57 -118q-49 -255 -193 -553q-32 -67 -32 -78q0 -45 98 -45q38 0 151 10t144 10
q88 0 161 -4t113 -4q49 0 74 13t25 57q0 42 -37 110zM3019 319v-28q0 -31 43 -60.5t86 -59.5t43 -60q0 -52 -69.5 -83.5t-127.5 -31.5q-9 0 -63 6t-64 6q-11 0 -78 -4t-86 -4q-50 0 -117 30t-67 76q0 27 21 44.5t65 43t69 48t25 53.5v33q98 8 156 8q64 0 164 -17zM688 2347
q-6 -4 -63 -43.5t-99.5 -62.5t-79.5 -29q-151 0 -151 90q0 37 49 45l41 12q223 45 483 258l29 25q43 33 61 33q50 0 50 -58v-1192q0 -75 23.5 -101.5t75.5 -63.5t52 -76q0 -47 -56.5 -73t-107.5 -26q-8 0 -64.5 10.5t-74.5 10.5q-11 0 -81 -8t-87 -8q-50 0 -105 24t-55 70
q0 25 20 43t59 43.5t60 49t21 56.5v971zM2572 2589l-1556 -2634q-35 -57 -111 -57q-78 8 -78 77q5 31 25 66l1544 2613q38 50 103 58q89 0 94 -58q0 -39 -21 -65z" />
    <glyph glyph-name="onesuperior" horiz-adv-x="1450" 
d="M688 2347q-6 -4 -63 -43.5t-99.5 -62.5t-79.5 -29q-151 0 -151 90q0 37 49 45l41 12q223 45 483 258l29 25q43 33 61 33q50 0 50 -58v-1192q0 -75 23.5 -101.5t75.5 -63.5t52 -76q0 -47 -56.5 -73t-107.5 -26q-8 0 -64.5 10.5t-74.5 10.5q-11 0 -81 -8t-87 -8
q-50 0 -105 24t-55 70q0 25 20 43t59 43.5t60 49t21 56.5v971z" />
    <glyph glyph-name="scaron" horiz-adv-x="2085" 
d="M197 926q66 32 131 32q122 0 215 -75.5t96 -194.5q0 -87 45 -123q90 -69 283 -69q434 0 434 229q0 125 -121.5 225.5t-271.5 163.5l-217 98q-184 84 -297.5 143.5t-225.5 162t-112 215.5q0 153 180.5 207.5t392.5 54.5h578q266 0 389 -33q155 -38 155 -160
q0 -85 -60 -136.5t-144 -51.5q-185 0 -185 184q-30 2 -89 11.5t-95 9.5h-254q-283 0 -283 -90t149 -173.5t302 -138.5l192 -74q261 -96 423.5 -274t162.5 -426q0 -185 -71.5 -333.5t-206.5 -233t-316 -84.5q-30 0 -208.5 18.5t-225.5 18.5q-142 0 -284.5 -14.5t-165.5 -14.5
q-104 0 -205 54.5t-163.5 147t-62.5 199.5q0 99 26.5 150t88.5 143t62 142q0 58 -41 90zM1044 2195q-88 116 -283 205l-217 90q-151 62 -151 148q0 34 26 58t60 24q33 0 134 -52.5t140 -70.5q230 -109 291 -180q75 72 295 180q15 7 97.5 51t115.5 58t61 14q32 0 59 -24.5
t27 -57.5q0 -88 -155 -148l-213 -90q-195 -85 -287 -205z" />
    <glyph glyph-name="thorn" horiz-adv-x="2191" 
d="M766 1495v-877q-70 -111 -70 -229q0 -130 78 -237v-562q54 -24 139.5 -78t85.5 -90q0 -42 -57 -69q-120 -70 -229 -70q-11 0 -83 10.5t-93 10.5t-90 -10.5t-91 -10.5q-109 0 -229 70q-57 27 -57 69t112.5 102.5t112.5 86.5v2822q0 40 -29 65t-83 54t-79.5 50.5
t-25.5 55.5q0 74 213 74h446q185 0 185 -74q0 -31 -23.5 -57t-68.5 -57.5t-62.5 -48t-17.5 -41.5v-762l323 217q127 86 299 86q165 0 310.5 -91t242.5 -249q164 -264 164 -709q0 -137 -40.5 -318.5t-143.5 -328.5q-113 -164 -286 -264.5t-362 -100.5q-125 0 -246 57.5
t-197.5 161.5t-76.5 232q0 76 21.5 121t59.5 99t38 83q0 34 -29 70q51 12 70 12q168 0 205 -176q25 -123 188 -123q220 0 323 201t103 450q0 253 -125 419.5t-350 166.5q-97 0 -159.5 -28.5t-188.5 -106.5z" />
    <glyph glyph-name="threequarters" horiz-adv-x="3416" 
d="M430 1602q-33 -43 -33 -70q0 -82 111 -82q18 0 78 2t78 2t84 -4t75 -4q72 0 122 58t50 134q0 177 -127.5 254t-330.5 107l-86 16q-66 8 -66 62q0 49 66 65l303 99q108 35 170.5 73t62.5 111q0 78 -79.5 108.5t-170.5 30.5q-209 0 -209 -49q0 -18 33 -29q127 -18 127 -98
q0 -47 -45 -90q-18 49 -65 49q-3 0 -56 -8t-63 -8q-79 0 -162.5 39.5t-83.5 128.5q0 188 512 188q598 0 598 -262q0 -154 -146.5 -214t-345.5 -89q-40 -3 -99.5 -10.5t-59.5 -14.5q0 -10 43 -16t71 -8q277 -60 433.5 -183t156.5 -354q0 -109 -55 -213t-150.5 -168.5
t-207.5 -64.5q-14 0 -120 4t-126 4q-33 0 -128.5 -6.5t-109.5 -6.5q-168 0 -284.5 88t-116.5 228q0 97 62 171.5t155 74.5q69 0 135 -45zM3101 819q9 -4 38.5 -19t47.5 -18l49 -12q63 -12 103 -65.5t40 -126.5q0 -99 -69 -170.5t-164 -71.5q-13 0 -102.5 18.5t-172.5 18.5
q-46 0 -243.5 -16.5t-276.5 -16.5q-108 0 -228 40t-120 124q0 43 65 143l164 225q28 38 65 87.5t75 108.5t62 108.5t24 80.5q0 61 -35 133t-35 85q0 63 111 81q86 17 270 17q3 0 41 2t69 2q250 0 250 -70q0 -24 -38.5 -49.5t-55 -43.5t-16.5 -66v-668q-26 0 -78 2t-78 2
q-119 0 -176 -4v684q0 57 -33 57q-35 0 -57 -118q-49 -255 -193 -553q-32 -67 -32 -78q0 -45 98 -45q38 0 151 10t144 10q88 0 161 -4t113 -4q49 0 74 13t25 57q0 42 -37 110zM3019 319v-28q0 -31 43 -60.5t86 -59.5t43 -60q0 -52 -69.5 -83.5t-127.5 -31.5q-9 0 -63 6
t-64 6q-11 0 -78 -4t-86 -4q-50 0 -117 30t-67 76q0 27 21 44.5t65 43t69 48t25 53.5v33q98 8 156 8q64 0 164 -17zM2572 2589l-1556 -2634q-35 -57 -111 -57q-78 8 -78 77q5 31 25 66l1544 2613q38 50 103 58q89 0 94 -58q0 -39 -21 -65z" />
    <glyph glyph-name="threesuperior" horiz-adv-x="1450" 
d="M430 1602q-33 -43 -33 -70q0 -82 111 -82q18 0 78 2t78 2t84 -4t75 -4q72 0 122 58t50 134q0 177 -127.5 254t-330.5 107l-86 16q-66 8 -66 62q0 49 66 65l303 99q108 35 170.5 73t62.5 111q0 78 -79.5 108.5t-170.5 30.5q-209 0 -209 -49q0 -18 33 -29q127 -18 127 -98
q0 -47 -45 -90q-18 49 -65 49q-3 0 -56 -8t-63 -8q-79 0 -162.5 39.5t-83.5 128.5q0 188 512 188q598 0 598 -262q0 -154 -146.5 -214t-345.5 -89q-40 -3 -99.5 -10.5t-59.5 -14.5q0 -10 43 -16t71 -8q277 -60 433.5 -183t156.5 -354q0 -109 -55 -213t-150.5 -168.5
t-207.5 -64.5q-14 0 -120 4t-126 4q-33 0 -128.5 -6.5t-109.5 -6.5q-168 0 -284.5 88t-116.5 228q0 97 62 171.5t155 74.5q69 0 135 -45z" />
    <glyph glyph-name="twosuperior" horiz-adv-x="1450" 
d="M1274 1638q-12 -6 -30.5 -24t-18.5 -49q0 -5 42.5 -66t75.5 -131t33 -139q0 -72 -106 -105.5t-197 -33.5q-9 0 -151 10t-222 10q-34 0 -205 -10t-180 -10q-62 0 -143.5 28.5t-81.5 73.5q0 92 129 241t256 250l152 119q282 219 282 455q0 128 -86.5 211.5t-216.5 83.5
q-93 0 -173.5 -52.5t-80.5 -148.5q12 -119 144 -119q69 0 114 62q49 65 90 65q52 0 91 -45q-37 -26 -37 -45q0 -2 10 -40t10 -62q0 -102 -89 -166t-218 -64q-122 0 -235 87.5t-113 261.5q0 214 162.5 309.5t398.5 95.5q247 0 420.5 -87.5t173.5 -313.5q0 -170 -109.5 -285
t-304.5 -231l-106 -62q-283 -167 -283 -233q4 -37 70 -37q25 0 107 6t126 6q28 0 96 -6t97 -6q86 0 94 41q0 4 -2 38t-2 48q0 46 34 80t80 34q58 0 103 -45z" />
    <glyph glyph-name="yacute" horiz-adv-x="2040" 
d="M1315 385v-692q0 -426 -250 -426q-196 0 -332 201q-31 57 -64 94t-79 37q-39 0 -107 -41q8 18 17.5 38.5t11.5 34.5v58q3 69 50 122.5t114 53.5q63 0 155 -45v475l-692 1307q-74 146 -155 208l-50 40t-27.5 32t-12.5 47q0 66 94 66h1024q69 0 69 -70q0 -59 -53 -86
l402 86q318 66 483 66q135 0 135 -119q0 -60 -53 -197q-234 -499 -275 -577q-64 -123 -286 -512zM774 1835h-237l565 -1139q23 -57 53 -57q38 0 135 160q287 422 287 811q0 85 -27.5 116t-111.5 31q-57 0 -107 -12l-323 -74q-110 -20 -152 -20q-151 0 -151 86q0 39 69 98z
M1581 2540l-626 -369q-70 -41 -99 -41q-31 0 -56.5 24.5t-25.5 53.5q0 70 91 119l340 180q22 11 109.5 67.5t139.5 91.5q88 50 115 50q33 0 53.5 -23.5t20.5 -58.5q0 -25 -19.5 -53.5t-42.5 -40.5z" />
    <glyph glyph-name="zcaron" horiz-adv-x="2064" 
d="M1835 860q-53 -51 -53 -86q0 -68 28.5 -117.5t95.5 -131.5t98.5 -140t31.5 -135q0 -149 -148.5 -203.5t-331.5 -54.5q-75 0 -321 28.5t-317 28.5q-123 0 -336 -26.5t-308 -26.5q-307 0 -307 115q0 48 70 135l1212 1446q21 32 21 41q0 57 -189 57h-344q-184 0 -184 -74
q0 -34 26.5 -81t26.5 -74q0 -71 -48.5 -121.5t-119.5 -50.5q-89 0 -143 106q57 19 57 53q0 37 -32.5 71t-99.5 86.5t-98.5 87.5t-31.5 75q0 127 377 127h1110q373 0 373 -99q0 -48 -37 -102l-1045 -1212q136 -62 312 -62q389 0 389 156q0 16 -18.5 61t-18.5 86q0 53 47 92.5
t104 42.5q96 0 152 -98zM1036 2195q-88 116 -283 205l-217 90q-151 62 -151 148q0 34 26 58t60 24q33 0 134 -52.5t140 -70.5q230 -109 291 -180q75 72 295 180q15 7 97.5 51t115.5 58t61 14q32 0 59 -24.5t27 -57.5q0 -88 -155 -148l-213 -90q-195 -85 -287 -205z" />
    </font>
</defs>
</svg>
